<?xml version="1.0" encoding="utf-8" ?>
<svg xmlns="http://www.w3.org/2000/svg" xmlns:xlink="http://www.w3.org/1999/xlink" width="6128" height="4085">
	<path fill="#F9F9F8" transform="scale(3.98934 3.98934)" d="M0 0L1534.69 0C1535.35 1.05432 1535.76 2.05278 1535.86 3.31319C1537.22 20.0779 1536 37.9556 1536 54.8118L1536.01 161.761L1536.01 802.626L1536.01 963.194L1536 1004.3C1536 1009.5 1536.81 1016.33 1535.79 1021.37C1535.59 1022.35 1535.22 1023.16 1534.69 1024L0 1024L0 0Z"/>
	<path fill="#222122" transform="scale(3.98934 3.98934)" d="M810.832 838.944C822.287 830.023 903.161 786.382 905.233 782.479C906.386 780.307 906.706 770.918 909.661 765.312C910.678 763.381 911.788 761.712 913.495 760.301C920.451 754.548 929.511 749.795 937.171 744.858L992.281 709.372C1002.02 703.091 1012.68 697.132 1021.69 689.882C1026.58 685.944 1030.13 679.832 1034.55 675.293C1045.42 664.112 1057.6 653.686 1070.53 644.948C1077.99 639.907 1086.25 635.953 1094.59 632.615C1102.08 629.619 1110.55 627.164 1117.1 622.38C1122.47 618.464 1126.77 613.457 1131.14 608.503C1144.92 592.85 1157.14 577.365 1177.98 570.913C1196.13 565.291 1216.46 568.234 1234.4 573.484C1240.37 575.232 1246.3 577.619 1252.35 579.009C1266.56 582.268 1278.26 581.589 1291.94 588.872C1296.37 591.232 1302.24 595.353 1303.79 600.349C1292.87 598.071 1258.42 597.754 1248.91 603.42C1247.5 604.263 1247.46 604.546 1247.02 606.114C1251.53 608.637 1260.57 608.547 1265.98 609.69C1272.6 611.092 1279.24 612.793 1285.6 615.152C1290.37 616.922 1299.16 620.285 1301.33 625.313C1301.39 625.461 1301.45 625.614 1301.51 625.765C1289.19 628.855 1256.65 626.467 1242.07 626.967C1241.75 627.745 1241.91 627.591 1241.43 628.089C1237.37 632.305 1232.12 636.929 1229.15 641.958C1218.4 660.124 1228.94 683.666 1224 693.045C1223.99 692.717 1224 692.39 1223.98 692.063C1223.75 687.897 1218.05 677.234 1214.97 674.413C1216.24 679.1 1215.52 683.986 1215.11 688.761C1213.98 701.907 1209.74 734.473 1199.45 743.123C1199.97 741.922 1200.45 740.708 1200.78 739.442C1201.66 736.105 1201.63 732.922 1199.86 729.883C1199.71 730.902 1199.57 731.893 1199.31 732.89C1196.79 742.367 1183.67 762.917 1175.15 767.576C1175.86 766.642 1176.54 765.688 1177.19 764.715C1179.86 760.664 1181.25 755.81 1180.26 751.008C1180.21 751.573 1180.22 751.748 1180.07 752.257C1178.97 756.117 1161.29 775.652 1157.75 777.763C1157.05 774.885 1158.38 772.289 1157.44 769.345C1157.39 769.203 1157.34 769.064 1157.29 768.923C1155.73 775.026 1143.37 790.045 1139.35 796.57C1133.86 805.47 1120.46 834.311 1113.97 839.251C1120.87 843.921 1128.5 856.072 1134.07 863.043C1142.69 873.839 1151.14 883.152 1162.38 891.362L1166.19 890.553L1166.78 891.702C1174.15 892.806 1183.28 892.175 1190.69 891.332L1189.75 892.73C1195.62 892.552 1201.25 895.119 1205.47 899.19C1207.78 901.414 1210.64 905.386 1210.76 908.695C1210.78 909.318 1210.68 909.9 1210.58 910.511C1210.53 910.843 1210.49 911.176 1210.44 911.509C1208.33 907.963 1204.92 905.384 1200.93 904.326C1196.26 903.115 1191.5 903.728 1186.74 904.048C1190.07 908.302 1193.2 913.336 1193.66 918.817C1181.47 910.116 1153.38 901.377 1138.32 902.608C1136.69 903.293 1134.58 903.383 1133.3 904.565C1139.85 905.006 1146.52 905.61 1151.76 910.036C1154.59 912.434 1159.35 917.997 1159.67 921.813C1156.39 923.401 1149.11 917.262 1145.27 916.226C1141.55 915.22 1136.79 915.588 1132.92 915.546C1137.44 918.081 1141.81 921.158 1143.53 926.315C1144.15 928.162 1144.78 930.562 1143.88 932.291C1140.13 930.988 1138.07 926.491 1134.44 924.499C1134.29 924.415 1134.13 924.34 1133.97 924.261C1130.42 924.088 1126.62 924.095 1123.13 923.384C1116.31 921.991 1109.62 918.858 1102.61 918.421C1099.17 918.207 1095.45 918.785 1092.02 919.131C1091.24 920.135 1090.46 920.905 1089.39 921.611C1084.21 925.03 1075.6 924.347 1069.55 925.674C1065 926.671 1060.54 928.096 1056.14 929.598C1034.98 936.827 1013.71 947.137 994.687 958.894C988.45 962.75 973.517 974.694 966.596 973.402C965.812 971.517 965.845 971.196 966.21 969.175C973.943 958.465 1018.91 936.454 1032.58 930.532C1039.71 927.442 1047.33 925.63 1054.37 922.331C1055.33 920.106 1052.32 917.767 1052.32 915.001C1054.47 913.483 1064.11 915.726 1067.82 915.09C1072.63 914.266 1079.22 910.694 1081.94 906.563C1082.1 906.326 1082.24 906.081 1082.39 905.839C1082.35 905.327 1082.37 905.172 1082.14 904.634C1079.64 898.786 1050.62 865.596 1045.07 861.508C1042.98 859.966 1038.86 859.144 1036.33 858.376C1035.92 855.845 1033.65 853.653 1031.67 852.183C1027.12 852.269 1022.52 852.807 1017.97 853.169C1021.33 847.837 1026.99 842.019 1028.03 835.692C1023.44 837.46 1018.67 838.64 1014.1 840.491C1009.96 842.168 998.8 849.415 995.37 848.87C994.733 844.337 1003.52 833.041 1005.87 828.3C978.481 836.021 954.333 849.228 929.333 862.477L864.15 897.087C853.304 902.756 842.05 911.077 830.457 914.798C823.437 917.051 815.696 916.604 808.624 914.772C800.849 912.758 792.907 908.3 788.788 901.162C786.85 897.804 785.54 893.068 786.799 889.291C787.437 887.374 788.822 886 790.381 884.795C798.184 878.762 807.991 874.235 816.589 869.406C830.989 861.318 845.287 853.08 859.835 845.258L864.306 833.108C847.291 836.934 828.252 837.585 810.832 838.944Z"/>
	<path fill="#868587" transform="scale(3.98934 3.98934)" d="M1162.38 891.362L1166.19 890.553L1166.78 891.702C1174.15 892.806 1183.28 892.175 1190.69 891.332L1189.75 892.73C1189.39 892.87 1188.84 893.107 1188.44 893.203C1182.51 894.627 1167.42 894.292 1162.38 891.362Z"/>
	<path fill="#D1D1D2" transform="scale(3.98934 3.98934)" d="M1133.3 904.565C1126.73 904.006 1123.89 907.728 1118.04 908.589C1118.47 907.766 1118.34 907.782 1118.94 907.289C1124.71 902.564 1131.29 902.237 1138.32 902.608C1136.69 903.293 1134.58 903.383 1133.3 904.565Z"/>
	<path fill="#F9F9F8" transform="scale(3.98934 3.98934)" d="M1078.56 820.296C1079.51 820.464 1079.69 820.544 1080.44 821.142C1079.25 824.955 1078.17 828.825 1078.15 832.853C1078.13 835.897 1078.85 838.91 1081.13 841.066C1085.41 845.107 1091.78 844.03 1097.15 843.772C1098.42 844.399 1099.69 845.015 1100.79 845.925C1108.82 852.527 1137.43 880.368 1138.47 889.382C1135.32 894.063 1120.75 891.754 1115.16 893.858C1111.68 895.172 1102.77 899.265 1101.27 902.485C1101.47 902.56 1101.66 902.662 1101.87 902.708C1105.78 903.585 1113.06 899.575 1116.14 897.29C1122.64 895.794 1128.48 895.696 1135.12 896.114C1131.85 897.22 1128.41 897.617 1125.15 898.806C1117.72 901.519 1110.28 906.553 1102.2 906.735C1095.19 902.465 1066.94 866.095 1059.34 857.322C1059.71 857.047 1060.07 856.771 1060.42 856.481L1060.93 856.057C1071.36 847.48 1070.63 830.755 1078.56 820.296Z"/>
	<path fill="#F9F9F8" transform="scale(3.98934 3.98934)" d="M1126.69 652.28C1136.64 651.272 1147.3 654.475 1156.05 659.097C1165.42 664.043 1172.6 671.266 1175.64 681.585C1179.4 694.353 1176.79 707.795 1170.52 719.295C1164.76 729.841 1155.51 740.816 1145.02 746.892C1133.04 753.836 1112.56 758.5 1098.79 764.196C1050.25 784.641 1001.28 804.065 951.925 822.454C925.514 832.275 899.166 842.308 872.089 850.166C870.509 850.393 869.282 850.273 867.712 850.01L867.287 849.048C869.554 845.916 874.325 844.114 877.825 842.74C896.608 835.369 916.258 829.481 935.298 822.7C980.495 806.606 1025.88 790.159 1070.38 772.238C1094.28 762.61 1119.91 753.054 1141.86 739.432C1156.34 730.447 1166.35 718.279 1170.21 701.524C1172.45 691.795 1171.38 682.766 1165.89 674.249C1157.59 661.359 1140.95 655.488 1126.69 652.28Z"/>
	<path fill="#F9F9F8" transform="scale(3.98934 3.98934)" d="M1032.15 751.262L1034.11 751.231L1033.88 751.925C1004.38 767.31 971.387 777.653 939.876 788.194C919.871 794.886 899.712 802.184 879.177 807.055L877.773 806.796C883.512 796.725 1010.41 761.184 1032.15 751.262Z"/>
	<path fill="#F9F9F8" transform="scale(3.98934 3.98934)" d="M1197.33 623.025L1198.94 623.364C1199.03 625.537 1198.84 628.583 1199.48 630.631C1200.55 633.992 1203.5 636.351 1203.68 640.036C1208.27 638.788 1213.52 636.282 1216.55 632.533C1216.65 633.084 1216.72 633.278 1216.71 633.802C1216.65 636.591 1207.58 656.078 1205.56 657.908C1206.74 654.78 1208.01 649.439 1206.84 646.254C1205.23 644.431 1203.72 643.988 1201.46 643.392C1200.01 643.007 1198.69 640.83 1197.69 639.626C1193.28 649.084 1182.85 658.946 1173.17 663.013C1173.13 662.825 1173.12 662.629 1173.05 662.447C1171.66 658.564 1162.88 652.787 1159.25 650.789C1158.53 648.97 1156.89 647.505 1155.32 646.423C1153.24 646.38 1150.56 646.575 1148.84 645.245C1148.64 645.095 1148.46 644.927 1148.27 644.77C1143.61 640.9 1141.41 634.959 1136.74 631.207C1139.27 630.471 1141.34 628.919 1144.07 629.2C1146.63 631.557 1148.71 639.118 1149.79 642.613C1152.72 641.663 1155 640.226 1157.17 638.058C1159.32 639.831 1159.75 642.677 1161.97 644.687C1164.47 646.953 1167.58 650.961 1170.73 652.186C1173.47 653.251 1175.97 652.452 1178.46 651.169C1182.66 649.007 1191.97 641.602 1193.37 637.191C1194.07 634.66 1192.39 631.794 1192.53 629.077C1192.66 626.717 1195.7 624.526 1197.33 623.025Z"/>
	<path fill="#F9F9F8" transform="scale(3.98934 3.98934)" d="M1003.25 737.576L1003.77 737.823C1001.68 740.331 997.163 742.057 994.289 743.593C970.035 756.56 942.236 766.943 915.255 772.709L914.586 772.023C914.534 771.264 914.477 770.653 914.804 769.94C915.755 767.862 918.07 766.905 920.095 766.075C933.862 760.432 948.847 757.095 963.004 752.445C976.6 747.979 989.722 742.234 1003.25 737.576Z"/>
	<path fill="#F9F9F8" transform="scale(3.98934 3.98934)" d="M896.223 861.333L896.621 861.593C896.462 861.775 896.309 861.961 896.145 862.139C892.776 865.797 821.107 903.362 811.242 907.546C808.362 908.768 805.886 909.461 802.758 909.574L801.942 908.361C804.676 902.679 884.5 866.481 896.223 861.333Z"/>
	<path fill="#F9F9F8" transform="scale(3.98934 3.98934)" d="M1118.68 631.273C1120.25 631.095 1121.2 630.739 1122.62 631.687C1123.98 632.598 1124.48 634.42 1124.79 635.915C1119.55 638.301 1113.8 639.899 1108.42 641.987C1099.82 645.395 1091.36 649.157 1083.07 653.261C1073.21 658.105 1064.32 664.978 1054.37 669.56C1053.71 670.599 1053.02 670.78 1051.9 671.215C1054.62 662.962 1089.42 643.734 1097.96 639.895C1104.29 637.05 1113.28 635.272 1118.68 631.273Z"/>
	<path fill="#F9F9F8" transform="scale(3.98934 3.98934)" d="M945.918 803.279L945.741 805.107C929.299 809.507 872.069 834.277 858.954 828.69L859.126 827.819C865.59 824.381 874.941 823.211 882.101 821.312C903.009 815.765 925.076 810.996 945.366 803.488L945.918 803.279Z"/>
	<path fill="#F9F9F8" transform="scale(3.98934 3.98934)" d="M1144.11 708.538L1145.86 708.932L1146.39 710.183C1145.49 715.937 1138.83 723.17 1134.38 726.803C1123.5 735.691 1111.38 738.425 1097.65 737.057L1096.91 736.108C1099.65 733.855 1106.82 733.374 1110.4 732.423C1121.43 729.496 1138.25 718.712 1144.11 708.538Z"/>
	<path fill="#F9F9F8" transform="scale(3.98934 3.98934)" d="M1076.1 710.78L1078.28 710.793L1078.34 712.039C1075.4 717.978 1068.3 723.718 1062.83 727.395C1050.22 735.875 1036.83 735.899 1022.51 733.01C1021.02 732.27 1020.53 732.165 1019.63 730.713C1022.47 729.137 1031.46 730.821 1035.39 730.433C1049.68 729.02 1066.7 722.158 1076.1 710.78Z"/>
	<path fill="#F9F9F8" transform="scale(3.98934 3.98934)" d="M1250.4 588.517C1255.76 588.035 1261.63 589.186 1266.64 591.053C1250.41 593.563 1249.99 594.204 1238.07 604.201C1240.35 605.481 1242.12 607.674 1244.24 609.222C1248.74 612.509 1253.88 613.943 1259.12 615.526C1262.3 616.12 1264.81 616.89 1267.7 618.371C1261.47 618.345 1255.26 618.43 1249.18 616.908C1244.56 615.753 1239.11 613.401 1236.74 609.005C1235.57 606.836 1235.36 604.389 1236.06 602.036C1238.02 595.469 1244.72 591.436 1250.4 588.517Z"/>
	<path fill="#F9F9F8" transform="scale(3.98934 3.98934)" d="M1110.83 710.037L1112.82 709.991L1113.42 711.114C1112.09 717.454 1104.16 724.91 1099.15 728.682C1088.46 736.725 1076.55 738.36 1063.65 736.541L1061.5 735.365L1061.53 734.554C1067.71 734.236 1073.72 733.559 1079.68 731.779C1090.08 728.669 1105.42 720.007 1110.83 710.037Z"/>
	<path fill="#F9F9F8" transform="scale(3.98934 3.98934)" d="M1192.73 667.282L1194.02 668.499C1195.84 673.953 1201.27 687.164 1201.32 692.114C1204.74 688.898 1205.09 682.952 1208.41 679.103C1207.39 686.226 1206.44 696.501 1201.69 702.082C1201.73 701.771 1201.78 701.461 1201.82 701.149C1202.1 698.404 1200.64 696.283 1198.98 694.269C1199.14 693.72 1199.21 693.607 1199.19 692.951C1199.06 689.754 1196.51 684.441 1194.26 682.247C1192.17 688.065 1188.63 692.785 1183.68 696.407C1184.44 695.187 1184.95 693.832 1185.19 692.417C1186.37 685.766 1184.68 677.751 1180.71 672.349C1183.43 674.158 1187.13 679.171 1190.33 679.39C1192.61 676.557 1192.41 670.849 1192.73 667.282Z"/>
	<path fill="#F9F9F8" transform="scale(3.98934 3.98934)" d="M1203.3 575.015C1210.38 574.413 1224.01 574.977 1229.51 579.518C1206.29 576.479 1187.03 577.776 1166.55 590.386C1162.25 593.034 1158.43 596.29 1154.2 599.02L1153.73 599.324C1152.56 602.491 1142.5 613.486 1139.42 615.205C1142.32 612.192 1144.05 608.267 1146.65 604.971C1161.17 586.585 1180.5 577.691 1203.3 575.015Z"/>
	<path fill="#F9F9F8" transform="scale(3.98934 3.98934)" d="M1125.5 801.563L1126.9 801.999C1126.99 802.8 1127.04 803.35 1126.88 804.147C1125.26 812.133 1116.31 824.936 1109.69 829.688C1109.55 829.023 1109.37 828.454 1109.14 827.817C1107.17 827.099 1105.75 827.372 1103.75 827.703L1102.93 827.842C1103.89 826.973 1104.8 826.064 1105.72 825.145C1108.79 823.72 1111.22 821.242 1113.28 818.583C1115.2 816.085 1117.61 812.603 1117.21 809.324C1113.94 809.35 1110.56 809.64 1107.43 808.57L1107.38 807.714C1111.57 806.744 1114.52 805.477 1118.06 803.039C1119.35 804.226 1120.32 805.249 1122.02 805.743C1123.79 804.745 1124.49 803.276 1125.5 801.563Z"/>
	<path fill="#F9F9F8" transform="scale(3.98934 3.98934)" d="M1041.82 709.27C1042.84 709.12 1043.67 709.173 1044.69 709.305C1043.68 711.96 1040.79 713.392 1038.41 714.805C1026.22 722.062 1016.2 724.027 1002.29 720.499C1001.06 719.882 999.948 719.1 998.812 718.331L998.673 717.169C1002.27 715.979 1007.56 716.867 1011.37 716.916C1020.48 717.036 1034.52 715.112 1041.82 709.27Z"/>
	<path fill="#F9F9F8" transform="scale(3.98934 3.98934)" d="M1069.79 821.835L1070.54 823.171C1068.76 831.306 1067.27 839.019 1061.16 845.188C1057.82 848.567 1054.31 848.928 1049.84 848.936C1052.12 846.638 1055.92 845.443 1058.43 843.009C1063.8 837.798 1064.48 829.402 1067.56 822.853C1068.22 822.654 1068.76 822.477 1069.35 822.118C1069.5 822.029 1069.64 821.93 1069.79 821.835Z"/>
	<path fill="#F9F9F8" transform="scale(3.98934 3.98934)" d="M1200.39 590.017C1200.93 589.924 1201.46 589.836 1202 589.76C1205.42 589.276 1210.17 589.984 1212.92 592.234C1214.12 593.221 1214.07 593.514 1214.15 594.96C1212.66 596.974 1211.09 597.435 1208.84 598.272C1208.72 598.343 1208.62 598.426 1208.5 598.486C1206.75 599.373 1204.77 599.291 1202.97 598.615C1200.56 597.708 1199.39 596.4 1198.42 594.07C1198.58 591.801 1198.82 591.707 1200.39 590.017Z"/>
	<path fill="#868587" transform="scale(3.98934 3.98934)" d="M1186.89 896.095C1191.56 895.866 1196.58 896.254 1200.78 898.53C1202.18 899.29 1203.54 900.053 1204.02 901.594C1188.45 895.53 1188.06 898.672 1172.81 898.107C1166.54 897.556 1159.12 899.441 1153.16 897.554C1157.32 895.5 1179.55 897.052 1186.34 896.172C1186.52 896.148 1186.71 896.12 1186.89 896.095Z"/>
	<path fill="#D1D1D2" transform="scale(3.98934 3.98934)" d="M1093.76 909.686C1099.89 910.022 1110.06 910.709 1115.73 913.014L1115.91 915.091C1110.33 913.191 1097.8 913.345 1093.76 909.686Z"/>
	<path fill="#ACACAD" transform="scale(3.98934 3.98934)" d="M1072.75 917.844L1074.74 917.976C1074.61 918.124 1074.5 918.292 1074.36 918.421C1071.15 921.201 1061.64 921.085 1057.64 920.506C1057.34 920.116 1057.15 919.425 1056.97 918.963C1062.52 918.397 1067.09 919.293 1072.75 917.844Z"/>
	<path fill="#D1D1D2" transform="scale(3.98934 3.98934)" d="M1131.25 908.844C1134.29 908.451 1137.76 907.821 1140.81 908.365C1142.25 908.623 1144.56 909.465 1145.42 910.644C1142.81 910.316 1140.19 910.062 1137.56 909.881C1134.1 909.723 1130.98 910.663 1127.67 911.536C1128.01 910.385 1130.17 909.487 1131.25 908.844Z"/>
	<path fill="#F9F9F8" transform="scale(3.98934 3.98934)" d="M1141.83 887.09C1143.2 887.521 1143.27 887.764 1144.15 888.923L1143.89 890.488C1142.3 892.612 1141.17 893.509 1138.68 894.438L1137.99 894.657C1138.93 893.694 1139.99 892.718 1140.81 891.656C1142.21 889.862 1142.03 889.228 1141.83 887.09Z"/>
	<path fill="#ACACAD" transform="scale(3.98934 3.98934)" d="M958.25 800.034C954.144 801.973 950.023 803.598 945.741 805.107L945.918 803.279C950.018 802.177 954.114 800.992 958.25 800.034Z"/>
	<path fill="#222122" transform="scale(3.98934 3.98934)" d="M206.933 773.267C206.807 773.183 206.679 773.101 206.556 773.014C206.35 772.868 206.151 772.714 205.947 772.566C204.113 771.23 203.37 770.457 202.728 768.248C202.801 766.918 202.98 766.006 203.737 764.882C212.238 752.269 265.974 717.993 281.111 708.769C291.911 702.188 303.696 696.375 313.892 688.912C318.835 685.294 322.612 678.787 326.845 674.265C337.488 662.894 349.598 652.213 362.679 643.725C371.443 638.038 381.08 633.193 390.68 629.095C398.811 625.624 408.42 622.64 415.637 617.547C421.415 613.469 425.676 607.396 430.127 601.996C444.449 584.622 459.843 570.22 482.603 565.097C503.977 560.285 523.7 567.718 544.274 572.215C560.718 575.808 577.219 577.081 591.733 586.371C594.15 587.918 599.239 590.766 599.888 593.747C599.621 593.867 566.063 593.045 560.857 593.59C553.461 594.365 546.942 596.324 540.131 599.169C555.505 601.937 583.024 605.732 594.783 616.502C596.026 617.64 596.294 617.776 596.369 619.43C589.914 624.046 557.612 619.69 548.3 620.751C540.184 621.721 532.799 625.914 527.807 632.387C515.784 648.125 521.548 671.51 523.796 689.577C519.651 681.47 516.075 674.844 509.577 668.342C513.641 693.68 509.708 720.115 496.414 742.147C495.396 738.755 494.677 735.23 493.852 731.783C487.52 742.212 482.81 753.336 474.806 762.707C475.763 757.391 477.061 752.113 478.233 746.838C471.519 755.283 465.046 765.448 457.285 772.786C456.393 772.098 456.841 768.611 456.64 767.183C450.601 768.514 431.017 800.428 427.558 807.179C424.182 813.767 422.342 821.486 417.925 827.482C416.123 829.929 413.449 831.495 410.929 833.116C421.786 846.356 443.608 874.807 457.091 883.294C459.867 885.042 463.167 885.627 466.214 886.787C473.416 884.596 482.615 881.761 490.098 883.506C497.005 885.116 500.533 889.64 504.062 895.431C496.217 891.878 493.164 889.541 484.391 887.816L483.806 888.603L483.178 888.153C489.396 891.276 497.189 894.212 501.449 900.022C502.564 901.543 503.394 902.821 503.09 904.716C501.709 905.034 486.392 900.762 482.016 900.204C483.893 903.197 487.136 907.055 486.538 910.763L485.242 911.15C480.204 909.198 475.96 905.131 471.687 901.866C464.606 901.409 457.451 900.952 450.427 899.93C442.97 898.846 434.299 895.772 426.847 896.745C428.909 897.901 430.811 898.159 433.104 898.517C434.223 898.901 435.337 899.298 436.418 899.784C444.093 903.233 446.679 911.036 449.395 918.318C441.962 913.112 437.277 911.331 428.245 910.3C430.163 913.64 432.741 917.169 432.528 921.151L431.401 921.697C428.48 920.626 426.604 917.883 424.599 915.598C415.53 914.005 399.635 909.275 390.98 910.433C385.069 911.224 379.357 913.695 373.437 914.426C368.663 915.015 363.591 913.399 358.896 914.175C354.786 914.853 351.632 920.778 349.179 923.931L348.11 923.016C346.886 919.322 346.732 915.413 347.823 911.657C349.114 907.211 352.271 903.69 356.315 901.537C363.044 897.954 368.14 898.995 375.172 901.069L379.16 896.325C377.131 892.598 374.735 889.136 372.346 885.635C364.448 886.568 356.43 887.265 349.058 890.479C334.623 896.773 328.306 910.503 322.871 924.291C318.031 925.792 313.059 926.604 308.381 928.652C293.908 934.99 281.719 950.203 270.94 961.578C267.708 964.99 264.359 969.633 260.249 971.93C258.273 971.907 257.069 971.899 255.372 970.831L255.447 969.398C264.94 955.829 287.971 931.625 302.467 924.001C307.201 921.512 311.913 920.481 317.109 919.499C320.795 910.402 324.81 901.539 331.742 894.386C341.955 883.846 354.368 881.606 368.462 881.473C359.797 868.355 348.564 858.752 336.708 848.616C332.828 850.133 328.795 851.058 324.76 852.053C324.513 844.388 325.109 836.863 325.731 829.228C313.778 834.47 301.341 838.643 288.287 839.868L299.832 818.37C279.145 826.211 259.589 837.379 240.09 847.767L157.041 892.08C146.626 897.551 135.173 906.357 124.382 910.306C118.688 912.389 112.049 912.131 106.183 911.02C97.0403 909.288 87.3885 904.538 82.1775 896.54C80.067 893.301 78.0092 888.661 78.8534 884.764C80.4434 882.484 148.318 845.915 158.542 839.609L157.353 827.825C150.791 828.272 144.168 829.681 137.644 830.624C127.069 832.187 116.457 833.486 105.818 834.519C130.777 820.983 156.277 806.864 180.207 791.617C189.308 785.819 197.931 779.234 206.933 773.267Z"/>
	<path fill="#D1D1D2" transform="scale(3.98934 3.98934)" d="M433.104 898.517C428.692 898.629 423.189 900.231 418.945 899.188C421.565 898.164 424.115 897.405 426.847 896.745C428.909 897.901 430.811 898.159 433.104 898.517Z"/>
	<path fill="#F9F9F8" transform="scale(3.98934 3.98934)" d="M378.458 820.491C379.809 828.185 379.524 834.841 381.877 842.536C386.717 842.181 391.267 841.579 395.954 840.281C407.843 850.858 434.521 874.688 442.226 887.573C437.216 886.297 432.123 885.327 427.063 884.277C412.689 882.513 398.43 881.024 383.938 880.613C374.9 868.691 366.093 856.595 357.524 844.332C365.138 837.549 372.103 828.498 378.458 820.491Z"/>
	<path fill="#F9F9F8" transform="scale(3.98934 3.98934)" d="M427.414 646.682C436.249 647.174 448.835 654.158 456.287 658.903C464.478 664.118 473.926 671.634 476.049 681.667C478.581 693.639 471.235 708.106 464.783 717.969C456.96 729.929 446.853 738.607 434.407 745.43C422.966 751.702 410.293 755.987 398.17 760.761C369.112 772.206 339.546 782.438 310.268 793.323C295.692 798.742 281.347 804.751 266.788 810.205C249.719 816.599 232.412 822.402 215.231 828.493C200.165 833.835 184.463 840.356 168.788 843.607C166.825 843.334 165.501 842.901 163.795 841.891C163.741 841.524 163.52 841.144 163.634 840.792C164.081 839.403 195.151 829.164 200.156 827.453C252.996 809.387 305.621 790.699 358.021 771.395C383.173 761.933 416.618 751.215 438.439 736.497C449.587 728.979 458.246 718.242 464.282 706.293C468.31 698.318 472.456 688.497 469.381 679.526C463.944 663.665 441.352 653.506 427.414 646.682Z"/>
	<path fill="#F9F9F8" transform="scale(3.98934 3.98934)" d="M332.832 746.741L332.951 746.77L333.102 747.263C299.613 763.038 262.517 775.724 227.303 787.02C211.99 791.932 195.71 798.457 179.545 799.28L179.112 798.818L179.423 797.718C188.996 791.297 231.872 779.471 247.04 774.491C275.339 765.202 303.951 753.931 332.832 746.741Z"/>
	<path fill="#F9F9F8" transform="scale(3.98934 3.98934)" d="M441.5 611.232C442.221 615.97 440.146 624.061 440.221 629.48C449.158 637.135 461.274 642.909 471.412 648.914C483.856 638.86 486.48 636.084 488.243 619.987C492.385 627.719 497.209 633.747 503.526 639.738C505.904 636.662 510.209 627.731 513.717 626.74L513.848 629.591C511.883 637.999 509.91 641.313 502.673 646.32C498.152 642.533 494.355 638.224 490.452 633.824C485.945 643.51 479.602 649.556 471.741 656.532C460.128 648.746 448.049 641.677 436.122 634.386C435.901 625.117 436.871 619.295 441.5 611.232Z"/>
	<path fill="#F9F9F8" transform="scale(3.98934 3.98934)" d="M305.889 730.797L306.212 730.973L305.755 731.834C284.504 744.042 233.952 769.761 209.311 767.509L208.327 766.666L208.642 765.749C220.028 760.358 233.446 757.64 245.394 753.499C265.718 746.454 285.781 738.445 305.889 730.797Z"/>
	<path fill="#F9F9F8" transform="scale(3.98934 3.98934)" d="M195.292 853.702L196.064 854.144C181.941 863.196 113.227 901.412 99.6731 904.408L97.9042 902.658L98.1572 901.444C129.955 884.374 162.354 868.449 195.292 853.702Z"/>
	<path fill="#F9F9F8" transform="scale(3.98934 3.98934)" d="M247.566 792.49L248.431 793.735C242.68 795.512 236.98 798.359 231.418 800.688C213.847 808.043 187.491 820.294 169.713 823.632C167.198 824.104 163.466 824.936 161.302 823.445C162.611 821.092 165.656 819.617 168.063 818.567C178.016 814.228 189.525 811.619 199.959 808.374C215.917 803.35 231.789 798.055 247.566 792.49Z"/>
	<path fill="#F9F9F8" transform="scale(3.98934 3.98934)" d="M558.436 582.388L560.907 582.377L561.582 583.132C558.353 586.702 538.806 594.299 532.541 598.108C541.533 606.539 559.29 610.022 563.847 614.877C554.549 616.688 543.265 613.198 535.284 608.458C531.94 606.472 529.321 604.261 528.349 600.327C528.463 598.495 528.849 597.187 529.996 595.72C536.353 587.591 548.634 583.633 558.436 582.388Z"/>
	<path fill="#F9F9F8" transform="scale(3.98934 3.98934)" d="M355.481 659.43C372.866 646.836 390.004 636.751 410.417 629.9C413.712 628.794 418.261 626.78 421.727 627.371C422.954 627.58 422.956 627.846 423.677 628.839C422.768 630.478 422.219 630.928 420.534 631.799C414.34 635.001 407.197 637.128 400.675 639.66C386.153 645.298 370.33 651.9 357.297 660.461L355.481 659.43Z"/>
	<path fill="#F9F9F8" transform="scale(3.98934 3.98934)" d="M426.671 792.156L427.175 792.727C427.202 793.377 427.233 793.851 427.046 794.483C426.203 797.335 424.309 800.39 423 803.1C417.981 813.485 412.711 824.092 402.424 830.325L401.535 829.859L402.032 827.278C404.717 817.709 407.466 807.992 411.678 798.968L413.222 799.423L412.599 797.604L413.052 797.404C414.03 799.459 412.929 802.86 412.538 805.066C417.145 800.621 421.796 796.306 426.671 792.156Z"/>
	<path fill="#222122" transform="scale(3.98934 3.98934)" d="M420.354 800.336C420.5 800.853 420.583 800.999 420.519 801.609C419.688 809.414 410.244 820.577 405.042 826.05L404.45 825.635C407.457 816.921 414.683 807.573 420.354 800.336Z"/>
	<path fill="#F9F9F8" transform="scale(3.98934 3.98934)" d="M378.833 706.719L379.361 707.237C379.29 707.44 379.226 707.646 379.148 707.847C376.762 713.921 356.967 724.36 350.34 727.033C338.84 731.672 328.114 732.017 316.693 727.104C315.633 726.467 314.715 725.65 313.768 724.86C314.006 724.67 314.191 724.379 314.482 724.29C314.77 724.201 332.763 725.618 338.94 724.389C352.916 721.608 366.223 713.115 378.833 706.719Z"/>
	<path fill="#F9F9F8" transform="scale(3.98934 3.98934)" d="M448.344 700.689C448.294 700.98 448.253 701.273 448.192 701.562C446.749 708.411 431.325 721.353 425.241 725.547C416.548 731.539 408.773 733.654 398.404 731.695L397.2 730.449L397.37 729.161C402.11 726.611 408.317 728.199 413.336 725.887C425.771 720.159 437.238 708.802 448.344 700.689Z"/>
	<path fill="#F9F9F8" transform="scale(3.98934 3.98934)" d="M410.975 707.581L411.192 707.769L411.072 708.931C405.956 715.244 400.278 720.748 393.488 725.253C382.386 732.62 371.669 734.901 358.65 732.321C357.463 731.631 357.064 731.515 356.427 730.325C361.76 727.544 372.233 728.222 378.777 726.159C390.221 722.551 400.707 713.765 410.975 707.581Z"/>
	<path fill="#F9F9F8" transform="scale(3.98934 3.98934)" d="M387.032 884.397C394.351 885.71 437.881 888.709 440.748 890.837L436.625 891.219C434.522 891.111 432.417 891.038 430.311 890.999C421.306 890.797 415.006 891.384 408.287 897.806L395.881 895.306C392.751 891.817 389.912 888.092 387.032 884.397Z"/>
	<path fill="#F9F9F8" transform="scale(3.98934 3.98934)" d="M385.679 805.726L385.843 806.548C382.996 814.049 361.408 832.64 354.158 839.24C354.81 836.008 355.612 832.839 356.46 829.654C359.647 820.135 362.352 812.996 370.95 807.168C370.017 809.155 368.193 812.11 368.255 814.308C368.289 815.523 368.587 815.486 369.376 816.305C374.631 816.156 381.682 808.951 385.679 805.726Z"/>
	<path fill="#161616" transform="scale(3.98934 3.98934)" d="M373.232 816.333C373.043 820.605 361.719 829.834 358.642 832.772C358.573 832.096 358.501 831.548 358.692 830.88C360.587 824.26 367.443 819.381 373.232 816.333Z"/>
	<path fill="#F9F9F8" transform="scale(3.98934 3.98934)" d="M485.271 656.887C485.403 656.967 485.545 657.032 485.667 657.127C491.46 661.639 492.468 677.556 493.347 684.428C495.319 679.003 496.54 673.352 498.671 667.973C501.542 675.256 502.802 681.389 502.464 689.222C501.818 691.956 500.731 694.613 499.787 697.257C499.597 692.436 499.122 687.901 498.311 683.145C495.724 686.314 493.419 689.788 491.025 693.108C488.67 681.3 485.374 668.956 485.271 656.887Z"/>
	<path fill="#F9F9F8" transform="scale(3.98934 3.98934)" d="M346.443 703.077L346.79 704.069C342.486 707.293 337.882 710.095 333.043 712.438C322.082 717.697 309.374 720.827 297.588 716.677C296.241 715.528 295.543 714.651 294.746 713.065C294.966 712.693 295.009 712.119 295.406 711.951C296.543 711.47 310.583 712.859 313.46 712.65C324.261 711.863 336.158 706.429 346.443 703.077Z"/>
	<path fill="#F9F9F8" transform="scale(3.98934 3.98934)" d="M495.084 570.372C506.144 569.574 515.225 572.762 524.87 577.742C518.589 576.541 512.421 575.177 506.037 574.618C485.437 572.813 471.117 579.522 455.668 592.421C450.753 596.394 446.362 601.763 440.919 604.93C441.258 604.204 441.555 603.585 442.024 602.93C453.268 587.229 476.209 573.063 495.084 570.372Z"/>
	<path fill="#F9F9F8" transform="scale(3.98934 3.98934)" d="M502.43 584.878C504.159 584.056 506.198 584.237 507.756 585.35C509.314 586.464 510.145 588.335 509.927 590.238C509.709 592.14 508.476 593.775 506.707 594.508C504.067 595.6 501.038 594.39 499.877 591.778C498.717 589.166 499.849 586.106 502.43 584.878Z"/>
	<path fill="#161616" transform="scale(3.98934 3.98934)" d="M502.753 586.38C504.064 585.116 506.154 585.16 507.411 586.478C508.669 587.796 508.615 589.886 507.291 591.137C505.976 592.379 503.905 592.325 502.656 591.017C501.407 589.708 501.451 587.636 502.753 586.38Z"/>
	<path fill="#868587" transform="scale(3.98934 3.98934)" d="M247.566 792.49C253.268 790.017 259.661 787.587 265.741 786.3C260.317 789.285 254.275 791.693 248.431 793.735L247.566 792.49Z"/>
	<path fill="#F9F9F8" transform="scale(3.98934 3.98934)" d="M359.298 903.465C363.053 902.941 367.69 903.284 371.119 904.987L371.375 906.346C367.296 905.604 363.135 905.992 359.104 904.989L359.298 903.465Z"/>
	<path fill="#D1D1D2" transform="scale(3.98934 3.98934)" d="M357.297 660.461C354.96 662.036 352.688 663.761 349.939 664.524C350.663 662.464 353.753 660.733 355.481 659.43L357.297 660.461Z"/>
	<path fill="#222122" transform="scale(3.98934 3.98934)" d="M1034.56 432.579C1039.89 427.623 1044.19 416.523 1048.69 410.067C1057.98 396.753 1068.21 384.159 1078.21 371.383L1122.73 314.613C1132.51 302.198 1144.51 289.459 1152.36 275.863C1156.24 269.145 1158.79 260.946 1162 253.806C1173.13 229.058 1184.37 203.859 1201.8 182.764C1214.7 167.147 1231.92 151.795 1249.74 142.022C1258.62 137.152 1268.37 134.343 1275.87 127.206C1293.66 110.298 1312.78 80.6018 1335.46 71.007C1348.14 65.6444 1369.52 68.7661 1382.41 72.9513C1389.55 75.2678 1396.36 78.9869 1403.77 80.3706C1407.9 81.143 1412.33 80.9619 1416.53 81.0557C1427.27 81.296 1437.18 82.6177 1447.23 86.7059C1454.53 89.6779 1466 95.6735 1469.27 103.36C1453.06 100.409 1436.14 102.897 1420.48 107.358C1412.23 109.708 1404.33 112.396 1395.77 113.339C1412.39 115.567 1430.48 117.78 1445.95 124.608C1451.42 127.024 1462.13 132.785 1464.42 138.702C1451.37 136.217 1409.1 137.405 1396.88 142.859C1393 144.591 1390.1 147.322 1387.48 150.625C1378.09 162.453 1384.58 172.841 1384.59 185.985C1384.59 195.04 1382.26 204.81 1379.01 213.259C1375.13 223.354 1368.74 232.75 1362.79 241.721C1353.35 256.172 1343.34 270.237 1332.77 283.883C1323.91 295.252 1314.25 306.148 1306.25 318.145C1297.46 331.314 1292.95 346.893 1283.62 359.727C1281.01 363.318 1277.42 365.222 1273.47 367.002C1279.01 370.392 1289.82 385.201 1295.12 390.939C1299.66 395.852 1315.29 409.538 1317.32 414.144C1328.42 414.356 1344.68 410.555 1354.76 413.878C1360.14 415.654 1366.49 418.347 1369.18 423.6L1368.77 424.192C1364.8 422.805 1361.03 420.916 1356.77 420.841C1356.53 420.837 1356.3 420.841 1356.06 420.841L1356.58 422.282C1361.17 423.543 1367.3 429.244 1369.32 433.578C1369.76 434.509 1369.95 435.598 1370.11 436.605C1365.22 429.832 1355.34 427.955 1347.61 426.698L1346.77 426.565C1353.28 429.364 1358.52 432.912 1361.17 439.844C1362.39 443.015 1364.41 448.4 1363.19 451.711C1361.99 447.401 1354.61 437.526 1350.67 435.374C1350.55 435.308 1350.42 435.251 1350.3 435.19C1333.89 427.843 1313.54 427.469 1296.97 434.014C1294.45 435.008 1292.1 436.404 1289.62 437.482C1287.22 441.607 1285.06 447.245 1281.56 450.486C1288.39 448.737 1293.97 446.053 1301.29 446.217C1305.34 446.307 1313.01 447.263 1315.95 450.31L1315.54 451.479C1305.75 454.733 1293.25 450.604 1283.07 452.851C1282.34 454.184 1281.82 455.593 1280.35 456.222C1273.38 453.077 1267.46 453.982 1260.16 453.222C1257.9 452.986 1255.51 452.493 1254.04 450.696C1254.18 450.505 1254.32 450.305 1254.48 450.124C1255.68 448.757 1258.61 448.317 1260.37 448.12C1265.56 447.537 1271.61 448.529 1275.73 451.909C1275.87 452.018 1276 452.134 1276.13 452.246C1278.6 442.805 1272.18 442.326 1280.29 429.155C1287.31 423.201 1295.4 423.019 1303.86 420.63C1296.95 418.541 1270.23 417.497 1263.28 419.995C1256.33 422.492 1250.25 427.149 1243.03 429.061C1237.11 430.627 1230.59 429.772 1224.51 431.062C1223.91 431.57 1223.3 432.062 1222.69 432.56C1221.97 433.148 1221.14 433.943 1220.27 434.304C1218.85 434.898 1217.94 434.578 1216.68 433.894L1216.04 429.406C1215.21 430.647 1215.25 431.599 1215.24 433.054C1215.24 433.302 1215.24 433.551 1215.24 433.799C1206.74 439.857 1192.66 439.043 1182.66 440.777C1177.98 441.587 1173.34 442.976 1168.76 444.215C1168.77 444.351 1168.79 444.486 1168.78 444.621C1168.52 448.376 1161.45 459.872 1158.42 462.313L1336.68 462.115C1337.04 459.113 1335.14 456.237 1333.91 453.558C1332.88 451.335 1331.08 448.111 1331.96 445.731L1334.15 445.583C1336.4 446.66 1337.5 448.341 1338.45 450.59C1339.82 453.859 1341.24 459.049 1339.86 462.434L1406.38 462.216C1406.43 461.801 1406.47 461.385 1406.49 460.967C1406.54 459.247 1405.65 457.329 1404.98 455.776C1399.15 442.309 1387.19 442.117 1379.83 434.085C1378.69 432.838 1378.88 432.442 1378.98 430.854C1379.51 430.416 1379.9 429.905 1380.59 429.786C1385.3 428.976 1391.2 433.599 1394.83 436.194C1403.12 442.122 1413.77 452.928 1414.86 463.672C1415.06 465.701 1414.54 466.388 1413.37 467.86C1406.1 469.096 1397.6 468.076 1390.16 468.069L1336.57 468.066L1148.11 468.379C1152.55 464.329 1164.42 444.514 1164.79 439.139C1170.73 437.616 1176.72 436.015 1182.81 435.235C1193.42 433.879 1200.47 434.2 1210.85 430.637C1213.74 428.34 1214.76 423.793 1218.42 421.283C1225.65 416.325 1236.23 420.518 1243.91 416.147C1246.21 414.839 1247.9 412.804 1248.52 410.247C1248.19 404.768 1226.34 380.969 1221.33 376.268C1219.65 375.755 1217.96 375.528 1216.26 375.149C1206.61 373.005 1210.13 362.631 1206.13 356.702C1206.04 356.573 1205.94 356.45 1205.85 356.324C1202.97 360.583 1166.17 378.366 1158.42 381.829C1158.42 382.015 1158.45 382.202 1158.43 382.388C1158.35 383.214 1130.2 436.025 1127.47 440.332C1124.58 444.985 1121.12 449.263 1117.18 453.071C1097.92 471.502 1069.94 471.584 1044.99 471.175C1045.24 470.93 1045.73 470.47 1045.97 470.155C1049.39 465.494 1054.75 449.121 1057.47 443.114C1061.18 434.898 1066.12 426.851 1069.26 418.433C1069.74 417.16 1069.8 415.952 1069.56 414.62C1066.54 418.788 1040.64 430.864 1034.56 432.579Z"/>
	<path fill="#161616" transform="scale(3.98934 3.98934)" d="M1280.29 429.155L1281.7 430.258C1278.38 434.913 1276.02 437.608 1277 443.592C1277.57 447.021 1278.56 450.268 1278.4 453.775L1279.48 454.526C1283.99 450.666 1283.1 440.205 1289.3 437.426L1289.62 437.482C1287.22 441.607 1285.06 447.245 1281.56 450.486C1288.39 448.737 1293.97 446.053 1301.29 446.217C1305.34 446.307 1313.01 447.263 1315.95 450.31L1315.54 451.479C1305.75 454.733 1293.25 450.604 1283.07 452.851C1282.34 454.184 1281.82 455.593 1280.35 456.222C1273.38 453.077 1267.46 453.982 1260.16 453.222C1257.9 452.986 1255.51 452.493 1254.04 450.696C1254.18 450.505 1254.32 450.305 1254.48 450.124C1255.68 448.757 1258.61 448.317 1260.37 448.12C1265.56 447.537 1271.61 448.529 1275.73 451.909C1275.87 452.018 1276 452.134 1276.13 452.246C1278.6 442.805 1272.18 442.326 1280.29 429.155Z"/>
	<path fill="#868587" transform="scale(3.98934 3.98934)" d="M1356.58 422.282C1354.19 421.14 1351.56 421.078 1349.05 419.703C1351.49 419.408 1353.73 420.21 1356.06 420.841L1356.58 422.282Z"/>
	<path fill="#F9F9F8" transform="scale(3.98934 3.98934)" d="M1364.95 211.302C1365.94 214.601 1364.45 217.179 1362.9 220.009C1355.56 233.434 1341.95 245.51 1330.69 255.633C1277.36 303.591 1215.27 340.226 1150.22 369.772C1135.07 376.654 1118.72 384.673 1102.73 389.213L1102.03 389.406L1101.47 388.617C1140.24 370.452 1178.95 352.49 1216 330.929C1258.5 306.202 1299.23 275.727 1336.06 243.204C1343.4 236.725 1361.3 222.788 1364.4 213.54C1364.64 212.806 1364.81 212.059 1364.95 211.302Z"/>
	<path fill="#F9F9F8" transform="scale(3.98934 3.98934)" d="M1245.29 337.201C1246.48 337.31 1246.63 337.364 1247.58 338.092C1249.32 344.904 1248.08 352.506 1248.89 359.497C1249.39 363.776 1250.77 368.273 1254.41 370.93C1257.68 373.314 1260.86 372.693 1264.57 372.135C1269.17 375.987 1298.72 408.371 1299.43 410.624C1295.87 409.327 1291.5 409.297 1287.71 408.94C1278.94 408.053 1270.66 406.939 1262.05 404.998C1254.33 396.028 1240.36 376.284 1231.32 370.301C1240.02 359.843 1239.27 345.877 1245.29 337.201Z"/>
	<path fill="#F9F9F8" transform="scale(3.98934 3.98934)" d="M1249.25 157.157L1250.98 157.302C1251.18 158.288 1247.85 161.077 1246.92 162.009C1234.43 174.528 1216.9 190.079 1210.71 206.938C1208.97 211.672 1208.08 217.495 1210.49 222.18C1211.39 223.936 1212.99 225.227 1214.9 225.731C1220.55 227.282 1229.14 223.079 1233.81 220.194C1240.76 215.908 1252.63 206.648 1254.65 198.332C1254.84 198.996 1254.91 199.64 1254.93 200.336C1255.06 206.167 1249.04 213.647 1245.1 217.443C1236.74 225.503 1226.09 230.332 1214.41 230.044C1204.93 226.974 1207.39 223.889 1202.66 217.523C1202.56 217.389 1202.45 217.259 1202.35 217.127C1202.3 217.525 1202.24 218.216 1202.12 218.638C1201.35 221.348 1199.01 224.427 1197.57 226.918C1191.45 237.509 1185.19 249.675 1173.87 255.439C1180.86 248.869 1187.15 230.424 1191.95 221.137C1196.22 212.772 1201.15 204.763 1206.7 197.188C1214.54 186.528 1224.81 176.892 1235.07 168.606C1239.44 165.087 1244.59 161.789 1248.53 157.877L1249.25 157.157Z"/>
	<path fill="#F9F9F8" transform="scale(3.98934 3.98934)" d="M1250.82 235.846C1267.93 237.927 1281.61 234.677 1295.37 223.809C1301.31 219.12 1316.95 203.437 1317.91 195.716C1318.73 203.476 1313.55 211.665 1308.83 217.431C1302.69 224.937 1295.27 230.013 1286.97 234.788C1272.65 240.464 1263.71 241.799 1248.94 236.876L1249.55 236.46C1233.6 241.486 1215.02 245.929 1199.41 237.496C1197.83 236.64 1196.93 236.037 1196.26 234.372L1197.05 233.168C1202.3 232.288 1208.36 236.768 1213.8 237.327C1241.29 240.144 1268.75 226.035 1283.97 203.301C1284.48 202.544 1284.9 201.65 1285.05 200.75L1287.14 199.5C1287.87 203.022 1282.8 210.078 1280.78 213.161C1274.08 223.425 1262.79 232.646 1250.82 235.846Z"/>
	<path fill="#F9F9F8" transform="scale(3.98934 3.98934)" d="M1319.1 160.163C1330.24 159.395 1341.55 159.828 1352.45 162.457C1360.54 164.408 1369.47 167.799 1373.91 175.355C1376.44 179.663 1377.98 185.626 1376.78 190.538L1376.32 190.659C1374.63 186.406 1372.98 182.688 1369.85 179.29C1359.69 168.252 1341.89 166.074 1327.63 165.485C1311.91 164.307 1293.81 168.399 1278.73 172.417C1273.86 173.715 1263.52 178.46 1259.33 178.094C1278.37 168.717 1298.1 163.193 1319.1 160.163Z"/>
	<path fill="#F9F9F8" transform="scale(3.98934 3.98934)" d="M1128.17 339.943C1136.44 332.769 1144.64 320.954 1151.74 312.44C1167.36 293.704 1183.16 274.693 1200.39 257.407C1202.85 254.937 1208.06 249.174 1211.63 249.163L1211.73 250.696C1210.54 253.518 1209.06 256.023 1207.17 258.432C1199.8 267.823 1139.74 332.922 1133.46 336.387C1133.32 336.46 1133.18 336.525 1133.05 336.595C1131.36 338.26 1130.59 339.468 1128.17 339.943Z"/>
	<path fill="#F9F9F8" transform="scale(3.98934 3.98934)" d="M1426.74 96.3972C1434.17 95.7369 1441.27 95.73 1448.72 96.5388C1446.05 98.1747 1433.72 98.211 1429.82 98.9494C1420.82 100.65 1412.07 104.372 1403.3 106.982C1396.89 108.889 1390.29 109.918 1383.7 110.992C1399.51 121.337 1415.19 120.316 1431.89 126.971C1436.12 127.905 1440.3 129.393 1444.37 130.896L1443.97 131.128C1435.96 129.287 1427.73 127.727 1419.61 126.421C1409.32 124.767 1397.38 124.849 1388.16 119.689C1385.14 118.001 1381.27 115.291 1380.37 111.799C1380.03 110.485 1380.23 109.178 1381.04 108.056C1385.67 101.612 1418.07 97.7302 1426.74 96.3972Z"/>
	<path fill="#F9F9F8" transform="scale(3.98934 3.98934)" d="M1335.87 79.1409C1336.58 79.2699 1336.94 79.5125 1337.54 79.8743C1330.05 90.1211 1319.93 98.7599 1312.14 109.012C1305.95 117.16 1299.28 130.908 1293.58 137.221C1291.16 135.849 1286.25 135.651 1283.41 135.173L1280.77 134.182C1281.32 132.115 1313.15 98.1282 1316.74 94.7773C1322.78 89.1439 1329.26 84.0762 1335.87 79.1409Z"/>
	<path fill="#F9F9F8" transform="scale(3.98934 3.98934)" d="M1280.1 250.933L1282.6 250.974L1283.07 251.958C1272.9 269.264 1201.04 314.512 1180.05 322.82L1179.37 323.008C1186.18 316.653 1196.69 311.579 1204.62 306.4C1224.13 293.654 1242.54 279.556 1261.13 265.533C1267.08 261.051 1275.2 256.433 1280.1 250.933Z"/>
	<path fill="#F9F9F8" transform="scale(3.98934 3.98934)" d="M1301.9 304.946L1303.91 305.411C1303.86 305.611 1303.83 305.815 1303.77 306.011C1301.91 312.066 1283.18 343.746 1278.25 349.86C1277.22 351.138 1275.91 352.025 1274.44 352.738C1275.34 351.788 1276.17 350.801 1276.82 349.665C1279.18 345.598 1293.11 318.045 1293.21 315.142C1293.23 314.444 1292.74 313.204 1292.56 312.484C1291.61 317.056 1285.58 325.438 1281.99 328.49C1281.98 328.793 1282 329.099 1281.94 329.397C1281 334.289 1271.63 348.405 1267.65 351.13C1270.57 347.661 1280.33 325.241 1280.19 321.107C1277.86 325.343 1271.1 329.553 1267.18 332.346C1267.38 332.079 1267.59 331.818 1267.78 331.546C1269.25 329.481 1269.75 326.648 1269.32 324.185C1276.83 320.253 1296.96 310.653 1301.9 304.946Z"/>
	<path fill="#F9F9F8" transform="scale(3.98934 3.98934)" d="M1329.36 127.148C1333.41 128.597 1340.36 139.858 1345.04 143.346L1345.9 143.174C1345.57 138.824 1343.06 134.778 1340.34 131.487C1345.06 133.652 1359.31 148.444 1361.97 153.205C1363.38 147.957 1358.06 140.665 1360.75 135.716L1361.07 136.905C1361.33 137.163 1361.77 137.59 1362.01 137.906C1364.76 141.625 1371.67 157.557 1371.23 162.178C1367.92 157.62 1358.87 155.152 1353.8 153.024C1340.44 147.406 1334.72 140.227 1329.36 127.148Z"/>
	<path fill="#F9F9F8" transform="scale(3.98934 3.98934)" d="M1286.97 234.788C1301.43 236.328 1311.78 234.773 1323.46 225.376C1334.63 216.387 1340.91 205.586 1349.41 194.412C1349.31 195.525 1349.19 195.658 1348.5 196.553C1349.34 200.89 1344.85 208.058 1342.48 211.612C1333.99 224.333 1322.04 235.839 1306.53 238.684C1300.93 239.71 1293.69 239.677 1288.82 236.312C1288.17 235.854 1287.55 235.345 1286.97 234.788Z"/>
	<path fill="#F9F9F8" transform="scale(3.98934 3.98934)" d="M1366.28 80.644C1368.44 80.3258 1370.72 80.1485 1372.91 80.1774C1376.43 80.2238 1382.54 82.4862 1384.83 85.2744C1386.21 86.9579 1386.28 87.8417 1386.22 89.8796C1385.15 91.8282 1384.41 92.8075 1382.42 93.8327C1380.93 95.053 1379.83 95.3564 1377.85 95.3107C1374.24 95.2269 1371.78 93.7607 1369.4 91.1136C1366.36 87.7352 1365.99 84.9458 1366.28 80.644Z"/>
	<path fill="#F9F9F8" transform="scale(3.98934 3.98934)" d="M1121.81 403.217C1122.35 404.076 1122.3 403.668 1122.15 404.621C1120.6 414.393 1099.79 447.01 1091.69 452.75C1090.68 445.368 1116.24 410.723 1121.81 403.217Z"/>
	<path fill="#F9F9F8" transform="scale(3.98934 3.98934)" d="M1105.72 409.211L1106.29 409.748C1106.37 410.247 1106.44 410.464 1106.33 411.019C1104.02 422.639 1086.69 451.222 1077.05 458.01C1079.02 446.81 1098.64 419.497 1105.72 409.211Z"/>
	<path fill="#F9F9F8" transform="scale(3.98934 3.98934)" d="M1082.68 421.216L1083.39 422.416C1081.54 429.989 1072.53 448.128 1066.6 452.784C1066.9 444.207 1078.85 429.603 1082.68 421.216Z"/>
	<path fill="#D1D1D2" transform="scale(3.98934 3.98934)" d="M1225.34 373.949C1226.39 374.227 1227.22 374.503 1228.04 375.25C1232.14 379.024 1252.33 403.596 1252.38 407.784C1249.67 406.801 1229.31 378.632 1225.34 373.949Z"/>
	<path fill="#868587" transform="scale(3.98934 3.98934)" d="M1267.19 368.514C1267.94 368.511 1268.9 368.452 1269.6 368.777C1270.9 369.381 1292.01 395.904 1292.35 397.25C1282.86 388.362 1275.86 378.042 1267.19 368.514Z"/>
	<path fill="#ACACAD" transform="scale(3.98934 3.98934)" d="M1250.53 412.969C1251.74 413.2 1252.27 413.496 1253.22 414.287C1253.22 415.526 1253.44 415.625 1252.59 416.652C1246.88 423.588 1233.35 424.484 1225.04 425.333L1224.47 424.899C1228.45 421.381 1242.52 424.151 1248.74 417.73C1250.35 416.058 1250.45 415.142 1250.53 412.969Z"/>
	<path fill="#F9F9F8" transform="scale(3.98934 3.98934)" d="M1224.87 347.707C1226.05 347.582 1226.2 347.39 1227.29 347.985C1227.29 348.57 1227.32 348.924 1227.21 349.475C1226.69 351.942 1224.55 354.465 1222.56 355.864C1222.46 354.382 1221.9 352.749 1221.55 351.294C1222.23 349.148 1223.06 348.963 1224.87 347.707Z"/>
	<path fill="#D1D1D2" transform="scale(3.98934 3.98934)" d="M1128.17 339.943C1130.59 339.468 1131.36 338.26 1133.05 336.595C1132.42 340.577 1123.61 347.797 1120.39 350.338L1119.94 350.179C1122.73 346.845 1125.75 343.554 1128.17 339.943Z"/>
	<path fill="#ACACAD" transform="scale(3.98934 3.98934)" d="M1102.03 389.406C1099.96 391.005 1097.26 391.887 1094.82 392.791L1094.05 391.903L1093.45 392.724C1095.27 390.535 1098.87 389.65 1101.47 388.617L1102.03 389.406Z"/>
	<path fill="#222122" transform="scale(3.98934 3.98934)" d="M358.36 67.6636C372.242 66.3778 387.985 68.4798 401.122 73.2332C407.478 75.5329 414.259 78.8067 420.905 80.0708C427.413 81.3085 435.149 79.4184 441.975 80.0206C459.843 81.5968 474.488 88.6667 486.082 102.408C464.735 99.6311 437.49 102.484 418.993 114.336C441.08 115.53 466.067 121.487 482.972 136.588C463.57 137.378 442.152 135.405 423.158 139.424C409.824 142.246 400.155 152.044 399.572 166.014C399.266 173.367 400.786 180.787 400.613 188.18C399.944 216.642 381.317 239.404 366.131 261.578C362.327 267.133 359.449 273.797 355.225 278.978C350.038 285.339 343.374 289.755 338.55 296.663C322.427 319.753 307.657 344.079 292.302 367.701C297.533 374.334 303.483 380.473 308.873 386.994C316.286 395.962 323.27 405.328 331.037 413.994C337.518 411.956 344.554 409.948 351.377 409.732C362.196 409.391 371.575 413.662 379.32 421.107C381.73 423.423 383.753 425.809 383.819 429.306C382.717 429.708 379.288 426.954 378.091 426.178C370.94 421.543 361.171 419.221 352.676 418.599L351.749 418.536C360.066 421.085 368.17 423.616 372.549 431.807C375.309 436.972 376.43 442.802 374.77 448.453L374.299 448.613C372.565 445.536 370.855 441.931 368.605 439.213C365.119 435.004 357.89 432.112 352.847 430.458C318.343 419.148 309.71 441.848 300.243 441.258L301.894 436.788L301.168 436.042C298.373 436.651 296.321 438.239 294.19 440.05C287.262 445.939 274.74 448.388 266.056 451.231C266.972 455.147 268.823 460.064 266.869 463.838C266.263 465.009 266.082 464.914 264.836 465.315C264.364 465.098 264.265 465.081 263.801 464.702C259.594 461.269 259.68 455.567 259.108 450.621C250.875 447.114 242.263 444.528 233.884 441.394C224.43 437.858 215.137 433.873 205.727 430.216C194.765 441.063 183.857 451.965 173.003 462.921L172.071 463.91C169.188 464.926 165.75 464.4 162.728 464.278C168.293 457.319 198.73 426.844 205.255 422.742C212.951 426.334 220.885 429.469 228.765 432.632C229.848 429.462 231.145 426.226 233.066 423.463C240.722 412.452 256.2 412.153 268.254 409.907C268.014 409.28 267.757 408.672 267.499 408.053C262.503 396.08 249.402 385.714 240.182 376.746L233.097 375.444C227.078 370.08 224.993 364.055 222.913 356.487C207.909 364.534 192.832 372.445 177.685 380.219C163.914 402.774 155.882 431.452 136.386 450.021C117.043 468.443 92.9459 471.053 67.6503 470.279C72.2929 449.246 84.2581 429.409 93.807 410.293C80.9911 417.913 67.4402 425.751 53.2035 430.373C59.4961 419.997 67.6974 410.171 74.8413 400.34C91.2493 377.77 107.972 355.43 125.003 333.327C137.174 317.599 150.24 301.993 161.332 285.506C171.31 270.675 177.616 253.778 184.811 237.522C190.511 224.641 197.097 211.908 204.732 200.062C219.59 177.008 239.554 155.906 263.527 142.257C272.735 137.015 283.574 133.029 291.633 126.109C311.894 108.709 330.806 73.6619 358.36 67.6636Z"/>
	<path fill="#F9F9F8" transform="scale(3.98934 3.98934)" d="M138.575 381.306C214.979 345.879 296.7 294.455 359.283 237.812C369.039 228.982 378.817 220.247 387.796 210.608C354.332 265.883 256.399 325.567 198.103 355.534C185.775 361.845 173.302 367.867 160.694 373.597C153.997 376.658 146.897 379.39 140.392 382.809L138.575 381.306Z"/>
	<path fill="#F9F9F8" transform="scale(3.98934 3.98934)" d="M248.924 366.985C252.376 357.459 255.568 346.801 260.065 337.769L262.66 337.394C267.007 345.637 262.239 358.986 269.43 367.302C273.474 371.979 280.035 371.447 285.612 377.318L287.371 379.042C295.752 389.801 305.288 399.597 313.587 410.489C302.856 409.156 292.08 407.664 281.486 405.482C277.087 399.543 272.882 393.445 268.058 387.835C261.913 380.689 255.114 374.113 248.924 366.985Z"/>
	<path fill="#F9F9F8" transform="scale(3.98934 3.98934)" d="M279.144 417.97C291.629 417.116 306.091 418.322 318.492 420.12C306.7 423.534 298.534 425.599 291.619 436.48C282.462 439.194 273.32 441.958 264.194 444.772C260.456 445.685 236.122 435.371 231.328 433.531C233.514 430.62 236.512 426.6 240.23 425.634C242.86 424.951 244.652 426.297 246.779 427.647L247.596 428.171C257.62 426.226 269.983 422.486 279.144 417.97Z"/>
	<path fill="#F9F9F8" transform="scale(3.98934 3.98934)" d="M272.809 154.608L273.184 154.801C272.873 155.835 259.898 165.386 257.923 167.127C246.296 177.375 233.384 190.808 228.117 205.653C226.252 210.909 219.886 236.888 221.69 240.648C222.51 240.366 223.342 240.118 224.16 239.834C228.622 238.286 233.663 238.512 238.356 238.315C231.643 241.446 224.305 243.615 217.304 246.049L217.681 243.815C219.274 234.72 218.92 224.89 219.224 215.652C216.651 220.375 213.672 224.914 210.849 229.492C203.689 240.992 197.852 252.899 192.103 265.137C193.229 259.459 194.792 253.877 196.779 248.44C210.963 208.467 233.603 173.34 272.809 154.608Z"/>
	<path fill="#F9F9F8" transform="scale(3.98934 3.98934)" d="M349.024 158.609C350.812 158.596 352.599 158.636 354.384 158.727C366.154 159.387 380.03 162.639 388.109 171.938C394.201 178.95 393.936 186.066 393.247 194.745C391.699 186.998 389.41 180.726 383.419 175.272C371.36 164.294 354.096 164.498 338.822 165.26C317.266 167.188 297.992 174.441 277.511 180.686C299.399 168.071 323.836 160.527 349.024 158.609Z"/>
	<path fill="#F9F9F8" transform="scale(3.98934 3.98934)" d="M198.253 322.925C219.7 309.084 240.536 294.316 260.7 278.663C275.332 267.351 290.916 252.095 307.254 243.759C284.061 273.48 232.455 305.354 199.636 324.287L198.253 322.925Z"/>
	<path fill="#F9F9F8" transform="scale(3.98934 3.98934)" d="M351.074 78.7959L351.533 79.5589C348.017 84.2897 343.77 88.6077 340.076 93.2402C329.037 107.081 318.602 121.02 309.496 136.235L295.727 136.232L295.009 135.682C296.359 131.879 302.076 126.871 304.826 123.738C318.999 107.59 332.753 90.4386 351.074 78.7959Z"/>
	<path fill="#F9F9F8" transform="scale(3.98934 3.98934)" d="M236.932 242.316C236.723 248.28 148.445 339.728 136.982 351.014L136.93 350.56C138.999 345.633 156.474 328.273 161.269 322.808C182.144 299.009 202.036 273.398 224.635 251.206C228.523 247.388 231.918 244.516 236.932 242.316Z"/>
	<path fill="#F9F9F8" transform="scale(3.98934 3.98934)" d="M393.496 114.121C395.351 112.226 397.25 110.48 399.421 108.95C416.951 96.5925 448.067 93.8219 468.771 97.5267C445.173 98.8406 422.62 101.786 402.046 114.386C412.043 121.636 422.293 122.354 434.138 124.081C431.484 125.691 427.455 125.305 424.391 125.367C411.11 125.725 403.66 122.313 393.496 114.121Z"/>
	<path fill="#F9F9F8" transform="scale(3.98934 3.98934)" d="M347.267 127.479C351.844 131.804 355.623 137.433 359.985 142.076C361.587 141.523 361.093 138.316 362.332 136.796C365.128 138.758 365.556 142.412 368.371 144.174C370.557 142.928 370.974 141.141 372.076 138.937C374.42 143.97 377.5 148.735 380.316 153.518C379.965 147.373 379.938 140.641 382.042 134.762C382.572 133.281 382.676 132.547 384.129 131.86L384.891 133.383C384.665 143.674 383.408 151.74 386.714 161.857C380.821 158.564 375.774 154.695 370.552 150.437C369.409 151.143 368.372 151.727 367.094 152.18C365.82 151.616 364.54 151.027 363.352 150.293C355.673 145.548 349.432 136.133 347.267 127.479Z"/>
	<path fill="#F9F9F8" transform="scale(3.98934 3.98934)" d="M334.464 196.44C334.681 196.96 334.799 197.13 334.796 197.771C334.745 207.637 321.932 223.583 314.403 229.321C302.823 238.147 290.492 241.015 276.231 239.085L275.743 238.481C278.487 234.938 289.241 234.634 293.651 233.569C311.738 229.202 325.272 211.553 334.464 196.44Z"/>
	<path fill="#F9F9F8" transform="scale(3.98934 3.98934)" d="M365.904 195.691C365.909 195.997 365.928 196.303 365.919 196.609C365.616 207.091 355.11 220.052 347.498 226.413C336.34 235.736 324.101 239.749 309.694 238.41C310.171 235.701 328.587 231.235 331.884 229.574C346.405 222.258 357.093 208.899 365.904 195.691Z"/>
	<path fill="#F9F9F8" transform="scale(3.98934 3.98934)" d="M302.12 198.005C302.674 198.781 302.66 198.439 302.568 199.158C301.192 209.852 291.81 221.842 283.479 228.214C271.771 237.169 259.842 240.215 245.387 238.341L244.444 237.964L244.241 236.862C247.958 234.379 256.915 234.214 261.629 233.246C279.562 229.563 292.6 212.468 302.12 198.005Z"/>
	<path fill="#F9F9F8" transform="scale(3.98934 3.98934)" d="M133.925 407.351L134.245 407.536L134.407 408.463C128.046 420.961 116.303 448.902 103.083 453.442L102.71 453.051L102.755 451.804C109.969 439.324 122.659 415.485 133.925 407.351Z"/>
	<path fill="#F9F9F8" transform="scale(3.98934 3.98934)" d="M270.465 199.431C270.494 199.579 270.542 199.723 270.551 199.873C270.797 203.742 265.337 211.426 263.17 214.521C253.519 228.309 241.794 232.249 225.942 235.04C225.797 234.56 225.7 234.332 225.686 233.791C225.575 229.488 238.86 227.855 242.382 226.118C253.87 220.452 262.515 209.105 270.465 199.431Z"/>
	<path fill="#F9F9F8" transform="scale(3.98934 3.98934)" d="M320.11 303.158L320.573 304.245C313.352 316.59 306.107 328.534 297.528 340.008C297.436 339.94 297.32 339.896 297.254 339.804C296.396 338.618 296.949 337.294 297.289 336C299.013 329.453 306.32 313.279 311.104 308.799C313.484 306.57 317.259 304.808 320.11 303.158Z"/>
	<path fill="#F9F9F8" transform="scale(3.98934 3.98934)" d="M390.747 80.7198C394.647 79.188 399.06 80.9977 400.763 84.8263C402.465 88.6549 400.853 93.1455 397.104 95.0161C394.528 96.3019 391.453 96.069 389.099 94.4096C386.745 92.7502 385.492 89.9322 385.837 87.0724C386.181 84.2126 388.067 81.7728 390.747 80.7198Z"/>
	<path fill="#F9F9F8" transform="scale(3.98934 3.98934)" d="M116.671 412.631C116.657 412.952 116.652 413.462 116.584 413.801C115.084 421.248 100.724 444.48 95.5639 450.365C93.7837 452.395 91.6711 453.884 89.4225 455.35C89.4203 455.181 89.3964 455.012 89.416 454.845C89.8937 450.767 112.666 416.238 116.671 412.631Z"/>
	<path fill="#F9F9F8" transform="scale(3.98934 3.98934)" d="M144.6 404.321L145.039 405.399C139.077 418.207 132.684 432.64 123.644 443.614L122.868 442.903C123.081 435.815 139.626 410.914 144.6 404.321Z"/>
	<path fill="#F9F9F8" transform="scale(3.98934 3.98934)" d="M299.67 315.001C299.686 315.076 299.707 315.15 299.718 315.226C300.348 319.674 291.087 337.348 288.323 341.425C288.382 334.942 289.824 327.935 290.612 321.465C293.437 319.104 296.637 317.093 299.67 315.001Z"/>
	<path fill="#D1D1D2" transform="scale(3.98934 3.98934)" d="M140.392 382.809C134.485 385.525 117.094 393.294 111.495 393.582L112.066 392.922C116.716 392.181 133.433 383.609 138.575 381.306L140.392 382.809Z"/>
	<path fill="#6B6B6C" transform="scale(3.98934 3.98934)" d="M291.918 412.016C292.854 411.928 293.799 411.861 294.74 411.881C301.29 412.018 314.218 412.767 318.807 417.497L318.709 419.146C318.086 419.293 314.684 416.175 313.508 415.79C306.939 413.636 298.765 413.106 291.918 412.016Z"/>
	<path fill="#4D4D4E" transform="scale(3.98934 3.98934)" d="M285.612 377.318L285.896 375.577C284.76 374.502 283.607 373.618 282.906 372.202L283.839 371.926C286.584 373.832 290.538 376.376 292.232 379.312L290.846 380.413L292.016 380.465C291.769 380.418 291.521 380.374 291.274 380.325C289.929 380.054 288.65 379.525 287.371 379.042L285.612 377.318Z"/>
	<path fill="#D1D1D2" transform="scale(3.98934 3.98934)" d="M181.534 333.328L198.253 322.925L199.636 324.287C193.923 327.905 187.858 330.935 181.534 333.328Z"/>
	<path fill="#6B6B6C" transform="scale(3.98934 3.98934)" d="M299.009 388.334C304.875 390.861 311.057 399.827 315.222 404.633C309.254 401.573 303.494 393.408 299.009 388.334Z"/>
	<path fill="#ACACAD" transform="scale(3.98934 3.98934)" d="M266.267 414.513L266.609 415.055C262.324 417.056 256.169 417.315 251.467 418.078L250.88 417.558C253.772 415.002 262.365 414.88 266.267 414.513Z"/>
	<path fill="#6B6B6C" transform="scale(3.98934 3.98934)" d="M344.406 414.166C346.763 414.008 348.912 413.756 351.219 414.411C349.008 415.716 346.201 415.712 343.688 415.988C341.584 416.525 339.955 416.902 337.783 416.666C339.435 415.03 342.203 414.721 344.406 414.166Z"/>
	<path fill="#D1D1D2" transform="scale(3.98934 3.98934)" d="M434.138 124.081C437.227 124.537 440.343 124.923 443.394 125.597C437.075 126.317 430.69 126.239 424.391 125.367C427.455 125.305 431.484 125.691 434.138 124.081Z"/>
	<path fill="#6B6B6C" transform="scale(3.98934 3.98934)" d="M314.186 425.559L316.767 425.478L317.06 425.871L306.57 429.102C305.507 429.528 305.446 429.72 304.273 429.472C304.376 429.327 304.462 429.168 304.582 429.037C306.64 426.803 311.31 426.021 314.186 425.559Z"/>
	<path fill="#4D4D4E" transform="scale(3.98934 3.98934)" d="M261.898 390.513C265.83 392.226 268.103 395.879 270.121 399.484C266.79 398.212 263.845 393.346 261.898 390.513Z"/>
	<path fill="#4D4D4E" transform="scale(3.98934 3.98934)" d="M340.755 420.345C345.141 420.804 349.056 421.712 353.26 423.035C348.633 423.151 344.825 422.675 340.755 420.345Z"/>
	<path fill="#4D4D4E" transform="scale(3.98934 3.98934)" d="M314.867 405.422C318.179 406.868 319.215 408.568 320.836 411.652C317.713 410.804 316.598 407.953 314.867 405.422Z"/>
	<path fill="#4D4D4E" transform="scale(3.98934 3.98934)" d="M269.944 400.946C270.121 401.024 270.305 401.088 270.476 401.18C273.026 402.555 273.562 405.099 274.444 407.639C272.275 406.58 271.031 403.047 269.944 400.946Z"/>
	<path fill="#222122" transform="scale(3.98934 3.98934)" d="M865.867 80.4903C879.827 79.4006 891.498 84.2094 903.126 91.4122C920.116 91.0004 939.774 93.1388 953.165 104.709C954.9 106.208 955.597 107.203 955.725 109.488C951.559 113.439 935.812 110.364 929.503 111.214C920.456 112.433 911.676 114.868 902.876 117.223C917.345 119.63 932.092 122.707 945.541 128.75C948.208 129.948 950.298 130.89 951.363 133.737L950.681 134.754C939.363 139.065 921.94 134.363 909.641 135.837C889.824 138.213 893.709 164.813 892.734 179.038C892.071 188.699 890.659 199.942 887.107 208.997C883.222 218.904 864.744 242.546 857.37 252.099L857.695 252.554C857.879 252.357 858.059 252.155 858.248 251.963C859.983 250.201 862.263 248.936 864.6 248.175C870.451 246.271 903.513 239.106 908.304 239.405C910.443 239.538 911.001 239.757 912.345 241.355C912.453 243.144 912.766 243.47 911.54 244.862C906.187 246.815 859.635 256.874 857.016 255.978L856.513 253.592C855.823 253.732 844.258 268.501 840.564 271.576C862.486 272.441 884.589 273.38 906.451 275.231C910.277 275.555 913.145 275.344 915.748 278.428C915.923 280.263 915.905 280.283 914.888 281.823C910.445 284.098 842.956 279.019 834.394 277.602C828.977 282.358 822.634 287.082 818.635 293.131C813.675 300.631 811.526 309.06 805.998 316.544C819.285 330.991 830.349 347.715 843.447 362.498C853.142 362.354 861.805 361.44 871.488 363.028C875.07 365.973 878.124 369.033 881.151 372.544C875.928 371.206 870.734 369.76 865.571 368.208C868.48 371.616 873.146 374.24 875.121 378.34C876.048 380.266 875.58 381.124 874.831 382.902C872.972 381.435 870.969 379.664 868.934 378.467C867.317 377.516 866.003 377.645 864.266 378.111C862.373 380.582 863.037 382.947 861.749 385.651C858.584 384.554 855.919 379.683 852.964 377.391L852.292 376.878C838.516 375.638 824.878 374.161 811.023 374.513C815.042 377.582 817.522 380.917 819.618 385.521C820.757 388.023 820.601 389.251 819.669 391.669L818.607 392.087C816.084 389.063 813.155 385.52 809.412 384.063C804.823 385.091 808.494 390.239 806.431 393.352C804.964 393.036 804.799 392.864 803.706 391.898C792.205 381.736 781.252 384.194 767.161 385.722C758.702 386.64 750.28 387.528 741.782 388.027C732.737 398.367 725.104 410.987 715.047 420.318C709.249 425.697 701.139 425.433 695.542 430.78C692.751 433.446 690.471 437.259 688.236 440.415C704.114 449.671 722.729 455.439 740.826 458.268C786.635 465.428 831.187 453.233 868.439 425.966C901.351 401.875 923.842 362.547 929.948 322.433C936.975 275.952 925.43 228.572 897.81 190.537L901.05 183.278C905.918 189.274 910.08 196.538 913.94 203.235C933.855 237.789 941.774 275.556 938.092 315.25C932.696 359.371 911.368 401.313 876.038 429.018C838.683 458.811 790.791 472.07 743.436 465.729C700.595 460.206 661.624 438.107 634.886 404.173C605.919 366.985 592.99 319.771 598.966 273.009C604.415 226.666 628.205 184.441 665.014 155.776C702.227 126.951 746.594 114.566 793.45 120.727C797.104 121.207 803.987 121.569 806.265 124.525C806.006 125.133 805.743 125.74 805.409 126.312C804.713 127.504 803.669 128.277 802.331 128.632C798.534 129.64 783.13 126.809 777.927 126.613C760.534 125.958 743.341 127.432 726.515 132.02C684.376 143.862 648.553 171.75 626.73 209.703C603.027 251.483 598.849 298.349 611.451 344.299C612.3 340.035 613.062 336.188 615.293 332.397C622.219 320.632 633.015 310.364 642.397 300.502C659.287 282.748 676.866 265.631 693.657 247.8C684.782 247.544 636.447 249.126 632.277 245.949C632.012 244.099 632.007 244.067 632.954 242.458C636.642 240.14 685.226 240.956 693.051 241.401C694.707 243.137 693.749 244.207 693.935 246.477C698.719 240.141 702.187 232.509 705.994 225.54C715.082 208.905 725.116 191.227 738.568 177.686C749.361 166.82 762.302 158.005 775.661 150.619C782.977 146.574 792.673 142.743 798.743 137.08C802.748 133.343 805.976 127.224 809.282 122.746C824.757 101.788 838.507 84.5913 865.867 80.4903Z"/>
	<path fill="#F9F9F8" transform="scale(3.98934 3.98934)" d="M869.322 86.6063C880.967 87.3574 891.607 90.341 901.179 97.1853C916.936 97.2896 929.788 99.1404 944.582 105.031C922.696 104.522 904.789 108.782 885.649 119.401C901.789 122.686 918.168 125.99 934.11 130.108C923.796 130.668 906.481 126.624 898.071 133.245C883.617 144.623 887.192 166.666 885.791 182.633C885.084 190.702 884.067 199.658 880.925 207.158C877.916 214.34 872.366 220.714 867.857 227.032C860.528 237.301 853.395 248.27 845.201 257.852C835.43 269.279 823.363 279.519 811.852 289.158C811.336 293.849 809.96 298.278 808.038 302.58C804.78 309.873 800.269 314.44 792.862 317.297C790.079 314.483 787.777 311.627 783.527 311.555L782.737 312.528C782.828 313.208 782.902 313.784 783.194 314.414C785 318.312 787.692 320.682 791.651 322.283C799.911 325.622 822.13 355.543 829.271 364.016C821.417 364.102 813.312 363.772 805.605 365.483C799.655 366.803 794.396 369.118 788.258 369.892C782.888 355.205 770.67 342.893 763.004 329.255C767.177 327.886 770.819 326.414 774.592 324.143C777.543 319.222 785.058 294.683 783.988 289.735L782.871 289.634C777.645 293.497 779.403 309.9 773.822 317.727C768.905 324.622 761.424 325.469 753.705 326.668C758.921 322.373 762.194 318.031 765.585 312.253C757.725 319.038 753.102 323.293 742.63 325.27C742.584 325.214 742.525 325.165 742.492 325.1C741.069 322.341 745.492 309.509 745.975 305.252C745.084 305.206 744.193 305.181 743.302 305.176C736.187 305.14 729.123 306.896 723.073 310.721C711.659 317.938 694.27 337.526 684.382 347.424C668.436 363.387 652.076 378.967 635.989 394.793C631.718 389.377 617.938 368.276 618.443 361.944C618.566 360.41 621.055 361.872 622.509 361.058C624.761 359.795 626.959 357.086 628.91 355.311C644.511 341.122 659.804 326.229 676.379 313.209C669.87 315.337 663.461 319.281 657.17 322.099C644.462 327.776 631.625 333.161 618.67 338.248C622.895 330.649 629.926 323.663 635.754 317.221C646.742 305.104 657.968 293.207 669.428 281.536C678.345 272.602 688.201 263.92 696.13 254.102C701.939 246.908 706.024 238.388 710.465 230.312C720.314 212.403 730.526 194.254 745.216 179.784C754.898 170.245 766.97 162.225 778.839 155.704C786.185 151.668 794.434 148.098 800.862 142.696C811.335 133.895 818.493 119.936 827.461 109.503C838.96 96.1264 851.444 87.9332 869.322 86.6063Z"/>
	<path fill="#222122" transform="scale(3.98934 3.98934)" d="M875.38 98.9034C877.75 97.815 880.555 98.8112 881.709 101.151C882.862 103.49 881.944 106.323 879.638 107.541C878.089 108.359 876.217 108.271 874.751 107.311C873.285 106.351 872.456 104.67 872.587 102.922C872.718 101.174 873.787 99.6347 875.38 98.9034Z"/>
	<path fill="#F9F9F8" transform="scale(3.98934 3.98934)" d="M735.032 312.015L737.353 312.084C740.32 315.518 734.608 321.575 735.022 325.942C735.197 327.797 736.18 329.156 737.702 330.187C741.066 332.465 746.07 331.417 749.802 330.799C757.648 343.583 768.25 356.04 773.779 369.984C767.128 372.777 762.682 374.773 759.125 381.312L740.336 381.845C729.111 390.552 722.85 403.765 712.771 413.471C706.82 419.201 699.414 419.367 693.339 424.047C689.334 427.132 686.109 432.568 683.117 436.642C682.987 436.632 682.855 436.637 682.726 436.613C671.813 434.537 647.291 408.865 639.871 400.041L695.874 344.567C705.44 335.147 714.901 324.386 725.677 316.38C728.523 314.266 731.704 313.156 735.032 312.015Z"/>
	<path fill="#ACACAD" transform="scale(3.98934 3.98934)" d="M800.6 319.374C803.851 321.103 835.446 360.791 840.992 367.229C847.512 366.858 853.763 366.661 860.273 367.313L859.232 367.755L858.882 367.375L858.71 367.827C849.543 368.821 840.052 368.468 830.813 368.988C824.244 369.199 817.76 369.607 811.178 369.584L811.566 369.056L809.756 369.403L811.148 369.302L811.196 368.843C820.193 367.534 829.262 367.827 838.281 366.755C827.38 350.199 810.275 336.793 800.6 319.374Z"/>
	<path fill="#F9F9F8" transform="scale(3.98934 3.98934)" d="M635.286 339.063L636.257 339.217C634.839 343.035 620.415 354.583 616.747 358.211L612.771 348.712C619.753 344.856 627.913 342.168 635.286 339.063Z"/>
	<path fill="#D1D1D2" transform="scale(3.98934 3.98934)" d="M756.492 329.873C759.364 331.542 779.206 362.361 780.926 366.809C781.998 369.585 781.387 370.654 780.27 373.227L778.978 373.385C778.959 372.864 778.92 372.343 778.913 371.821C778.732 358.496 762.046 342.472 756.492 329.873Z"/>
	<path fill="#D1D1D2" transform="scale(3.98934 3.98934)" d="M793.222 373.891C797.427 373.302 800.525 373.784 804.46 375.159C798.848 374.756 793.206 375.115 787.69 376.225C784.906 376.888 782.669 378.414 779.699 378.958L779.127 378.284C784.01 375.511 787.609 374.433 793.222 373.891Z"/>
	<path fill="#222122" transform="scale(3.98934 3.98934)" d="M1233.47 869.853C1236.27 866.867 1257.17 807.129 1261.24 797.626C1267.26 783.353 1274.7 769.722 1283.44 756.941C1286.3 752.774 1291.14 744.643 1296.46 743.841C1297.84 744.726 1298.07 744.861 1298.43 746.488C1299.86 752.892 1284.35 796.165 1280 802.292C1279.53 802.96 1279.02 803.577 1278.46 804.178L1279.38 804.044C1297.06 801.348 1309.21 783.944 1313.09 782.847C1313.56 782.716 1314.91 783.019 1315.45 783.071C1316.92 784.492 1317.04 784.666 1317.42 786.669C1315.8 792.963 1304.38 800.19 1298.76 803.535C1291.63 807.788 1283.39 811.218 1275.1 812.13C1276.05 816.238 1262.36 857.449 1259.24 862.443C1258.69 863.318 1257.99 864.016 1257.25 864.722C1284.62 856.859 1326.21 822.831 1347.32 802.838C1355.25 795.33 1362.57 786.896 1369.94 778.828C1372.77 775.719 1377.57 768.562 1382.06 770.484C1383.24 773.412 1382.56 775.601 1381.36 778.432C1375.9 791.274 1356.86 825.418 1345.57 831.726C1361.25 829 1400.92 820.694 1412.72 812.736C1415.62 809.251 1422.24 784.876 1425.71 777.486C1429.39 769.659 1440.56 755.33 1442.21 749.153C1442.32 749.978 1442.78 751.534 1442.66 752.301C1441.94 756.964 1431.14 779.338 1428.72 786.384C1426.87 791.752 1424.89 802.341 1421.85 806.702C1421.45 807.273 1421 807.789 1420.53 808.299L1421.44 808.017C1433.83 804.07 1446.42 794.573 1456.67 786.757C1460.75 783.644 1464.89 779.826 1469.43 777.435C1471.48 776.36 1473.23 775.669 1475.32 776.679C1475.92 780.369 1472.64 784.62 1470.58 787.466C1441.47 827.714 1382.27 848.851 1335.38 856.923C1333.35 861.866 1326.85 867.032 1323 870.771C1297.41 895.652 1269.06 915.249 1235.98 929.101C1223.47 934.339 1114.48 973.815 1109.01 972.791C1107.71 971.611 1107.42 971.375 1106.85 969.634C1107.58 967.887 1108.18 967.139 1109.96 966.354C1126.22 959.178 1143.87 953.582 1160.77 947.994C1216.47 929.57 1269.77 912.366 1312.9 870.196C1317.48 865.724 1328.45 856.475 1331.04 851.061C1331.14 850.848 1331.18 850.609 1331.25 850.383C1366.74 842.586 1400.84 833.802 1431.93 814.109C1437.27 810.726 1443.86 806.787 1447.61 801.655C1432.25 816.153 1364.18 840.153 1342.57 839.784C1339.96 839.74 1338.08 839.545 1336.08 837.708C1335.58 835.677 1336.08 834.81 1337.15 833.018C1342.3 824.442 1359.75 808.233 1360.08 798.841C1357.22 809.971 1297.21 852.538 1284.13 860.264C1275.7 865.242 1260.3 874.123 1251.14 876.688C1250.09 876.085 1249.93 876.285 1249.57 874.998C1247.78 868.543 1266.98 816.041 1270.64 806.393C1273.96 797.635 1285.61 774.041 1284.48 766.717C1284.45 766.532 1284.43 766.346 1284.41 766.16C1284.94 771.07 1273.78 788.193 1270.98 793.849C1264.31 807.314 1244.01 870.229 1239.57 875.592C1239.21 876.021 1239.19 876.012 1238.82 876.306C1229.2 881.39 1201.18 890.409 1190.69 891.332C1183.28 892.175 1174.15 892.806 1166.78 891.702L1166.19 890.553C1176.49 887.904 1227.85 874.444 1233.47 869.853Z"/>
	<path fill="#222122" transform="scale(3.98934 3.98934)" d="M509.368 893.677C516.959 893.439 524.68 893.537 532.239 894.307C544.402 905.058 555.527 917.293 568.07 927.518C577.756 927.846 587.488 927.807 597.182 927.99C603.516 932.222 639.597 963.638 640.872 969.116C640.105 970.652 640.029 971.023 638.503 971.929C632.936 970.989 609.53 947.984 604.088 943.13L594.206 934.865C587.594 934.705 580.994 934.982 574.387 935.209C584.709 947.756 596.498 958.941 606.032 972.166C593.171 963.355 581.334 951.392 570.168 940.489C556.562 927.204 543.094 913.727 528.963 900.999C523.877 901.038 510.829 902.199 506.951 898.852C505.834 897.888 505.962 897.514 505.943 896.152C506.898 894.832 507.952 894.368 509.368 893.677Z"/>
	<path fill="#222122" transform="scale(3.98934 3.98934)" d="M1280.87 873.167C1290.18 868.364 1299.8 862.493 1308.07 856.054C1313.72 851.654 1325.61 836.549 1331.71 835.448L1332.39 836.284C1330.5 841.152 1324.11 846.143 1320.32 849.716C1295.35 873.234 1268.18 892.05 1236.69 905.894C1231.03 908.384 1224.74 911.353 1218.57 912.146L1217.64 911.613L1217.67 910.024C1221.26 907.442 1226.97 906.113 1231.11 904.381C1241.57 899.994 1267.18 888.904 1274.64 880.943L1274.74 879.95C1271.71 882.553 1265.66 884.596 1261.95 886.226C1255.63 888.999 1225.5 901.507 1220.33 899.489C1221.52 897.883 1222.91 897.099 1224.69 896.283C1230.38 893.676 1236.68 891.906 1242.58 889.794C1255.56 885.144 1268.87 879.997 1280.87 873.167Z"/>
	<path fill="#222122" transform="scale(3.98934 3.98934)" d="M824.489 289.495C824.921 289.481 825.353 289.471 825.785 289.48L826.457 289.499C829.547 289.566 832.307 290.305 835.249 291.191C843.967 293.82 911.662 316.982 914.912 320.081C916.511 321.607 916.358 325.425 916.307 327.455C906.624 324.059 825.898 295.982 824.252 293.253C823.62 292.207 824.265 290.668 824.489 289.495Z"/>
	<path fill="#222122" transform="scale(3.98934 3.98934)" d="M1195.08 921.598C1196.88 921.333 1198.29 921.199 1200.09 921.512L1200.48 922.459C1195.13 927.843 1127.46 945.982 1115.58 949.718C1095.12 956.147 1075.74 965.155 1055.47 971.92C1054.81 972.409 1054.2 972.533 1053.41 972.765L1052.3 971.811L1052.48 970.169C1055.29 966.785 1064.72 964.352 1068.94 962.7C1083.25 957.097 1097.67 951.075 1112.34 946.473C1139.84 937.846 1167.9 931.32 1195.08 921.598Z"/>
	<path fill="#222122" transform="scale(3.98934 3.98934)" d="M1111.45 926.845C1113.58 926.726 1113.82 926.504 1115.59 927.822L1115.56 928.927C1111.67 932.887 1073.31 943.817 1064.77 947.194C1045.58 954.775 1027.3 963.446 1009.16 973.235L1007.94 973.236L1007.34 972.201C1011.48 963.722 1066.6 942.262 1077.58 938.556C1084.81 936.112 1106.62 930.636 1111.45 926.845Z"/>
	<path fill="#222122" transform="scale(3.98934 3.98934)" d="M649.693 201.359C655.557 202.494 695.526 222.906 702.132 227.474C702.668 229.336 701.778 230.809 701.155 232.6C691.895 229.851 655.894 212.651 648.417 206.925C647.963 204.646 648.832 203.427 649.693 201.359Z"/>
	<path fill="#222122" transform="scale(3.98934 3.98934)" d="M353.763 929.558C355.537 929.458 356.96 929.106 358.568 929.954C351.571 934.533 341.826 936.646 334.086 940.044C317.223 947.447 302.252 957.932 287.945 969.392C286.45 970.463 286.075 970.971 284.197 971.024L284.158 969.79C298.987 946.935 328.785 936.201 353.763 929.558Z"/>
	<path fill="#222122" transform="scale(3.98934 3.98934)" d="M669.827 170.758C673.478 172.74 706.225 202.565 711.39 207.669C711.256 209.96 709.914 211.55 708.678 213.398C708.621 213.405 708.563 213.427 708.505 213.418C705.764 212.985 671.539 180.517 667.76 175.993C667.77 173.68 668.681 172.668 669.827 170.758Z"/>
	<path fill="#222122" transform="scale(3.98934 3.98934)" d="M311.39 448.494C311.446 448.509 311.504 448.517 311.558 448.539C315.59 450.162 320.112 460.36 322.301 464.256L298.133 464.428C296.601 464.508 295.068 464.567 293.534 464.605C291.172 464.654 289.41 464.675 287.635 462.987L287.782 461.443C292.501 455.658 304.539 451.697 311.39 448.494Z"/>
	<path fill="#222122" transform="scale(3.98934 3.98934)" d="M477.058 922.587C480.061 922.848 482.64 924.092 485.263 925.503C496.29 931.435 534.816 960.578 537.914 971.168C537.664 971.206 537.414 971.256 537.162 971.282C535.587 971.449 534.898 971.325 533.59 970.474C527.683 966.633 522.171 960.955 516.84 956.296C503.783 944.885 490.938 932.983 477.058 922.587Z"/>
	<path fill="#222122" transform="scale(3.98934 3.98934)" d="M349.725 437.779C351.471 438.572 352.795 439.586 354.177 440.898C358.452 444.955 370.901 459.229 371.057 464.562C364.161 464.252 357.256 464.38 350.355 464.436C350.108 456.126 347.733 445.871 349.725 437.779Z"/>
	<path fill="#222122" transform="scale(3.98934 3.98934)" d="M519.714 918.764C527.26 921.543 570.516 963.558 573.942 970.522C573.027 970.643 572.18 970.76 571.284 970.451C565.18 968.34 534.238 937.536 528.565 931.091C525.142 927.204 522.254 923.285 519.714 918.764Z"/>
	<path fill="#222122" transform="scale(3.98934 3.98934)" d="M214.523 447.57C221.121 450.65 228.644 459.174 233.882 464.334L217.757 464.228L196.773 464.332C203.022 459.119 208.734 453.282 214.523 447.57Z"/>
	<path fill="#222122" transform="scale(3.98934 3.98934)" d="M400.688 938.378L402.099 938.691L402.697 939.89C399.994 944.518 389.06 948.758 384.372 951.392C373.603 957.445 363.535 964.823 353.961 972.6L351.099 969.957C355.817 958.776 389.56 942.991 400.688 938.378Z"/>
	<path fill="#222122" transform="scale(3.98934 3.98934)" d="M698.792 153.291L701.21 153.571C706.886 158.551 719.546 182.458 721.171 190.05C721.804 193.008 721.279 194.318 719.639 196.82C719.488 196.784 719.33 196.77 719.186 196.713C716.214 195.524 700.969 164.441 699.024 159.966C697.793 157.134 697.669 156.139 698.792 153.291Z"/>
	<path fill="#222122" transform="scale(3.98934 3.98934)" d="M381.865 435.407C385.631 435.509 387.259 436.77 389.903 439.329C393.098 442.421 410.51 459.822 411.388 462.909C411.554 463.495 411.428 464.568 411.444 465.209C409.519 465.152 407.516 465.137 405.609 464.853C401.377 464.222 386.17 445.711 383.116 441.526C381.4 439.174 381.456 438.189 381.865 435.407Z"/>
	<path fill="#222122" transform="scale(3.98934 3.98934)" d="M665.848 100.062C666.386 100.162 666.587 100.171 667.132 100.426C670.281 101.899 684.565 124.584 685.492 128.405C685.923 130.18 684.82 131.095 683.895 132.509L681.756 132.055C677.738 129.148 664.993 108.784 664.108 104.005C663.777 102.212 664.858 101.412 665.848 100.062Z"/>
	<path fill="#222122" transform="scale(3.98934 3.98934)" d="M748.099 74.5467C749.544 74.743 750.745 75.0657 752.127 75.5341C752.537 76.1156 752.832 76.5189 753.033 77.2115C754.454 82.1192 756.344 106.836 753.931 110.542C753.412 110.484 752.602 110.414 752.122 110.258C751.017 109.896 750.464 109.479 749.946 108.493C747.306 103.463 746.443 79.4423 748.099 74.5467Z"/>
	<path fill="#222122" transform="scale(3.98934 3.98934)" d="M789.167 76.9267C790.786 77.1301 791.875 77.5015 793.328 78.2339C793.688 78.8056 794 79.2498 794.094 79.9381C794.829 85.3378 792.505 106.7 789.873 111.096C788.037 110.853 787.072 110.634 785.61 109.47C784.161 104.582 787.108 81.925 789.167 76.9267Z"/>
	<path fill="#222122" transform="scale(3.98934 3.98934)" d="M453.719 935.267C456.367 936.033 458.463 937.194 460.774 938.65C469.121 943.907 493.402 961.06 495.507 970.284C488.341 969.461 460.392 941.688 453.719 935.267Z"/>
	<path fill="#222122" transform="scale(3.98934 3.98934)" d="M725.681 141.31L728.935 141.903C732.52 145.374 734.158 153.423 735.282 158.257C736.437 163.226 738.387 168.087 735.499 172.725L733.208 172.333C732.596 171.79 732.189 171.436 731.801 170.703C729.947 167.201 725.348 149.473 724.889 145.255C724.741 143.894 725.206 142.565 725.681 141.31Z"/>
	<path fill="#161616" transform="scale(3.98934 3.98934)" d="M1253.96 434.73C1254.11 434.707 1254.26 434.682 1254.41 434.661C1257.06 434.286 1259.28 434.114 1261.44 435.754L1261.33 436.274C1250.94 442.938 1237.85 446.893 1225.66 447.9C1223.47 448.576 1222.87 449.1 1220.68 448.262L1220.22 446.925C1223.02 442.734 1237.63 441.73 1242.77 439.891C1246.59 438.523 1250.32 436.526 1253.96 434.73Z"/>
	<path fill="#222122" transform="scale(3.98934 3.98934)" d="M1181.33 446.733C1185.75 446.295 1191.73 446.443 1195.67 448.686C1197.49 449.724 1198.23 450.15 1198.85 452.131L1197.5 453.434C1194.38 454.685 1191.08 454.212 1187.81 454.019C1182.96 453.665 1177.46 455.125 1172.81 454.074C1171.49 453.777 1171.54 453.758 1170.86 452.627C1172.74 448.959 1177.72 447.942 1181.33 446.733Z"/>
	<path fill="#222122" transform="scale(3.98934 3.98934)" d="M709.533 90.2271C710.367 90.5642 710.928 90.9237 711.589 91.5556C714.269 94.1178 719.583 111.298 719.605 114.739C719.617 116.659 718.779 117.163 717.564 118.52C712.601 115.267 708.162 101.032 707.261 95.0596C706.908 92.7209 708.139 91.8727 709.533 90.2271Z"/>
	<path fill="#222122" transform="scale(3.98934 3.98934)" d="M335.644 440.693C336.806 441.499 337.948 441.994 338.438 443.418C339.612 446.827 339.356 460.223 337.844 463.448C337.3 464.608 334.662 465.16 333.4 465.612C331.908 464.512 331.188 464.312 330.848 462.4C329.696 455.913 332.105 446.172 335.644 440.693Z"/>
	<path fill="#222122" transform="scale(3.98934 3.98934)" d="M949.808 204.755C951.536 205.13 952.139 205.405 953.404 206.641L953.095 208.568C949.056 213.083 940.426 214.921 934.823 216.802L933.078 216.401C931.882 214.866 931.621 214.657 931.45 212.637C934.256 208.177 944.954 206.257 949.808 204.755Z"/>
	<path fill="#222122" transform="scale(3.98934 3.98934)" d="M586.009 204.337C591.726 204.54 601.757 208.454 605.914 212.381C606.681 214.447 606.368 214.914 605.846 216.993C599.615 216.38 590.885 213.515 586.129 209.409C585.113 207.168 585.422 206.773 586.009 204.337Z"/>
	<path fill="#222122" transform="scale(3.98934 3.98934)" d="M1384.44 448.984C1386.15 448.77 1387.88 448.735 1389.59 448.88C1392.26 449.083 1397.15 449.838 1398.84 452.066C1399.69 453.193 1399.59 453.518 1399.42 454.824C1396.9 456.068 1388.98 454.733 1385.81 454.745C1383.07 455.073 1378.71 456.205 1376.13 455.308C1374.9 454.88 1375.08 454.756 1374.51 453.718C1376.78 450.478 1380.84 449.919 1384.44 448.984Z"/>
	<path fill="#222122" transform="scale(3.98934 3.98934)" d="M641.702 134.621C647.052 136.301 653.352 143.708 656.217 148.373C656.351 150.786 655.767 151.247 654.524 153.253C650.158 151.283 642.574 144.206 640.586 139.884C639.706 137.971 640.921 136.328 641.702 134.621Z"/>
	<path fill="#222122" transform="scale(3.98934 3.98934)" d="M923.075 164.722C923.396 164.79 923.724 164.831 924.038 164.926C925.782 165.451 926.171 166.062 926.804 167.672C925.589 172.776 917.187 178.12 913.234 181.372C912.508 181.297 912.78 181.399 912.122 181.015C910.427 180.023 910.445 180.005 909.898 178.049C911.662 172.79 918.854 168.156 923.075 164.722Z"/>
	<path fill="#222122" transform="scale(3.98934 3.98934)" d="M395.563 922.642C396.426 922.655 396.739 922.813 397.506 923.166C393.43 928.47 374.685 937.163 368.035 940.815C367.001 941.212 367.526 941.201 366.459 940.822C371.39 932.266 386.678 926.372 395.563 922.642Z"/>
	<path fill="#222122" transform="scale(3.98934 3.98934)" d="M426.922 949.507C427.127 949.583 427.335 949.653 427.538 949.734C434.324 952.456 449.305 964.808 452.211 971.612C451.929 971.597 451.647 971.577 451.365 971.568C450.7 971.545 450.095 971.551 449.438 971.387C443.212 969.832 430.695 954.924 426.922 949.507Z"/>
	<path fill="#222122" transform="scale(3.98934 3.98934)" d="M612.483 168.307C613.13 168.398 613.368 168.411 613.959 168.557C617.605 169.458 625.373 173.743 627.179 177.133C627.96 178.598 627.334 179.632 626.92 181.102C626.445 181.108 626.299 181.118 625.779 181.078C621.722 180.759 614.744 177.099 612.405 173.71C611.074 171.781 611.906 170.321 612.483 168.307Z"/>
	<path fill="#161616" transform="scale(3.98934 3.98934)" d="M1234.56 451.984C1239.29 451.351 1244.71 452.091 1248.63 454.893L1248.7 456.088C1246.45 457.736 1243.75 457.447 1241.06 457.514C1237.01 457.677 1233.12 458.074 1229.27 456.571C1228.4 456.231 1228.55 456.055 1228.21 455.245C1229.69 453.113 1232.19 452.717 1234.56 451.984Z"/>
	<path fill="#222122" transform="scale(3.98934 3.98934)" d="M753.287 135.353C754.175 135.319 754.953 135.232 755.789 135.587C757.606 136.357 758.38 138.349 758.985 140.153C760.305 144.09 760.761 149.279 759.013 153.099L756.109 152.903C755.466 152.192 755.006 151.589 754.625 150.701C752.859 146.587 751.533 139.57 753.287 135.353Z"/>
	<path fill="#222122" transform="scale(3.98934 3.98934)" d="M898.079 205.946C898.264 206.038 898.459 206.111 898.633 206.222C900.772 207.582 902.975 211.089 903.586 213.524C904.174 215.866 903.783 216.036 902.535 217.987C901.856 218.047 901.084 217.892 900.403 217.821C899.172 216.762 897.952 215.753 897.313 214.219C895.92 210.874 896.815 209.006 898.079 205.946Z"/>
	<path fill="#161616" transform="scale(3.98934 3.98934)" d="M237.215 457.646C239.334 457.792 241.283 458.046 243.345 458.559C245.252 460.508 245.365 461.786 246.009 464.368C244.033 464.447 242.443 464.38 240.536 463.835C238.43 462.221 238.001 460.065 237.215 457.646Z"/>
	<path fill="#161616" transform="scale(3.98934 3.98934)" d="M1164.92 914.07C1165.21 914.026 1165.49 913.972 1165.79 913.936C1168.1 913.649 1169.82 914.962 1171.48 916.383C1172.3 918.408 1172.37 918.581 1171.82 920.685L1170.93 920.754C1168.73 918.661 1166.5 916.696 1164.92 914.07Z"/>
</svg>
