<svg width="250" height="250" viewBox="0 0 250 250" fill="none" xmlns="http://www.w3.org/2000/svg">
<path d="M64.7484 183.737C62.0456 183.833 59.3428 183.975 56.64 184.058C54.8886 184.113 53.1335 184.071 51.3785 184.117C50.0343 184.149 48.7082 184.355 47 185.033C47.555 185.766 47.8288 186.179 48.1388 186.531C50.0812 188.749 52.0524 190.92 53.9696 193.17C55.1841 194.594 55.1264 194.562 56.694 193.806C59.0761 192.657 61.4834 191.571 63.9087 190.577C65.5844 189.889 65.6024 189.981 65.7934 187.599C65.8511 186.898 65.9736 186.206 66.0241 185.501C66.1358 183.916 65.9808 183.696 64.7484 183.737ZM65.4691 188.68C61.9663 190.407 58.586 192.075 55.1516 193.774C52.9389 191.085 50.6181 188.259 48.3153 185.459C49.292 184.965 63.2312 184.342 65.8187 184.749C65.6889 186.188 65.5736 187.512 65.4691 188.68Z" fill="#666362"/>
<path d="M89.1348 93.5556C88.8753 94.4673 89.178 94.9712 89.7294 95.379C89.8771 95.4889 90.0213 95.608 90.169 95.7226C93.0556 97.9536 95.9422 100.194 98.836 102.407C99.964 103.268 101.103 104.12 102.27 104.88C103.694 105.806 103.845 105.659 104.624 103.804C105.997 100.547 107.427 97.326 108.826 94.0871C108.955 93.7847 109.024 93.4365 109.24 92.7219C108.624 92.7219 108.296 92.7173 107.968 92.7219C105.02 92.7677 102.072 92.8776 99.1243 92.841C96.2269 92.7997 93.3295 92.6211 90.4321 92.4699C89.7762 92.4332 89.3726 92.7219 89.1348 93.5556ZM107.611 94.2291C107.265 96.1349 106.26 97.5642 105.618 99.2272C104.988 100.863 104.31 102.466 103.542 104.349C98.8432 100.881 94.2413 97.4863 89.6429 94.0871C89.6681 93.945 89.6934 93.8076 89.7186 93.6656C95.6395 93.8534 101.56 94.0412 107.611 94.2291Z" fill="#666362"/>
<path d="M86.6266 58.1015C88.5871 58.7154 90.5367 59.3934 92.4935 60.021C92.8971 60.1493 93.3224 60.1676 93.8882 60.2638C92.3097 56.5026 90.8142 52.9522 89.3366 49.4292C89.1384 49.475 89.0195 49.4567 88.9799 49.5208C87.3618 52.1505 85.4806 54.4319 83.6031 56.7271C83.5274 56.8187 83.5022 56.9791 83.4157 57.1944C83.6392 57.2952 83.8121 57.4051 83.9959 57.451C84.8716 57.6754 85.7581 57.8312 86.6266 58.1015ZM89.2466 50.0843C90.5403 53.0713 91.7836 56.1774 93.0701 59.4346C90.1439 58.4955 87.3474 57.5975 84.5221 56.6859C86.0933 54.4915 87.6393 52.3337 89.2466 50.0843Z" fill="#666362"/>
<path d="M86.6266 58.1015C88.5871 58.7154 90.5367 59.3934 92.4935 60.021C92.8971 60.1493 93.3224 60.1676 93.8882 60.2638C92.3097 56.5026 90.8142 52.9522 89.3366 49.4292C89.1384 49.475 89.0195 49.4567 88.9799 49.5208C87.3618 52.1505 85.4806 54.4319 83.6031 56.7271C83.5274 56.8187 83.5022 56.9791 83.4157 57.1944C83.6392 57.2952 83.8121 57.4051 83.9959 57.451C84.8716 57.6754 85.7581 57.8312 86.6266 58.1015ZM89.2466 50.0843C90.5403 53.0713 91.7836 56.1774 93.0701 59.4346C90.1439 58.4955 87.3474 57.5975 84.5221 56.6859C86.0933 54.4915 87.6393 52.3337 89.2466 50.0843Z" fill="#666362"/>
<path d="M77.2857 161.848C75.1379 162.558 73.0117 163.392 70.8566 164.047C67.4835 165.078 64.1285 166.173 60.6905 167.891C61.2743 171.707 61.8978 175.294 62.6762 178.537C65.0186 178.446 67.1088 178.304 69.2025 178.299C71.0224 178.295 72.8423 178.478 74.6622 178.524C75.2676 178.542 75.8802 178.395 76.4496 178.327C77.8371 172.875 78.5758 167.474 78.9218 161.614C78.3055 161.701 77.7758 161.683 77.2857 161.848ZM75.5991 177.003C71.5305 177.003 67.57 177.003 63.3717 177.003C62.8059 174.368 62.2185 171.615 61.6383 168.903C63.3609 167.561 75.9451 163.135 77.5163 163.277C77.8443 166.008 76.8821 172.957 75.5991 177.003Z" fill="#666362"/>
<path d="M145.371 191.374C142.066 192.396 138.765 193.44 135.457 194.443C134.686 194.677 134.513 195.273 134.524 196.225C134.556 198.832 134.502 201.439 134.524 204.05C134.535 205.154 134.646 206.258 134.722 207.559C136.03 207.559 137.1 207.532 138.167 207.569C139.439 207.614 140.319 206.936 140.866 205.397C142.42 201.013 144.012 196.652 145.576 192.272C145.656 192.047 145.612 191.75 145.623 191.553C145.468 191.438 145.411 191.365 145.371 191.374ZM139.825 206.235C138.43 206.41 137.036 206.584 135.49 206.776C135.396 202.887 135.309 199.19 135.219 195.428C138.189 194.558 141.155 193.687 144.567 192.684C142.892 197.485 141.378 201.81 139.825 206.235Z" fill="#666362"/>
<path d="M163.374 162.218C160.671 162.314 157.968 162.456 155.265 162.539C153.514 162.594 151.759 162.553 150.004 162.598C148.66 162.63 147.334 162.837 145.626 163.515C146.18 164.248 146.454 164.66 146.764 165.013C148.707 167.23 150.678 169.401 152.595 171.651C153.81 173.076 153.752 173.044 155.32 172.288C157.702 171.138 160.109 170.052 162.534 169.058C164.21 168.371 164.228 168.462 164.419 166.08C164.477 165.379 164.599 164.687 164.65 163.982C164.761 162.397 164.606 162.177 163.374 162.218ZM164.095 167.161C160.592 168.888 157.212 170.556 153.777 172.256C151.564 169.566 149.244 166.74 146.941 163.941C147.917 163.446 161.857 162.823 164.444 163.231C164.314 164.669 164.199 165.993 164.095 167.161Z" fill="#666362"/>
<path d="M187.76 72.0368C187.501 72.9485 187.804 73.4524 188.355 73.8602C188.503 73.9701 188.647 74.0892 188.795 74.2038C191.681 76.4348 194.568 78.675 197.462 80.8878C198.589 81.749 199.728 82.6011 200.896 83.3616C202.319 84.287 202.471 84.1404 203.249 82.285C204.622 79.0278 206.053 75.8072 207.451 72.5683C207.581 72.2659 207.649 71.9177 207.865 71.2031C207.249 71.2031 206.921 71.1985 206.593 71.2031C203.646 71.2489 200.698 71.3588 197.75 71.3222C194.852 71.2809 191.955 71.1023 189.058 70.9511C188.402 70.9144 187.998 71.203 187.76 72.0368ZM206.237 72.7103C205.891 74.6161 204.885 76.0454 204.244 77.7084C203.613 79.3439 202.936 80.9473 202.168 82.8302C197.469 79.3622 192.867 75.9675 188.268 72.5683C188.294 72.4262 188.319 72.2888 188.344 72.1468C194.265 72.3346 200.186 72.5224 206.237 72.7103Z" fill="#666362"/>
<path d="M175.911 140.329C173.763 141.039 171.637 141.873 169.482 142.528C166.109 143.559 162.754 144.654 159.316 146.372C159.9 150.188 160.523 153.775 161.302 157.019C163.644 156.927 165.734 156.785 167.828 156.78C169.648 156.776 171.468 156.959 173.288 157.005C173.893 157.023 174.506 156.877 175.075 156.808C176.463 151.356 177.201 145.955 177.547 140.095C176.931 140.183 176.401 140.164 175.911 140.329ZM174.225 155.484C170.156 155.484 166.196 155.484 161.997 155.484C161.431 152.85 160.844 150.096 160.264 147.384C161.986 146.042 174.571 141.616 176.142 141.758C176.47 144.489 175.508 151.439 174.225 155.484Z" fill="#666362"/>
<path d="M243.996 169.855C240.692 170.877 237.391 171.921 234.083 172.925C233.311 173.158 233.138 173.754 233.149 174.707C233.182 177.313 233.128 179.92 233.149 182.531C233.16 183.636 233.272 184.74 233.347 186.041C234.656 186.041 235.726 186.013 236.793 186.05C238.065 186.096 238.944 185.418 239.492 183.878C241.045 179.494 242.638 175.133 244.202 170.753C244.281 170.529 244.238 170.231 244.249 170.034C244.094 169.919 244.036 169.846 243.996 169.855ZM238.45 184.717C237.056 184.891 235.661 185.065 234.115 185.257C234.021 181.368 233.935 177.671 233.845 173.91C236.814 173.039 239.78 172.169 243.193 171.165C241.517 175.967 240.004 180.291 238.45 184.717Z" fill="#666362"/>
<path d="M85.1482 49.799C86.1052 50.0218 87.0421 50.0263 88.0111 49.9416C89.0242 49.8525 90.0573 49.8391 91.0703 49.9372C92.2275 50.053 93.3527 50.3739 94.0774 51.5949C94.1215 51.6707 94.2496 51.6752 94.4578 51.7688C95.1986 50.6858 95.9554 49.5762 96.6961 48.4933C96.3678 48.1902 96.0995 47.9184 95.8112 47.6777C95.1706 47.1385 94.5499 46.5592 93.8692 46.1002C92.9883 45.5074 92.0553 45.0039 91.1384 44.478C89.5367 43.56 87.9551 42.5662 86.1733 42.1651C85.2963 41.969 85.1162 42.0359 84.6717 42.9049C84.2152 43.7917 83.8188 44.7187 83.3864 45.6189C82.8898 46.6528 82.3933 47.6822 81.5044 48.3685C81.3803 48.4665 81.3442 48.7205 81.2281 48.9968C81.5444 49.0949 81.7767 49.1929 82.0169 49.2375C83.058 49.4291 84.1111 49.5584 85.1482 49.799ZM84.8919 43.7471C85.4405 42.6197 85.5126 42.5261 86.5376 42.9628C87.911 43.5511 89.2604 44.2284 90.5938 44.9326C91.727 45.5297 92.8522 46.1625 93.9213 46.8889C94.626 47.3658 95.2346 48.0387 95.9313 48.6582C95.3908 49.4157 94.8943 50.111 94.3617 50.8552C93.3607 49.4514 91.9552 49.3043 90.5978 49.1395C89.7169 49.0325 88.816 49.2108 87.9231 49.2152C87.0982 49.2197 86.2653 49.2197 85.4445 49.1172C84.4595 48.9968 83.4865 48.7651 82.5255 48.5824C83.3343 46.9335 84.1151 45.3426 84.8919 43.7471Z" fill="#666362"/>
<path d="M85.1482 49.799C86.1052 50.0218 87.0421 50.0263 88.0111 49.9416C89.0242 49.8525 90.0573 49.8391 91.0703 49.9372C92.2275 50.053 93.3527 50.3739 94.0774 51.5949C94.1215 51.6707 94.2496 51.6752 94.4578 51.7688C95.1986 50.6858 95.9554 49.5762 96.6961 48.4933C96.3678 48.1902 96.0995 47.9184 95.8112 47.6777C95.1706 47.1385 94.5499 46.5592 93.8692 46.1002C92.9883 45.5074 92.0553 45.0039 91.1384 44.478C89.5367 43.56 87.9551 42.5662 86.1733 42.1651C85.2963 41.969 85.1162 42.0359 84.6717 42.9049C84.2152 43.7917 83.8188 44.7187 83.3864 45.6189C82.8898 46.6528 82.3933 47.6822 81.5044 48.3685C81.3803 48.4665 81.3442 48.7205 81.2281 48.9968C81.5444 49.0949 81.7767 49.1929 82.0169 49.2375C83.058 49.4291 84.1111 49.5584 85.1482 49.799ZM84.8919 43.7471C85.4405 42.6197 85.5126 42.5261 86.5376 42.9628C87.911 43.5511 89.2604 44.2284 90.5938 44.9326C91.727 45.5297 92.8522 46.1625 93.9213 46.8889C94.626 47.3658 95.2346 48.0387 95.9313 48.6582C95.3908 49.4157 94.8943 50.111 94.3617 50.8552C93.3607 49.4514 91.9552 49.3043 90.5978 49.1395C89.7169 49.0325 88.816 49.2108 87.9231 49.2152C87.0982 49.2197 86.2653 49.2197 85.4445 49.1172C84.4595 48.9968 83.4865 48.7651 82.5255 48.5824C83.3343 46.9335 84.1151 45.3426 84.8919 43.7471Z" fill="#666362"/>
<path d="M113.978 114.333C116.845 117.051 120.048 117.47 123.019 118.419C123.992 117.109 124.865 115.964 125.71 114.792C126.595 113.562 127.528 112.359 128.293 111.035C128.989 109.827 130.199 108.981 130.479 107.189C130.086 107.243 129.846 107.225 129.638 107.309C125.013 109.248 120.392 111.186 115.78 113.156C115.239 113.392 114.763 113.816 113.978 114.333ZM122.919 117.515C120.597 116.655 118.186 116.035 115.583 114.475C119.924 112.653 123.868 110.995 128.253 109.15C126.331 112.167 124.677 114.756 122.919 117.515Z" fill="#666362"/>
<path d="M117.314 114.333C120.181 117.051 123.384 117.47 126.355 118.419C127.328 117.109 128.201 115.964 129.046 114.792C129.931 113.562 130.864 112.359 131.628 111.035C132.325 109.827 133.534 108.981 133.815 107.189C133.422 107.243 133.182 107.225 132.974 107.309C128.349 109.248 123.728 111.186 119.115 113.156C118.575 113.392 118.098 113.816 117.314 114.333ZM126.255 117.515C123.932 116.655 121.522 116.035 118.919 114.475C123.26 112.653 127.204 110.995 131.588 109.15C129.666 112.167 128.013 114.756 126.255 117.515Z" fill="#666362"/>
<path d="M93.0604 115.3C91.9072 117.604 90.6899 124.204 91.0703 126.156C95.7792 123.785 100.476 121.419 105.173 119.052C105.249 116.869 105.249 116.882 103.507 116.552C100.092 115.901 96.7042 115.001 93.0604 115.3ZM104.132 118.5C100.144 120.46 96.1396 122.39 91.8912 124.449C92.3797 121.459 92.6279 118.602 93.8092 115.572C97.3889 116.262 100.852 116.931 104.468 117.626C104.312 118.045 104.28 118.428 104.132 118.5Z" fill="#666362"/>
<path d="M93.0604 115.3C91.9072 117.604 90.6899 124.204 91.0703 126.156C95.7792 123.785 100.476 121.419 105.173 119.052C105.249 116.869 105.249 116.882 103.507 116.552C100.092 115.901 96.7042 115.001 93.0604 115.3ZM104.132 118.5C100.144 120.46 96.1396 122.39 91.8912 124.449C92.3797 121.459 92.6279 118.602 93.8092 115.572C97.3889 116.262 100.852 116.931 104.468 117.626C104.312 118.045 104.28 118.428 104.132 118.5Z" fill="#666362"/>
<path d="M122.888 177.842C122.884 177.998 122.884 178.149 122.88 178.305C124.649 178.982 126.427 179.624 128.185 180.342C129.663 180.948 130.884 180.533 132.029 179.392C134.227 177.209 136.466 175.079 138.668 172.899C139.124 172.449 139.497 171.883 139.909 171.371C139.809 171.228 139.713 171.086 139.613 170.947C134.039 173.243 128.465 175.542 122.888 177.842ZM130.76 179.134C130.367 179.477 129.655 179.589 129.154 179.468C127.877 179.161 126.631 178.657 125.374 178.234C125.398 178.073 125.418 177.913 125.442 177.757C129.122 176.286 132.806 174.816 136.486 173.345C136.55 173.461 136.614 173.577 136.682 173.693C134.716 175.515 132.774 177.378 130.76 179.134Z" fill="#666362"/>
<path d="M122.888 177.842C122.884 177.998 122.884 178.149 122.88 178.305C124.649 178.982 126.427 179.624 128.185 180.342C129.663 180.948 130.884 180.533 132.029 179.392C134.227 177.209 136.466 175.079 138.668 172.899C139.124 172.449 139.497 171.883 139.909 171.371C139.809 171.228 139.713 171.086 139.613 170.947C134.039 173.243 128.465 175.542 122.888 177.842ZM130.76 179.134C130.367 179.477 129.655 179.589 129.154 179.468C127.877 179.161 126.631 178.657 125.374 178.234C125.398 178.073 125.418 177.913 125.442 177.757C129.122 176.286 132.806 174.816 136.486 173.345C136.55 173.461 136.614 173.577 136.682 173.693C134.716 175.515 132.774 177.378 130.76 179.134Z" fill="#666362"/>
</svg>
