<svg width="158" height="94" viewBox="0 0 158 94" fill="none" xmlns="http://www.w3.org/2000/svg">
<g filter="url(#filter0_d_519_7424)">
<mask id="path-1-outside-1_519_7424" maskUnits="userSpaceOnUse" x="4" y="0" width="150" height="87" fill="black">
<rect fill="white" x="4" width="150" height="87"/>
<path d="M113.455 86C109.252 86 105.168 84.799 101.205 82.3969C97.3011 80.0495 93.9682 76.1188 91.2057 70.605C90.0047 68.1484 89.0138 65.6644 88.2331 63.1532C87.5125 60.6419 86.972 58.2945 86.6117 56.1108C86.2514 53.9271 86.0712 52.1256 86.0712 50.7062C86.0712 48.9592 86.2814 47.9766 86.7018 47.7582C87.8428 47.8674 89.7344 47.4306 92.3768 46.448C95.0791 45.4653 98.2619 44.0186 101.925 42.1079C105.648 40.1972 109.642 37.9043 113.906 35.2293C118.229 32.4997 122.553 29.4425 126.877 26.0578C131.261 22.6731 135.465 19.0154 139.488 15.0848C143.512 11.1541 147.055 7.03244 150.117 2.71966C150.538 2.11914 150.868 1.6824 151.108 1.40944C151.349 1.13648 151.589 1 151.829 1C152.129 1 152.399 1.13648 152.64 1.40944C152.88 1.62781 153 1.87347 153 2.14644C153 2.58317 152.79 3.1018 152.369 3.70231C149.487 8.06969 146.064 12.3552 142.1 16.5588C138.197 20.7078 134.023 24.6111 129.579 28.2688C125.136 31.9265 120.662 35.2293 116.158 38.1773C111.654 41.1252 107.36 43.5819 103.276 45.5472C99.1927 47.5125 95.5896 48.85 92.4668 49.5597C92.2867 49.4505 92.1966 49.7235 92.1966 50.3786C92.1966 51.3067 92.4068 52.808 92.8272 54.8825C93.2475 56.9024 93.8781 59.2225 94.7188 61.843C95.6196 64.4088 96.7006 67.0292 97.9617 69.7042C100.244 74.5629 102.916 77.8931 105.979 79.6946C109.101 81.5507 112.314 82.4788 115.617 82.4788C117.719 82.4788 119.881 82.0967 122.103 81.3324C124.325 80.5681 126.367 79.5035 128.228 78.1387C130.09 76.8285 131.531 75.2726 132.552 73.4711C132.912 72.9252 133.183 72.6522 133.363 72.6522C133.783 72.6522 133.993 72.8706 133.993 73.3073C133.993 73.4711 133.933 73.6349 133.813 73.7987C133.753 74.017 133.573 74.4265 133.273 75.027C132.432 76.5556 131.021 78.166 129.039 79.8584C127.117 81.6053 124.805 83.052 122.103 84.1985C119.461 85.3995 116.578 86 113.455 86ZM36.9781 84.9355C32.8945 84.9355 28.931 84.4168 25.0876 83.3796C21.3043 82.3969 17.8813 80.9229 14.8186 78.9576C11.816 76.9923 9.41388 74.5902 7.6123 71.7514C5.87076 68.9127 5 65.6917 5 62.0886C5 59.4682 5.42037 57.148 6.26111 55.1281C7.1619 53.0536 8.24285 51.334 9.50396 49.9692C10.8251 48.6044 12.1163 47.5671 13.3774 46.8574C14.6985 46.1477 15.7795 45.7929 16.6202 45.7929C17.2207 45.7929 17.521 45.9566 17.521 46.2842C17.521 46.5572 17.3709 46.7755 17.0706 46.9393C15.6894 47.5944 14.2782 48.5498 12.8369 49.8054C11.3956 51.061 10.1946 52.6988 9.23372 54.7187C8.27287 56.7386 7.79245 59.2498 7.79245 62.2524C7.79245 65.5279 8.54311 68.3394 10.0444 70.6869C11.6058 72.9798 13.6176 74.8632 16.0797 76.3372C18.602 77.8112 21.3043 78.8757 24.1869 79.5308C27.0694 80.2405 29.8318 80.5954 32.4741 80.5954C38.3593 80.5954 43.8541 79.5581 48.9586 77.4836C54.0631 75.4091 58.7172 72.6522 62.9209 69.2129C67.1846 65.719 70.9379 61.843 74.1808 57.5848C77.4236 53.3266 80.096 49.0138 82.1978 44.6464C82.9785 43.0633 83.9093 41.1798 84.9903 38.9961C86.0712 36.7579 87.2422 34.3831 88.5034 31.8719C89.7645 29.3606 90.9955 26.904 92.1966 24.5019C93.3977 22.0999 94.4786 19.9435 95.4395 18.0328C96.4604 16.0674 97.2711 14.5662 97.8716 13.5289C93.8481 13.9656 89.4942 14.3751 84.8101 14.7572C80.186 15.0848 75.7722 15.7945 71.5685 16.8863C66.8844 18.0873 63.041 19.8343 60.0383 22.1272C57.0958 24.42 54.9038 26.904 53.4626 29.579C52.0814 32.254 51.3908 34.7653 51.3908 37.1127C51.3908 39.9515 52.1714 42.299 53.7328 44.1551C55.2942 45.9566 57.5462 46.8574 60.4887 46.8574C62.7107 46.8574 64.6924 46.2842 66.434 45.1378C68.1755 43.9367 69.5567 42.4082 70.5776 40.552C71.5985 38.6413 72.109 36.6214 72.109 34.4923C72.109 33.6188 72.0189 32.8818 71.8387 32.2813C71.6586 31.6808 71.5685 31.2168 71.5685 30.8892C71.5685 30.5071 71.7186 30.316 72.0189 30.316C72.4392 30.316 72.8296 30.6435 73.1899 31.2987C73.7904 32.5543 74.0907 33.7826 74.0907 34.9836C74.0907 37.5495 73.4001 39.8696 72.0189 41.9441C70.6377 43.964 68.8661 45.5745 66.7042 46.7755C64.5423 47.9766 62.2603 48.5771 59.8582 48.5771C57.0357 48.5771 54.5736 47.9766 52.4717 46.7755C50.4299 45.5199 48.8385 43.8821 47.6975 41.8622C46.5565 39.8423 45.986 37.6586 45.986 35.3112C45.986 32.6362 46.7967 29.9338 48.4181 27.2042C50.0396 24.42 52.6519 21.9088 56.255 19.6705C59.8582 17.3776 64.6023 15.6307 70.4875 14.4297C75.4119 13.447 80.4263 12.8192 85.5307 12.5462C90.6352 12.2187 95.1392 11.8911 99.0426 11.5636C101.144 8.61561 102.856 6.75947 104.177 5.99518C105.498 5.1763 106.699 4.76686 107.78 4.76686C108.861 4.76686 109.702 5.03982 110.303 5.58574C110.963 6.13166 111.293 6.78677 111.293 7.55106C111.293 8.6429 110.453 9.81664 108.771 11.0723C107.15 12.2733 104.387 13.0649 100.484 13.447C98.5622 16.668 96.7906 20.271 95.1692 24.2563C93.5478 28.1869 91.9264 32.3086 90.3049 36.6214C88.6835 40.9342 86.912 45.2197 84.9903 49.4778C81.7474 56.5748 77.904 62.7983 73.4601 68.1484C69.0162 73.4438 63.7917 77.5655 57.7864 80.5135C51.7811 83.4615 44.845 84.9355 36.9781 84.9355ZM102.195 11.3998C103.697 11.2906 105.138 10.9085 106.519 10.2534C107.9 9.54368 108.591 8.77939 108.591 7.9605C108.591 7.41458 108.291 7.14162 107.69 7.14162C107.15 7.14162 106.399 7.46917 105.438 8.12428C104.477 8.72479 103.396 9.81664 102.195 11.3998Z"/>
<path d="M120.853 74.6994C119.111 74.6994 117.46 74.3991 115.898 73.7986C114.337 73.1981 113.046 72.2973 112.025 71.0963C111.064 69.8953 110.584 68.4213 110.584 66.6743C110.584 64.709 111.214 62.771 112.475 60.8603C113.797 58.895 115.448 57.0115 117.43 55.21C119.412 53.3539 121.423 51.6615 123.465 50.1329C125.567 48.6043 127.429 47.3214 129.05 46.2842C127.969 44.1551 127.429 41.9441 127.429 39.6512C127.429 37.2492 128.149 35.0382 129.59 33.0183C131.032 30.9984 132.923 29.3879 135.265 28.1869C137.607 26.9312 140.07 26.3034 142.652 26.3034C144.934 26.3034 146.886 26.7948 148.507 27.7774C150.189 28.7601 151.029 30.3433 151.029 32.5269C151.029 34.2739 150.549 35.9935 149.588 37.6859C148.687 39.3237 147.516 40.9341 146.075 42.5173C144.694 44.0459 143.222 45.4653 141.661 46.7755C140.1 48.0857 138.658 49.2594 137.337 50.2967C138.178 51.9891 138.658 53.5176 138.779 54.8824C138.959 56.1926 139.049 57.7485 139.049 59.5501C139.049 61.6246 138.508 63.5899 137.427 65.446C136.346 67.2476 134.935 68.858 133.194 70.2774C131.452 71.6422 129.5 72.7341 127.338 73.553C125.177 74.3172 123.015 74.6994 120.853 74.6994ZM136.617 48.6589C138.298 47.4579 139.98 45.9839 141.661 44.237C143.343 42.49 144.754 40.6066 145.895 38.5867C147.096 36.5668 147.696 34.5469 147.696 32.5269C147.696 29.4698 146.075 27.9412 142.832 27.9412C141.091 27.9412 139.499 28.3779 138.058 29.2514C136.617 30.1249 135.476 31.244 134.635 32.6088C133.794 33.9736 133.374 35.4203 133.374 36.9489C133.374 38.7505 133.734 40.7431 134.455 42.9268C135.235 45.1104 135.956 47.0212 136.617 48.6589ZM121.033 72.9797C123.315 72.9797 125.357 72.3792 127.158 71.1782C129.02 69.9772 130.491 68.4486 131.572 66.5925C132.713 64.7363 133.284 62.8256 133.284 60.8603C133.284 58.8404 132.863 56.6567 132.023 54.3092C131.182 51.9072 130.311 49.7508 129.41 47.84C127.308 49.2594 125.117 50.9518 122.835 52.9171C120.553 54.8824 118.601 57.0388 116.979 59.3863C115.418 61.7338 114.637 64.245 114.637 66.92C114.637 68.7216 115.178 70.1955 116.259 71.342C117.34 72.4338 118.931 72.9797 121.033 72.9797Z"/>
</mask>
<path d="M113.455 86C109.252 86 105.168 84.799 101.205 82.3969C97.3011 80.0495 93.9682 76.1188 91.2057 70.605C90.0047 68.1484 89.0138 65.6644 88.2331 63.1532C87.5125 60.6419 86.972 58.2945 86.6117 56.1108C86.2514 53.9271 86.0712 52.1256 86.0712 50.7062C86.0712 48.9592 86.2814 47.9766 86.7018 47.7582C87.8428 47.8674 89.7344 47.4306 92.3768 46.448C95.0791 45.4653 98.2619 44.0186 101.925 42.1079C105.648 40.1972 109.642 37.9043 113.906 35.2293C118.229 32.4997 122.553 29.4425 126.877 26.0578C131.261 22.6731 135.465 19.0154 139.488 15.0848C143.512 11.1541 147.055 7.03244 150.117 2.71966C150.538 2.11914 150.868 1.6824 151.108 1.40944C151.349 1.13648 151.589 1 151.829 1C152.129 1 152.399 1.13648 152.64 1.40944C152.88 1.62781 153 1.87347 153 2.14644C153 2.58317 152.79 3.1018 152.369 3.70231C149.487 8.06969 146.064 12.3552 142.1 16.5588C138.197 20.7078 134.023 24.6111 129.579 28.2688C125.136 31.9265 120.662 35.2293 116.158 38.1773C111.654 41.1252 107.36 43.5819 103.276 45.5472C99.1927 47.5125 95.5896 48.85 92.4668 49.5597C92.2867 49.4505 92.1966 49.7235 92.1966 50.3786C92.1966 51.3067 92.4068 52.808 92.8272 54.8825C93.2475 56.9024 93.8781 59.2225 94.7188 61.843C95.6196 64.4088 96.7006 67.0292 97.9617 69.7042C100.244 74.5629 102.916 77.8931 105.979 79.6946C109.101 81.5507 112.314 82.4788 115.617 82.4788C117.719 82.4788 119.881 82.0967 122.103 81.3324C124.325 80.5681 126.367 79.5035 128.228 78.1387C130.09 76.8285 131.531 75.2726 132.552 73.4711C132.912 72.9252 133.183 72.6522 133.363 72.6522C133.783 72.6522 133.993 72.8706 133.993 73.3073C133.993 73.4711 133.933 73.6349 133.813 73.7987C133.753 74.017 133.573 74.4265 133.273 75.027C132.432 76.5556 131.021 78.166 129.039 79.8584C127.117 81.6053 124.805 83.052 122.103 84.1985C119.461 85.3995 116.578 86 113.455 86ZM36.9781 84.9355C32.8945 84.9355 28.931 84.4168 25.0876 83.3796C21.3043 82.3969 17.8813 80.9229 14.8186 78.9576C11.816 76.9923 9.41388 74.5902 7.6123 71.7514C5.87076 68.9127 5 65.6917 5 62.0886C5 59.4682 5.42037 57.148 6.26111 55.1281C7.1619 53.0536 8.24285 51.334 9.50396 49.9692C10.8251 48.6044 12.1163 47.5671 13.3774 46.8574C14.6985 46.1477 15.7795 45.7929 16.6202 45.7929C17.2207 45.7929 17.521 45.9566 17.521 46.2842C17.521 46.5572 17.3709 46.7755 17.0706 46.9393C15.6894 47.5944 14.2782 48.5498 12.8369 49.8054C11.3956 51.061 10.1946 52.6988 9.23372 54.7187C8.27287 56.7386 7.79245 59.2498 7.79245 62.2524C7.79245 65.5279 8.54311 68.3394 10.0444 70.6869C11.6058 72.9798 13.6176 74.8632 16.0797 76.3372C18.602 77.8112 21.3043 78.8757 24.1869 79.5308C27.0694 80.2405 29.8318 80.5954 32.4741 80.5954C38.3593 80.5954 43.8541 79.5581 48.9586 77.4836C54.0631 75.4091 58.7172 72.6522 62.9209 69.2129C67.1846 65.719 70.9379 61.843 74.1808 57.5848C77.4236 53.3266 80.096 49.0138 82.1978 44.6464C82.9785 43.0633 83.9093 41.1798 84.9903 38.9961C86.0712 36.7579 87.2422 34.3831 88.5034 31.8719C89.7645 29.3606 90.9955 26.904 92.1966 24.5019C93.3977 22.0999 94.4786 19.9435 95.4395 18.0328C96.4604 16.0674 97.2711 14.5662 97.8716 13.5289C93.8481 13.9656 89.4942 14.3751 84.8101 14.7572C80.186 15.0848 75.7722 15.7945 71.5685 16.8863C66.8844 18.0873 63.041 19.8343 60.0383 22.1272C57.0958 24.42 54.9038 26.904 53.4626 29.579C52.0814 32.254 51.3908 34.7653 51.3908 37.1127C51.3908 39.9515 52.1714 42.299 53.7328 44.1551C55.2942 45.9566 57.5462 46.8574 60.4887 46.8574C62.7107 46.8574 64.6924 46.2842 66.434 45.1378C68.1755 43.9367 69.5567 42.4082 70.5776 40.552C71.5985 38.6413 72.109 36.6214 72.109 34.4923C72.109 33.6188 72.0189 32.8818 71.8387 32.2813C71.6586 31.6808 71.5685 31.2168 71.5685 30.8892C71.5685 30.5071 71.7186 30.316 72.0189 30.316C72.4392 30.316 72.8296 30.6435 73.1899 31.2987C73.7904 32.5543 74.0907 33.7826 74.0907 34.9836C74.0907 37.5495 73.4001 39.8696 72.0189 41.9441C70.6377 43.964 68.8661 45.5745 66.7042 46.7755C64.5423 47.9766 62.2603 48.5771 59.8582 48.5771C57.0357 48.5771 54.5736 47.9766 52.4717 46.7755C50.4299 45.5199 48.8385 43.8821 47.6975 41.8622C46.5565 39.8423 45.986 37.6586 45.986 35.3112C45.986 32.6362 46.7967 29.9338 48.4181 27.2042C50.0396 24.42 52.6519 21.9088 56.255 19.6705C59.8582 17.3776 64.6023 15.6307 70.4875 14.4297C75.4119 13.447 80.4263 12.8192 85.5307 12.5462C90.6352 12.2187 95.1392 11.8911 99.0426 11.5636C101.144 8.61561 102.856 6.75947 104.177 5.99518C105.498 5.1763 106.699 4.76686 107.78 4.76686C108.861 4.76686 109.702 5.03982 110.303 5.58574C110.963 6.13166 111.293 6.78677 111.293 7.55106C111.293 8.6429 110.453 9.81664 108.771 11.0723C107.15 12.2733 104.387 13.0649 100.484 13.447C98.5622 16.668 96.7906 20.271 95.1692 24.2563C93.5478 28.1869 91.9264 32.3086 90.3049 36.6214C88.6835 40.9342 86.912 45.2197 84.9903 49.4778C81.7474 56.5748 77.904 62.7983 73.4601 68.1484C69.0162 73.4438 63.7917 77.5655 57.7864 80.5135C51.7811 83.4615 44.845 84.9355 36.9781 84.9355ZM102.195 11.3998C103.697 11.2906 105.138 10.9085 106.519 10.2534C107.9 9.54368 108.591 8.77939 108.591 7.9605C108.591 7.41458 108.291 7.14162 107.69 7.14162C107.15 7.14162 106.399 7.46917 105.438 8.12428C104.477 8.72479 103.396 9.81664 102.195 11.3998Z" fill="#F8F9F5"/>
<path d="M120.853 74.6994C119.111 74.6994 117.46 74.3991 115.898 73.7986C114.337 73.1981 113.046 72.2973 112.025 71.0963C111.064 69.8953 110.584 68.4213 110.584 66.6743C110.584 64.709 111.214 62.771 112.475 60.8603C113.797 58.895 115.448 57.0115 117.43 55.21C119.412 53.3539 121.423 51.6615 123.465 50.1329C125.567 48.6043 127.429 47.3214 129.05 46.2842C127.969 44.1551 127.429 41.9441 127.429 39.6512C127.429 37.2492 128.149 35.0382 129.59 33.0183C131.032 30.9984 132.923 29.3879 135.265 28.1869C137.607 26.9312 140.07 26.3034 142.652 26.3034C144.934 26.3034 146.886 26.7948 148.507 27.7774C150.189 28.7601 151.029 30.3433 151.029 32.5269C151.029 34.2739 150.549 35.9935 149.588 37.6859C148.687 39.3237 147.516 40.9341 146.075 42.5173C144.694 44.0459 143.222 45.4653 141.661 46.7755C140.1 48.0857 138.658 49.2594 137.337 50.2967C138.178 51.9891 138.658 53.5176 138.779 54.8824C138.959 56.1926 139.049 57.7485 139.049 59.5501C139.049 61.6246 138.508 63.5899 137.427 65.446C136.346 67.2476 134.935 68.858 133.194 70.2774C131.452 71.6422 129.5 72.7341 127.338 73.553C125.177 74.3172 123.015 74.6994 120.853 74.6994ZM136.617 48.6589C138.298 47.4579 139.98 45.9839 141.661 44.237C143.343 42.49 144.754 40.6066 145.895 38.5867C147.096 36.5668 147.696 34.5469 147.696 32.5269C147.696 29.4698 146.075 27.9412 142.832 27.9412C141.091 27.9412 139.499 28.3779 138.058 29.2514C136.617 30.1249 135.476 31.244 134.635 32.6088C133.794 33.9736 133.374 35.4203 133.374 36.9489C133.374 38.7505 133.734 40.7431 134.455 42.9268C135.235 45.1104 135.956 47.0212 136.617 48.6589ZM121.033 72.9797C123.315 72.9797 125.357 72.3792 127.158 71.1782C129.02 69.9772 130.491 68.4486 131.572 66.5925C132.713 64.7363 133.284 62.8256 133.284 60.8603C133.284 58.8404 132.863 56.6567 132.023 54.3092C131.182 51.9072 130.311 49.7508 129.41 47.84C127.308 49.2594 125.117 50.9518 122.835 52.9171C120.553 54.8824 118.601 57.0388 116.979 59.3863C115.418 61.7338 114.637 64.245 114.637 66.92C114.637 68.7216 115.178 70.1955 116.259 71.342C117.34 72.4338 118.931 72.9797 121.033 72.9797Z" fill="#F8F9F5"/>
<path d="M113.455 86C109.252 86 105.168 84.799 101.205 82.3969C97.3011 80.0495 93.9682 76.1188 91.2057 70.605C90.0047 68.1484 89.0138 65.6644 88.2331 63.1532C87.5125 60.6419 86.972 58.2945 86.6117 56.1108C86.2514 53.9271 86.0712 52.1256 86.0712 50.7062C86.0712 48.9592 86.2814 47.9766 86.7018 47.7582C87.8428 47.8674 89.7344 47.4306 92.3768 46.448C95.0791 45.4653 98.2619 44.0186 101.925 42.1079C105.648 40.1972 109.642 37.9043 113.906 35.2293C118.229 32.4997 122.553 29.4425 126.877 26.0578C131.261 22.6731 135.465 19.0154 139.488 15.0848C143.512 11.1541 147.055 7.03244 150.117 2.71966C150.538 2.11914 150.868 1.6824 151.108 1.40944C151.349 1.13648 151.589 1 151.829 1C152.129 1 152.399 1.13648 152.64 1.40944C152.88 1.62781 153 1.87347 153 2.14644C153 2.58317 152.79 3.1018 152.369 3.70231C149.487 8.06969 146.064 12.3552 142.1 16.5588C138.197 20.7078 134.023 24.6111 129.579 28.2688C125.136 31.9265 120.662 35.2293 116.158 38.1773C111.654 41.1252 107.36 43.5819 103.276 45.5472C99.1927 47.5125 95.5896 48.85 92.4668 49.5597C92.2867 49.4505 92.1966 49.7235 92.1966 50.3786C92.1966 51.3067 92.4068 52.808 92.8272 54.8825C93.2475 56.9024 93.8781 59.2225 94.7188 61.843C95.6196 64.4088 96.7006 67.0292 97.9617 69.7042C100.244 74.5629 102.916 77.8931 105.979 79.6946C109.101 81.5507 112.314 82.4788 115.617 82.4788C117.719 82.4788 119.881 82.0967 122.103 81.3324C124.325 80.5681 126.367 79.5035 128.228 78.1387C130.09 76.8285 131.531 75.2726 132.552 73.4711C132.912 72.9252 133.183 72.6522 133.363 72.6522C133.783 72.6522 133.993 72.8706 133.993 73.3073C133.993 73.4711 133.933 73.6349 133.813 73.7987C133.753 74.017 133.573 74.4265 133.273 75.027C132.432 76.5556 131.021 78.166 129.039 79.8584C127.117 81.6053 124.805 83.052 122.103 84.1985C119.461 85.3995 116.578 86 113.455 86ZM36.9781 84.9355C32.8945 84.9355 28.931 84.4168 25.0876 83.3796C21.3043 82.3969 17.8813 80.9229 14.8186 78.9576C11.816 76.9923 9.41388 74.5902 7.6123 71.7514C5.87076 68.9127 5 65.6917 5 62.0886C5 59.4682 5.42037 57.148 6.26111 55.1281C7.1619 53.0536 8.24285 51.334 9.50396 49.9692C10.8251 48.6044 12.1163 47.5671 13.3774 46.8574C14.6985 46.1477 15.7795 45.7929 16.6202 45.7929C17.2207 45.7929 17.521 45.9566 17.521 46.2842C17.521 46.5572 17.3709 46.7755 17.0706 46.9393C15.6894 47.5944 14.2782 48.5498 12.8369 49.8054C11.3956 51.061 10.1946 52.6988 9.23372 54.7187C8.27287 56.7386 7.79245 59.2498 7.79245 62.2524C7.79245 65.5279 8.54311 68.3394 10.0444 70.6869C11.6058 72.9798 13.6176 74.8632 16.0797 76.3372C18.602 77.8112 21.3043 78.8757 24.1869 79.5308C27.0694 80.2405 29.8318 80.5954 32.4741 80.5954C38.3593 80.5954 43.8541 79.5581 48.9586 77.4836C54.0631 75.4091 58.7172 72.6522 62.9209 69.2129C67.1846 65.719 70.9379 61.843 74.1808 57.5848C77.4236 53.3266 80.096 49.0138 82.1978 44.6464C82.9785 43.0633 83.9093 41.1798 84.9903 38.9961C86.0712 36.7579 87.2422 34.3831 88.5034 31.8719C89.7645 29.3606 90.9955 26.904 92.1966 24.5019C93.3977 22.0999 94.4786 19.9435 95.4395 18.0328C96.4604 16.0674 97.2711 14.5662 97.8716 13.5289C93.8481 13.9656 89.4942 14.3751 84.8101 14.7572C80.186 15.0848 75.7722 15.7945 71.5685 16.8863C66.8844 18.0873 63.041 19.8343 60.0383 22.1272C57.0958 24.42 54.9038 26.904 53.4626 29.579C52.0814 32.254 51.3908 34.7653 51.3908 37.1127C51.3908 39.9515 52.1714 42.299 53.7328 44.1551C55.2942 45.9566 57.5462 46.8574 60.4887 46.8574C62.7107 46.8574 64.6924 46.2842 66.434 45.1378C68.1755 43.9367 69.5567 42.4082 70.5776 40.552C71.5985 38.6413 72.109 36.6214 72.109 34.4923C72.109 33.6188 72.0189 32.8818 71.8387 32.2813C71.6586 31.6808 71.5685 31.2168 71.5685 30.8892C71.5685 30.5071 71.7186 30.316 72.0189 30.316C72.4392 30.316 72.8296 30.6435 73.1899 31.2987C73.7904 32.5543 74.0907 33.7826 74.0907 34.9836C74.0907 37.5495 73.4001 39.8696 72.0189 41.9441C70.6377 43.964 68.8661 45.5745 66.7042 46.7755C64.5423 47.9766 62.2603 48.5771 59.8582 48.5771C57.0357 48.5771 54.5736 47.9766 52.4717 46.7755C50.4299 45.5199 48.8385 43.8821 47.6975 41.8622C46.5565 39.8423 45.986 37.6586 45.986 35.3112C45.986 32.6362 46.7967 29.9338 48.4181 27.2042C50.0396 24.42 52.6519 21.9088 56.255 19.6705C59.8582 17.3776 64.6023 15.6307 70.4875 14.4297C75.4119 13.447 80.4263 12.8192 85.5307 12.5462C90.6352 12.2187 95.1392 11.8911 99.0426 11.5636C101.144 8.61561 102.856 6.75947 104.177 5.99518C105.498 5.1763 106.699 4.76686 107.78 4.76686C108.861 4.76686 109.702 5.03982 110.303 5.58574C110.963 6.13166 111.293 6.78677 111.293 7.55106C111.293 8.6429 110.453 9.81664 108.771 11.0723C107.15 12.2733 104.387 13.0649 100.484 13.447C98.5622 16.668 96.7906 20.271 95.1692 24.2563C93.5478 28.1869 91.9264 32.3086 90.3049 36.6214C88.6835 40.9342 86.912 45.2197 84.9903 49.4778C81.7474 56.5748 77.904 62.7983 73.4601 68.1484C69.0162 73.4438 63.7917 77.5655 57.7864 80.5135C51.7811 83.4615 44.845 84.9355 36.9781 84.9355ZM102.195 11.3998C103.697 11.2906 105.138 10.9085 106.519 10.2534C107.9 9.54368 108.591 8.77939 108.591 7.9605C108.591 7.41458 108.291 7.14162 107.69 7.14162C107.15 7.14162 106.399 7.46917 105.438 8.12428C104.477 8.72479 103.396 9.81664 102.195 11.3998Z" stroke="#81D8D0" stroke-width="2" mask="url(#path-1-outside-1_519_7424)"/>
<path d="M120.853 74.6994C119.111 74.6994 117.46 74.3991 115.898 73.7986C114.337 73.1981 113.046 72.2973 112.025 71.0963C111.064 69.8953 110.584 68.4213 110.584 66.6743C110.584 64.709 111.214 62.771 112.475 60.8603C113.797 58.895 115.448 57.0115 117.43 55.21C119.412 53.3539 121.423 51.6615 123.465 50.1329C125.567 48.6043 127.429 47.3214 129.05 46.2842C127.969 44.1551 127.429 41.9441 127.429 39.6512C127.429 37.2492 128.149 35.0382 129.59 33.0183C131.032 30.9984 132.923 29.3879 135.265 28.1869C137.607 26.9312 140.07 26.3034 142.652 26.3034C144.934 26.3034 146.886 26.7948 148.507 27.7774C150.189 28.7601 151.029 30.3433 151.029 32.5269C151.029 34.2739 150.549 35.9935 149.588 37.6859C148.687 39.3237 147.516 40.9341 146.075 42.5173C144.694 44.0459 143.222 45.4653 141.661 46.7755C140.1 48.0857 138.658 49.2594 137.337 50.2967C138.178 51.9891 138.658 53.5176 138.779 54.8824C138.959 56.1926 139.049 57.7485 139.049 59.5501C139.049 61.6246 138.508 63.5899 137.427 65.446C136.346 67.2476 134.935 68.858 133.194 70.2774C131.452 71.6422 129.5 72.7341 127.338 73.553C125.177 74.3172 123.015 74.6994 120.853 74.6994ZM136.617 48.6589C138.298 47.4579 139.98 45.9839 141.661 44.237C143.343 42.49 144.754 40.6066 145.895 38.5867C147.096 36.5668 147.696 34.5469 147.696 32.5269C147.696 29.4698 146.075 27.9412 142.832 27.9412C141.091 27.9412 139.499 28.3779 138.058 29.2514C136.617 30.1249 135.476 31.244 134.635 32.6088C133.794 33.9736 133.374 35.4203 133.374 36.9489C133.374 38.7505 133.734 40.7431 134.455 42.9268C135.235 45.1104 135.956 47.0212 136.617 48.6589ZM121.033 72.9797C123.315 72.9797 125.357 72.3792 127.158 71.1782C129.02 69.9772 130.491 68.4486 131.572 66.5925C132.713 64.7363 133.284 62.8256 133.284 60.8603C133.284 58.8404 132.863 56.6567 132.023 54.3092C131.182 51.9072 130.311 49.7508 129.41 47.84C127.308 49.2594 125.117 50.9518 122.835 52.9171C120.553 54.8824 118.601 57.0388 116.979 59.3863C115.418 61.7338 114.637 64.245 114.637 66.92C114.637 68.7216 115.178 70.1955 116.259 71.342C117.34 72.4338 118.931 72.9797 121.033 72.9797Z" stroke="#81D8D0" stroke-width="2" mask="url(#path-1-outside-1_519_7424)"/>
</g>
<defs>
<filter id="filter0_d_519_7424" x="0" y="0" width="158" height="95" filterUnits="userSpaceOnUse" color-interpolation-filters="sRGB">
<feFlood flood-opacity="0" result="BackgroundImageFix"/>
<feColorMatrix in="SourceAlpha" type="matrix" values="0 0 0 0 0 0 0 0 0 0 0 0 0 0 0 0 0 0 127 0" result="hardAlpha"/>
<feOffset dy="4"/>
<feGaussianBlur stdDeviation="2"/>
<feComposite in2="hardAlpha" operator="out"/>
<feColorMatrix type="matrix" values="0 0 0 0 0 0 0 0 0 0 0 0 0 0 0 0 0 0 0.25 0"/>
<feBlend mode="normal" in2="BackgroundImageFix" result="effect1_dropShadow_519_7424"/>
<feBlend mode="normal" in="SourceGraphic" in2="effect1_dropShadow_519_7424" result="shape"/>
</filter>
</defs>
</svg>
