<svg width="202" height="68" viewBox="0 0 272 88" fill="none" xmlns="http://www.w3.org/2000/svg">
<path d="M121.64 42.1075H53.6L47.93 47.7775H29.03L13.91 32.6575H4.46M121.64 40.2175H64.94L59.27 34.5475H42.26L19.58 11.8675M14.9117 58.1158L19.58 53.4475H36.59L38.48 55.3375H42.26L44.15 53.4475H46.04L55.49 43.9975H121.64M121.64 38.3275H76.28L66.83 28.8775V13.7575L70.61 9.97749M121.64 45.8875H68.72L63.05 51.5575H53.6L31.9217 73.2358M55.49 62.8975L70.61 47.7775H121.64M121.64 49.6675H85.73L78.17 57.2275H74.39L64.94 66.6775V74.71M64.94 74.71C65.7229 74.71 66.3575 75.3446 66.3575 76.1275C66.3575 76.9104 65.7229 77.545 64.94 77.545C64.1571 77.545 63.5225 76.9104 63.5225 76.1275C63.5225 75.3446 64.1571 74.71 64.94 74.71ZM76.7525 51.5575H72.5L57.38 66.6775H49.3475M76.7525 51.5575C76.7525 52.3404 77.3871 52.975 78.17 52.975C78.9529 52.975 79.5875 52.3404 79.5875 51.5575C79.5875 50.7746 78.9529 50.14 78.17 50.14C77.3871 50.14 76.7525 50.7746 76.7525 51.5575ZM49.3475 66.6775C49.3475 65.8946 48.7129 65.26 47.93 65.26C47.1471 65.26 46.5125 65.8946 46.5125 66.6775C46.5125 67.4603 47.1471 68.095 47.93 68.095C48.7129 68.095 49.3475 67.4604 49.3475 66.6775ZM47.93 85.5775L55.49 78.0175V72.3475L72.5 55.3375M65.8321 33.5496L59.27 26.9875H51.71L42.26 17.5375V4.30749L43.1483 3.41918M17.69 74.2375V70.4575L21.47 66.6775H30.92L38.48 59.1175H42.26L53.6 47.7775H59.27M59.27 47.7775C59.27 48.8213 60.1162 49.6675 61.16 49.6675C62.2038 49.6675 63.05 48.8213 63.05 47.7775C63.05 46.7337 62.2038 45.8875 61.16 45.8875C60.1162 45.8875 59.27 46.7337 59.27 47.7775ZM38.9525 51.5575H25.25L17.69 43.9975H12.02L5.4617 50.5558M38.9525 51.5575C38.9525 52.3404 39.5871 52.975 40.37 52.975C41.1529 52.975 41.7875 52.3404 41.7875 51.5575C41.7875 50.7746 41.1529 50.14 40.37 50.14C39.5871 50.14 38.9525 50.7746 38.9525 51.5575ZM53.6 38.3275H49.82L42.26 45.8875H29.03L13.91 30.7675V26.515M53.6 38.3275C53.6 39.3713 54.4462 40.2175 55.49 40.2175C56.5338 40.2175 57.38 39.3713 57.38 38.3275C57.38 37.2837 56.5338 36.4375 55.49 36.4375C54.4462 36.4375 53.6 37.2837 53.6 38.3275ZM13.91 26.515C14.6929 26.515 15.3275 25.8804 15.3275 25.0975C15.3275 24.3146 14.6929 23.68 13.91 23.68C13.1271 23.68 12.4925 24.3146 12.4925 25.0975C12.4925 25.8804 13.1271 26.515 13.91 26.515ZM44.6225 30.7675H40.37L27.14 17.5375V13.7575L34.7 6.19751M44.6225 30.7675C44.6225 31.5504 45.2571 32.185 46.04 32.185C46.8229 32.185 47.4575 31.5504 47.4575 30.7675C47.4575 29.9846 46.8229 29.35 46.04 29.35C45.2571 29.35 44.6225 29.9846 44.6225 30.7675ZM54.0725 57.2275H51.71L40.37 68.5675V78.0175M54.0725 57.2275C54.0725 58.0104 54.7071 58.645 55.49 58.645C56.2729 58.645 56.9075 58.0104 56.9075 57.2275C56.9075 56.4446 56.2729 55.81 55.49 55.81C54.7071 55.81 54.0725 56.4446 54.0725 57.2275ZM55.49 30.7675H51.71L46.04 25.0975H40.37L34.7 19.4275V13.285M34.7 13.285C35.4829 13.285 36.1175 12.6503 36.1175 11.8675C36.1175 11.0846 35.4829 10.45 34.7 10.45C33.9171 10.45 33.2825 11.0846 33.2825 11.8675C33.2825 12.6503 33.9171 13.285 34.7 13.285ZM38.48 40.2175V36.4375L30.92 28.8775H25.25M38.48 40.2175C39.5238 40.2175 40.37 41.0637 40.37 42.1075C40.37 43.1513 39.5238 43.9975 38.48 43.9975C37.4362 43.9975 36.59 43.1513 36.59 42.1075C36.59 41.0637 37.4362 40.2175 38.48 40.2175ZM25.25 28.8775C25.25 27.8337 24.4038 26.9875 23.36 26.9875C22.3162 26.9875 21.47 27.8337 21.47 28.8775C21.47 29.9213 22.3162 30.7675 23.36 30.7675C24.4038 30.7675 25.25 29.9213 25.25 28.8775ZM29.9221 37.3296L27.14 34.5475H23.36L17.69 28.8775V21.3175L14.9117 18.5392M61.16 21.3175L57.38 17.5375V11.8675L52.655 7.1425H47.93L45.5675 9.505V13.7575L47.6957 15.8819M51.71 13.285V19.4275L57.38 25.0975H63.05M51.71 13.285C52.4929 13.285 53.1275 12.6503 53.1275 11.8675C53.1275 11.0846 52.4929 10.45 51.71 10.45C50.9271 10.45 50.2925 11.0846 50.2925 11.8675C50.2925 12.6503 50.9271 13.285 51.71 13.285ZM121.64 36.4375H91.4L83.84 28.8775H75.8075M75.8075 28.8775C75.8075 28.0946 75.1729 27.46 74.39 27.46C73.6071 27.46 72.9725 28.0946 72.9725 28.8775C72.9725 29.6604 73.6071 30.295 74.39 30.295C75.1729 30.295 75.8075 29.6604 75.8075 28.8775ZM121.64 51.5575H87.62L78.17 61.0075V67.15M78.17 67.15C78.9529 67.15 79.5875 67.7846 79.5875 68.5675C79.5875 69.3504 78.9529 69.985 78.17 69.985C77.3871 69.985 76.7525 69.3504 76.7525 68.5675C76.7525 67.7846 77.3871 67.15 78.17 67.15ZM31.3925 59.1175H23.36L19.58 62.8975M31.3925 59.1175C31.3925 59.9003 32.0271 60.535 32.81 60.535C33.5929 60.535 34.2275 59.9004 34.2275 59.1175C34.2275 58.3346 33.5929 57.7 32.81 57.7C32.0271 57.7 31.3925 58.3346 31.3925 59.1175ZM48.8183 75.2392L42.26 81.7975H34.7L33.8117 80.9092M23.36 72.3475V79.9075L20.525 82.7425M23.36 72.3475C24.4038 72.3475 25.25 71.5013 25.25 70.4575C25.25 69.4137 24.4038 68.5675 23.36 68.5675C22.3162 68.5675 21.47 69.4137 21.47 70.4575C21.47 71.5013 22.3162 72.3475 23.36 72.3475ZM121.145 51.5575H126.815L134.375 59.1175H264.465M121.145 49.6675H126.815L132.485 55.3375H264.465M121.145 47.7775H126.815L130.595 51.5575H264.465M121.145 45.8875H126.815L128.705 47.7775H264.465M121.145 43.9975H264.465M121.145 42.1075H126.815L128.705 40.2175H264.465M121.145 40.2175H126.815L130.595 36.4375H264.465M121.145 38.3275H126.815L132.485 32.6575H264.465M121.145 36.4375H126.815L134.375 28.8775H264.465M71.5 5.71749C73.433 5.71749 75 7.2845 75 9.21749C75 11.1505 73.433 12.7175 71.5 12.7175C69.567 12.7175 68 11.1505 68 9.21749C68 7.2845 69.567 5.71749 71.5 5.71749ZM70.61 8.08749C71.6538 8.08749 72.5 8.93367 72.5 9.97749C72.5 11.0213 71.6538 11.8675 70.61 11.8675C69.5662 11.8675 68.72 11.0213 68.72 9.97749C68.72 8.93367 69.5662 8.08749 70.61 8.08749ZM66.83 33.13C67.6129 33.13 68.2475 33.7646 68.2475 34.5475C68.2475 35.3304 67.6129 35.965 66.83 35.965C66.0471 35.965 65.4125 35.3304 65.4125 34.5475C65.4125 33.7646 66.0471 33.13 66.83 33.13ZM47.93 13.7575C48.9738 13.7575 49.82 14.6037 49.82 15.6475C49.82 16.6913 48.9738 17.5375 47.93 17.5375C46.8862 17.5375 46.04 16.6913 46.04 15.6475C46.04 14.6037 46.8862 13.7575 47.93 13.7575ZM61.16 19.4275C62.2038 19.4275 63.05 20.2737 63.05 21.3175C63.05 22.3613 62.2038 23.2075 61.16 23.2075C60.1162 23.2075 59.27 22.3613 59.27 21.3175C59.27 20.2737 60.1162 19.4275 61.16 19.4275ZM63.05 23.2075C64.0938 23.2075 64.94 24.0537 64.94 25.0975C64.94 26.1413 64.0938 26.9875 63.05 26.9875C62.0062 26.9875 61.16 26.1413 61.16 25.0975C61.16 24.0537 62.0062 23.2075 63.05 23.2075ZM19.58 61.0075C20.6238 61.0075 21.47 61.8537 21.47 62.8975C21.47 63.9413 20.6238 64.7875 19.58 64.7875C18.5362 64.7875 17.69 63.9413 17.69 62.8975C17.69 61.8537 18.5362 61.0075 19.58 61.0075ZM13.91 57.7C14.6929 57.7 15.3275 58.3346 15.3275 59.1175C15.3275 59.9004 14.6929 60.535 13.91 60.535C13.1271 60.535 12.4925 59.9004 12.4925 59.1175C12.4925 58.3346 13.1271 57.7 13.91 57.7ZM44.15 1C44.9329 1 45.5675 1.63464 45.5675 2.4175C45.5675 3.20036 44.9329 3.835 44.15 3.835C43.3671 3.835 42.7325 3.20036 42.7325 2.4175C42.7325 1.63464 43.3671 1 44.15 1ZM55.49 28.8775C56.5338 28.8775 57.38 29.7237 57.38 30.7675C57.38 31.8113 56.5338 32.6575 55.49 32.6575C54.4462 32.6575 53.6 31.8113 53.6 30.7675C53.6 29.7237 54.4462 28.8775 55.49 28.8775ZM30.92 36.91C31.7029 36.91 32.3375 37.5446 32.3375 38.3275C32.3375 39.1104 31.7029 39.745 30.92 39.745C30.1371 39.745 29.5025 39.1104 29.5025 38.3275C29.5025 37.5446 30.1371 36.91 30.92 36.91ZM13.91 16.12C14.6929 16.12 15.3275 16.7546 15.3275 17.5375C15.3275 18.3203 14.6929 18.955 13.91 18.955C13.1271 18.955 12.4925 18.3203 12.4925 17.5375C12.4925 16.7546 13.1271 16.12 13.91 16.12ZM4.46 50.14C5.24286 50.14 5.8775 50.7746 5.8775 51.5575C5.8775 52.3404 5.24286 52.975 4.46 52.975C3.67714 52.975 3.0425 52.3404 3.0425 51.5575C3.0425 50.7746 3.67714 50.14 4.46 50.14ZM4.5 27.7175C6.433 27.7175 8 29.2845 8 31.2175C8 33.1505 6.433 34.7175 4.5 34.7175C2.567 34.7175 1 33.1505 1 31.2175C1 29.2845 2.567 27.7175 4.5 27.7175ZM3.89 29.7175C4.93382 29.7175 5.78 30.5637 5.78 31.6075C5.78 32.6513 4.93382 33.4975 3.89 33.4975C2.84618 33.4975 2 32.6513 2 31.6075C2 30.5637 2.84618 29.7175 3.89 29.7175ZM17.69 72.3475C18.7338 72.3475 19.58 73.1937 19.58 74.2375C19.58 75.2813 18.7338 76.1275 17.69 76.1275C16.6462 76.1275 15.8 75.2813 15.8 74.2375C15.8 73.1937 16.6462 72.3475 17.69 72.3475ZM33.5 67.7175C35.433 67.7175 37 69.2845 37 71.2175C37 73.1505 35.433 74.7175 33.5 74.7175C31.567 74.7175 30 73.1505 30 71.2175C30 69.2845 31.567 67.7175 33.5 67.7175ZM33.89 69.7175C34.9338 69.7175 35.78 70.5637 35.78 71.6075C35.78 72.6513 34.9338 73.4975 33.89 73.4975C32.8462 73.4975 32 72.6513 32 71.6075C32 70.5637 32.8462 69.7175 33.89 69.7175ZM32.81 78.49C33.5929 78.49 34.2275 79.1246 34.2275 79.9075C34.2275 80.6903 33.5929 81.325 32.81 81.325C32.0271 81.325 31.3925 80.6903 31.3925 79.9075C31.3925 79.1246 32.0271 78.49 32.81 78.49ZM19.58 82.27C20.3629 82.27 20.9975 82.9046 20.9975 83.6875C20.9975 84.4704 20.3629 85.105 19.58 85.105C18.7971 85.105 18.1625 84.4704 18.1625 83.6875C18.1625 82.9046 18.7971 82.27 19.58 82.27ZM49.82 72.82C50.6029 72.82 51.2375 73.4546 51.2375 74.2375C51.2375 75.0204 50.6029 75.655 49.82 75.655C49.0371 75.655 48.4025 75.0204 48.4025 74.2375C48.4025 73.4546 49.0371 72.82 49.82 72.82ZM40.37 76.1275C41.4138 76.1275 42.26 76.9737 42.26 78.0175C42.26 79.0613 41.4138 79.9075 40.37 79.9075C39.3262 79.9075 38.48 79.0613 38.48 78.0175C38.48 76.9737 39.3262 76.1275 40.37 76.1275ZM47.93 83.6875C48.9738 83.6875 49.82 84.5337 49.82 85.5775C49.82 86.6213 48.9738 87.4675 47.93 87.4675C46.8862 87.4675 46.04 86.6213 46.04 85.5775C46.04 84.5337 46.8862 83.6875 47.93 83.6875ZM55.49 61.0075C56.5338 61.0075 57.38 61.8537 57.38 62.8975C57.38 63.9413 56.5338 64.7875 55.49 64.7875C54.4462 64.7875 53.6 63.9413 53.6 62.8975C53.6 61.8537 54.4462 61.0075 55.49 61.0075ZM72.5 53.4475C73.5438 53.4475 74.39 54.2937 74.39 55.3375C74.39 56.3813 73.5438 57.2275 72.5 57.2275C71.4562 57.2275 70.61 56.3813 70.61 55.3375C70.61 54.2937 71.4562 53.4475 72.5 53.4475ZM19.58 9.9775C20.6238 9.9775 21.47 10.8237 21.47 11.8675C21.47 12.9113 20.6238 13.7575 19.58 13.7575C18.5362 13.7575 17.69 12.9113 17.69 11.8675C17.69 10.8237 18.5362 9.9775 19.58 9.9775ZM34.7 4.30751C35.7438 4.30751 36.59 5.15369 36.59 6.19751C36.59 7.24133 35.7438 8.08751 34.7 8.08751C33.6562 8.08751 32.81 7.24133 32.81 6.19751C32.81 5.15369 33.6562 4.30751 34.7 4.30751ZM264.465 60.2968V57.9343H271.5V60.2968H264.465ZM264.465 56.5169V54.1544H271.5V56.5169H264.465ZM264.465 52.7368V50.3743H271.5V52.7368H264.465ZM264.465 48.9569V46.5944H271.5V48.9569H264.465ZM264.465 45.1769V42.8144H271.5V45.1769H264.465ZM264.465 41.3968V39.0343H271.5V41.3968H264.465ZM264.465 37.6168V35.2543H271.5V37.6168H264.465ZM264.465 33.8369V31.4744H271.5V33.8369H264.465ZM264.465 30.0568V27.6943H271.5V30.0568H264.465Z" stroke="#C9FFE5" stroke-miterlimit="10"/>
</svg>
