<svg width="58" height="59" viewBox="0 0 58 59" fill="none" xmlns="http://www.w3.org/2000/svg">
<g id="tree_chip 1">
<path id="Vector" d="M28.4201 44.8706V23.9906L26.6801 22.2506V16.4506L31.3201 11.8106V8.91058" stroke="#81D8D0" stroke-miterlimit="10"/>
<path id="Vector_2" d="M29 44.8706V27.4706L30.74 25.7306V20.5106L37.7 13.5506" stroke="#A8E4A0" stroke-miterlimit="10"/>
<path id="Vector_3" d="M23.5074 12.118L24.94 13.5506V18.7706L24.36 19.3506V20.5106L24.94 21.0906V21.6706L27.84 24.5706V44.8706" stroke="#A8E4A0" stroke-miterlimit="10"/>
<path id="Vector_4" d="M29.58 44.8706V30.9506L32.48 28.0506H37.12L38.28 29.2106" stroke="#81D8D0" stroke-miterlimit="10"/>
<path id="Vector_5" d="M27.26 44.8706V28.6306L25.52 26.8906V23.9906L18.8674 17.338" stroke="#81D8D0" stroke-miterlimit="10"/>
<path id="Vector_6" d="M22.04 24.5706L26.68 29.2106V44.8706" stroke="#81D8D0" stroke-miterlimit="10"/>
<path id="Vector_7" d="M26.1 44.8706V33.8506L23.78 31.5306V30.3706L20.88 27.4706H18.415" stroke="#A8E4A0" stroke-miterlimit="10"/>
<path id="Vector_8" d="M25.52 31.0956V29.7906L20.88 25.1506V22.6856" stroke="#A8E4A0" stroke-miterlimit="10"/>
<path id="Vector_9" d="M15.08 22.2506L17.4 24.5706H19.14L24.36 29.7906" stroke="#A8E4A0" stroke-miterlimit="10"/>
<path id="Vector_10" d="M31.0463 27.7443L33.06 25.7306V23.4106L35.96 20.5106H40.02L40.2926 20.7832" stroke="#A8E4A0" stroke-miterlimit="10"/>
<path id="Vector_11" d="M18.5601 12.9706H19.7201L20.8801 14.1306V17.0306L23.2001 19.3506V20.5106L26.6801 23.9906V25.7306" stroke="#A8E4A0" stroke-miterlimit="10"/>
<path id="Vector_12" d="M25.52 19.4956V15.2906L27.84 12.9706V11.2306L25.8274 9.21799" stroke="#A8E4A0" stroke-miterlimit="10"/>
<path id="Vector_13" d="M29.58 23.9906V22.8306L27.26 20.5106V16.4506L31.9 11.8106H33.205" stroke="#A8E4A0" stroke-miterlimit="10"/>
<path id="Vector_14" d="M31.9 21.2356V19.9306L35.96 15.8706H37.12L39.44 18.1906" stroke="#A8E4A0" stroke-miterlimit="10"/>
<path id="Vector_15" d="M23.78 24.1356V23.4106L20.3 19.9306H17.4" stroke="#A8E4A0" stroke-miterlimit="10"/>
<path id="Vector_16" d="M31.9 24.5706V23.4106L33.64 21.6706V19.9306L35.38 18.1906H37.265" stroke="#A8E4A0" stroke-miterlimit="10"/>
<path id="Vector_17" d="M29 19.3506H30.16L32.48 17.0306V15.2906" stroke="#A8E4A0" stroke-miterlimit="10"/>
<path id="Vector_18" d="M29.8862 16.7243L30.74 15.8706V14.7106L32.48 12.9706H34.8L35.6526 12.118" stroke="#A8E4A0" stroke-miterlimit="10"/>
<path id="Vector_19" d="M34.8 26.3106L35.96 25.1506H37.7L39.15 23.7006V22.2506L38.425 21.5256H37.12L36.4681 22.1787" stroke="#A8E4A0" stroke-miterlimit="10"/>
<path id="Vector_20" d="M37.265 23.4106H35.38L33.64 25.1506V26.8906" stroke="#A8E4A0" stroke-miterlimit="10"/>
<path id="Vector_21" d="M30.16 44.8706V35.5906L32.48 33.2706V30.8056" stroke="#A8E4A0" stroke-miterlimit="10"/>
<path id="Vector_22" d="M25.52 44.8706V34.4306L22.62 31.5306H20.735" stroke="#A8E4A0" stroke-miterlimit="10"/>
<path id="Vector_23" d="M23.2 17.1756V14.7106L22.04 13.5506" stroke="#A8E4A0" stroke-miterlimit="10"/>
<path id="Vector_24" d="M18.2526 22.5232L16.24 20.5106V18.1906L16.5126 17.918" stroke="#A8E4A0" stroke-miterlimit="10"/>
<path id="Vector_25" d="M19.14 14.7106H16.82L15.95 13.8406" stroke="#A8E4A0" stroke-miterlimit="10"/>
<path id="Vector_26" d="M38.36 29.2106C38.36 29.2548 38.3241 29.2906 38.28 29.2906C38.2358 29.2906 38.2 29.2548 38.2 29.2106C38.2 29.1664 38.2358 29.1306 38.28 29.1306C38.3241 29.1306 38.36 29.1664 38.36 29.2106Z" fill="#81D8D0" stroke="#81D8D0"/>
<path id="Vector_27" d="M32.48 30.8056C32.7203 30.8056 32.915 30.6108 32.915 30.3706C32.915 30.1303 32.7203 29.9356 32.48 29.9356C32.2398 29.9356 32.045 30.1303 32.045 30.3706C32.045 30.6108 32.2398 30.8056 32.48 30.8056Z" stroke="#A8E4A0" stroke-miterlimit="10"/>
<path id="Vector_28" d="M20.3 31.9656C20.5402 31.9656 20.735 31.7708 20.735 31.5306C20.735 31.2903 20.5402 31.0956 20.3 31.0956C20.0597 31.0956 19.865 31.2903 19.865 31.5306C19.865 31.7708 20.0597 31.9656 20.3 31.9656Z" stroke="#A8E4A0" stroke-miterlimit="10"/>
<path id="Vector_29" d="M30.7401 28.4856C30.9803 28.4856 31.1751 28.2908 31.1751 28.0506C31.1751 27.8104 30.9803 27.6156 30.7401 27.6156C30.4998 27.6156 30.3051 27.8104 30.3051 28.0506C30.3051 28.2908 30.4998 28.4856 30.7401 28.4856Z" stroke="#A8E4A0" stroke-miterlimit="10"/>
<path id="Vector_30" d="M36.62 22.2506C36.62 22.2948 36.5841 22.3306 36.54 22.3306C36.4958 22.3306 36.46 22.2948 36.46 22.2506C36.46 22.2064 36.4958 22.1706 36.54 22.1706C36.5841 22.1706 36.62 22.2064 36.62 22.2506Z" fill="#81D8D0" stroke="#81D8D0"/>
<path id="Vector_31" d="M37.7 23.8456C37.9403 23.8456 38.135 23.6508 38.135 23.4106C38.135 23.1703 37.9403 22.9756 37.7 22.9756C37.4598 22.9756 37.265 23.1703 37.265 23.4106C37.265 23.6508 37.4598 23.8456 37.7 23.8456Z" stroke="#A8E4A0" stroke-miterlimit="10"/>
<path id="Vector_32" d="M34.88 26.3106C34.88 26.3548 34.8442 26.3906 34.8 26.3906C34.7558 26.3906 34.72 26.3548 34.72 26.3106C34.72 26.2664 34.7558 26.2306 34.8 26.2306C34.8442 26.2306 34.88 26.2664 34.88 26.3106Z" fill="#81D8D0" stroke="#81D8D0"/>
<path id="Vector_33" d="M33.7201 26.8906C33.7201 26.9348 33.6842 26.9706 33.6401 26.9706C33.5959 26.9706 33.5601 26.9348 33.5601 26.8906C33.5601 26.8464 33.5959 26.8106 33.6401 26.8106C33.6842 26.8106 33.7201 26.8464 33.7201 26.8906Z" fill="#81D8D0" stroke="#81D8D0"/>
<path id="Vector_34" d="M23.2 18.0456C23.4403 18.0456 23.635 17.8508 23.635 17.6106C23.635 17.3704 23.4403 17.1756 23.2 17.1756C22.9598 17.1756 22.765 17.3704 22.765 17.6106C22.765 17.8508 22.9598 18.0456 23.2 18.0456Z" stroke="#A8E4A0" stroke-miterlimit="10"/>
<path id="Vector_35" d="M26.76 26.3106C26.76 26.3548 26.7242 26.3906 26.68 26.3906C26.6358 26.3906 26.6 26.3548 26.6 26.3106C26.6 26.2664 26.6358 26.2306 26.68 26.2306C26.7242 26.2306 26.76 26.2664 26.76 26.3106Z" fill="#81D8D0" stroke="#81D8D0"/>
<path id="Vector_36" d="M25.52 20.3656C25.7602 20.3656 25.955 20.1708 25.955 19.9306C25.955 19.6903 25.7602 19.4956 25.52 19.4956C25.2797 19.4956 25.085 19.6903 25.085 19.9306C25.085 20.1708 25.2797 20.3656 25.52 20.3656Z" stroke="#A8E4A0" stroke-miterlimit="10"/>
<path id="Vector_37" d="M22.12 13.5506C22.12 13.5948 22.0841 13.6306 22.04 13.6306C21.9958 13.6306 21.96 13.5948 21.96 13.5506C21.96 13.5064 21.9958 13.4706 22.04 13.4706C22.0841 13.4706 22.12 13.5064 22.12 13.5506Z" fill="#81D8D0" stroke="#81D8D0"/>
<path id="Vector_38" d="M23.2 12.2456C23.4403 12.2456 23.635 12.0508 23.635 11.8106C23.635 11.5703 23.4403 11.3756 23.2 11.3756C22.9598 11.3756 22.765 11.5703 22.765 11.8106C22.765 12.0508 22.9598 12.2456 23.2 12.2456Z" stroke="#A8E4A0" stroke-miterlimit="10"/>
<path id="Vector_39" d="M40.6 21.5256C40.8403 21.5256 41.035 21.3308 41.035 21.0906C41.035 20.8503 40.8403 20.6556 40.6 20.6556C40.3598 20.6556 40.165 20.8503 40.165 21.0906C40.165 21.3308 40.3598 21.5256 40.6 21.5256Z" stroke="#A8E4A0" stroke-miterlimit="10"/>
<path id="Vector_40" d="M37.7 18.6256C37.9403 18.6256 38.135 18.4308 38.135 18.1906C38.135 17.9503 37.9403 17.7556 37.7 17.7556C37.4598 17.7556 37.265 17.9503 37.265 18.1906C37.265 18.4308 37.4598 18.6256 37.7 18.6256Z" stroke="#A8E4A0" stroke-miterlimit="10"/>
<path id="Vector_41" d="M31.9 22.1056C32.1402 22.1056 32.335 21.9108 32.335 21.6706C32.335 21.4304 32.1402 21.2356 31.9 21.2356C31.6597 21.2356 31.465 21.4304 31.465 21.6706C31.465 21.9108 31.6597 22.1056 31.9 22.1056Z" stroke="#A8E4A0" stroke-miterlimit="10"/>
<path id="Vector_42" d="M31.9799 24.5706C31.9799 24.6148 31.9441 24.6506 31.8999 24.6506C31.8558 24.6506 31.8199 24.6148 31.8199 24.5706C31.8199 24.5264 31.8558 24.4906 31.8999 24.4906C31.9441 24.4906 31.9799 24.5264 31.9799 24.5706Z" fill="#81D8D0" stroke="#81D8D0"/>
<path id="Vector_43" d="M28.5 19.3506C28.5 19.3948 28.4641 19.4306 28.42 19.4306C28.3758 19.4306 28.34 19.3948 28.34 19.3506C28.34 19.3064 28.3758 19.2706 28.42 19.2706C28.4641 19.2706 28.5 19.3064 28.5 19.3506Z" fill="#81D8D0" stroke="#81D8D0"/>
<path id="Vector_44" d="M29.66 24.5706C29.66 24.6148 29.6242 24.6506 29.58 24.6506C29.5358 24.6506 29.5 24.6148 29.5 24.5706C29.5 24.5264 29.5358 24.4906 29.58 24.4906C29.6242 24.4906 29.66 24.5264 29.66 24.5706Z" fill="#81D8D0" stroke="#81D8D0"/>
<path id="Vector_45" d="M29.58 17.4656C29.8203 17.4656 30.015 17.2708 30.015 17.0306C30.015 16.7903 29.8203 16.5956 29.58 16.5956C29.3398 16.5956 29.145 16.7903 29.145 17.0306C29.145 17.2708 29.3398 17.4656 29.58 17.4656Z" stroke="#A8E4A0" stroke-miterlimit="10"/>
<path id="Vector_46" d="M32.56 14.7106C32.56 14.7548 32.5242 14.7906 32.48 14.7906C32.4358 14.7906 32.4 14.7548 32.4 14.7106C32.4 14.6664 32.4358 14.6306 32.48 14.6306C32.5242 14.6306 32.56 14.6664 32.56 14.7106Z" fill="#81D8D0" stroke="#81D8D0"/>
<path id="Vector_47" d="M35.96 12.2456C36.2003 12.2456 36.395 12.0508 36.395 11.8106C36.395 11.5703 36.2003 11.3756 35.96 11.3756C35.7198 11.3756 35.525 11.5703 35.525 11.8106C35.525 12.0508 35.7198 12.2456 35.96 12.2456Z" stroke="#A8E4A0" stroke-miterlimit="10"/>
<path id="Vector_48" d="M33.64 12.2456C33.8802 12.2456 34.075 12.0508 34.075 11.8106C34.075 11.5703 33.8802 11.3756 33.64 11.3756C33.3997 11.3756 33.205 11.5703 33.205 11.8106C33.205 12.0508 33.3997 12.2456 33.64 12.2456Z" stroke="#A8E4A0" stroke-miterlimit="10"/>
<path id="Vector_49" d="M25.52 9.34559C25.7602 9.34559 25.955 9.15083 25.955 8.91059C25.955 8.67034 25.7602 8.47559 25.52 8.47559C25.2797 8.47559 25.085 8.67034 25.085 8.91059C25.085 9.15083 25.2797 9.34559 25.52 9.34559Z" stroke="#A8E4A0" stroke-miterlimit="10"/>
<path id="Vector_50" d="M31.4 8.33058C31.4 8.37476 31.3642 8.41058 31.32 8.41058C31.2758 8.41058 31.24 8.37476 31.24 8.33058C31.24 8.2864 31.2758 8.25058 31.32 8.25058C31.3642 8.25058 31.4 8.2864 31.4 8.33058Z" fill="#81D8D0" stroke="#81D8D0"/>
<path id="Vector_51" d="M18.64 12.9706C18.64 13.0148 18.6042 13.0506 18.56 13.0506C18.5158 13.0506 18.48 13.0148 18.48 12.9706C18.48 12.9264 18.5158 12.8906 18.56 12.8906C18.6042 12.8906 18.64 12.9264 18.64 12.9706Z" fill="#81D8D0" stroke="#81D8D0"/>
<path id="Vector_52" d="M19.8 14.7106C19.8 14.7548 19.7642 14.7906 19.72 14.7906C19.6758 14.7906 19.64 14.7548 19.64 14.7106C19.64 14.6664 19.6758 14.6306 19.72 14.6306C19.7642 14.6306 19.8 14.6664 19.8 14.7106Z" fill="#81D8D0" stroke="#81D8D0"/>
<path id="Vector_53" d="M18.9474 17.4656C18.9474 17.5098 18.9115 17.5456 18.8674 17.5456C18.8232 17.5456 18.7874 17.5098 18.7874 17.4656C18.7874 17.4214 18.8232 17.3856 18.8674 17.3856C18.9115 17.3856 18.9474 17.4214 18.9474 17.4656Z" fill="#81D8D0" stroke="#81D8D0"/>
<path id="Vector_54" d="M16.82 18.0456C17.0603 18.0456 17.255 17.8508 17.255 17.6106C17.255 17.3704 17.0603 17.1756 16.82 17.1756C16.5798 17.1756 16.385 17.3704 16.385 17.6106C16.385 17.8508 16.5798 18.0456 16.82 18.0456Z" stroke="#A8E4A0" stroke-miterlimit="10"/>
<path id="Vector_55" d="M15.66 13.9856C15.9002 13.9856 16.095 13.7908 16.095 13.5506C16.095 13.3104 15.9002 13.1156 15.66 13.1156C15.4197 13.1156 15.225 13.3104 15.225 13.5506C15.225 13.7908 15.4197 13.9856 15.66 13.9856Z" stroke="#A8E4A0" stroke-miterlimit="10"/>
<path id="Vector_56" d="M18.56 23.2656C18.8002 23.2656 18.995 23.0708 18.995 22.8306C18.995 22.5904 18.8002 22.3956 18.56 22.3956C18.3198 22.3956 18.125 22.5904 18.125 22.8306C18.125 23.0708 18.3198 23.2656 18.56 23.2656Z" stroke="#A8E4A0" stroke-miterlimit="10"/>
<path id="Vector_57" d="M17.4799 19.9306C17.4799 19.9748 17.4441 20.0106 17.3999 20.0106C17.3558 20.0106 17.3199 19.9748 17.3199 19.9306C17.3199 19.8864 17.3558 19.8506 17.3999 19.8506C17.4441 19.8506 17.4799 19.8864 17.4799 19.9306Z" fill="#81D8D0" stroke="#81D8D0"/>
<path id="Vector_58" d="M15.16 22.2506C15.16 22.2948 15.1242 22.3306 15.08 22.3306C15.0358 22.3306 15 22.2948 15 22.2506C15 22.2064 15.0358 22.1706 15.08 22.1706C15.1242 22.1706 15.16 22.2064 15.16 22.2506Z" fill="#81D8D0" stroke="#81D8D0"/>
<path id="Vector_59" d="M20.8799 22.6856C21.1202 22.6856 21.3149 22.4908 21.3149 22.2506C21.3149 22.0103 21.1202 21.8156 20.8799 21.8156C20.6397 21.8156 20.4449 22.0103 20.4449 22.2506C20.4449 22.4908 20.6397 22.6856 20.8799 22.6856Z" stroke="#A8E4A0" stroke-miterlimit="10"/>
<path id="Vector_60" d="M23.78 25.0056C24.0202 25.0056 24.215 24.8108 24.215 24.5706C24.215 24.3303 24.0202 24.1356 23.78 24.1356C23.5397 24.1356 23.345 24.3303 23.345 24.5706C23.345 24.8108 23.5397 25.0056 23.78 25.0056Z" stroke="#A8E4A0" stroke-miterlimit="10"/>
<path id="Vector_61" d="M22.12 24.5706C22.12 24.6148 22.0841 24.6506 22.04 24.6506C21.9958 24.6506 21.96 24.6148 21.96 24.5706C21.96 24.5264 21.9958 24.4906 22.04 24.4906C22.0841 24.4906 22.12 24.5264 22.12 24.5706Z" fill="#81D8D0" stroke="#81D8D0"/>
<path id="Vector_62" d="M17.98 27.9056C18.2203 27.9056 18.415 27.7108 18.415 27.4706C18.415 27.2303 18.2203 27.0356 17.98 27.0356C17.7398 27.0356 17.545 27.2303 17.545 27.4706C17.545 27.7108 17.7398 27.9056 17.98 27.9056Z" stroke="#A8E4A0" stroke-miterlimit="10"/>
<path id="Vector_63" d="M25.52 31.9656C25.7602 31.9656 25.955 31.7708 25.955 31.5306C25.955 31.2903 25.7602 31.0956 25.52 31.0956C25.2797 31.0956 25.085 31.2903 25.085 31.5306C25.085 31.7708 25.2797 31.9656 25.52 31.9656Z" stroke="#A8E4A0" stroke-miterlimit="10"/>
<path id="Vector_64" d="M24.44 29.7906C24.44 29.8348 24.4042 29.8706 24.36 29.8706C24.3158 29.8706 24.28 29.8348 24.28 29.7906C24.28 29.7464 24.3158 29.7106 24.36 29.7106C24.4042 29.7106 24.44 29.7464 24.44 29.7906Z" fill="#81D8D0" stroke="#81D8D0"/>
<path id="Vector_65" d="M37.78 13.5506C37.78 13.5948 37.7442 13.6306 37.7 13.6306C37.6558 13.6306 37.62 13.5948 37.62 13.5506C37.62 13.5064 37.6558 13.4706 37.7 13.4706C37.7442 13.4706 37.78 13.5064 37.78 13.5506Z" fill="#81D8D0" stroke="#81D8D0"/>
<path id="Vector_66" d="M39.52 18.1906C39.52 18.2348 39.4842 18.2706 39.44 18.2706C39.3958 18.2706 39.36 18.2348 39.36 18.1906C39.36 18.1464 39.3958 18.1106 39.44 18.1106C39.4842 18.1106 39.52 18.1464 39.52 18.1906Z" fill="#81D8D0" stroke="#81D8D0"/>
<g id="Vector_67">
<mask id="path-67-inside-1_455_3544" fill="white">
<path d="M23.5631 49.9386H22.8381V52.0974H23.5631V49.9386Z"/>
</mask>
<path d="M23.5631 49.9386H22.8381V52.0974H23.5631V49.9386Z" fill="#81D8D0"/>
<path d="M22.8381 49.9386V48.9386H21.8381V49.9386H22.8381ZM23.5631 49.9386H24.5631V48.9386H23.5631V49.9386ZM23.5631 52.0974V53.0974H24.5631V52.0974H23.5631ZM22.8381 52.0974H21.8381V53.0974H22.8381V52.0974ZM22.8381 50.9386H23.5631V48.9386H22.8381V50.9386ZM22.5631 49.9386V52.0974H24.5631V49.9386H22.5631ZM23.5631 51.0974H22.8381V53.0974H23.5631V51.0974ZM23.8381 52.0974V49.9386H21.8381V52.0974H23.8381Z" fill="#81D8D0" mask="url(#path-67-inside-1_455_3544)"/>
</g>
<g id="Vector_68">
<mask id="path-69-inside-2_455_3544" fill="white">
<path d="M24.723 49.9386H23.998V52.0974H24.723V49.9386Z"/>
</mask>
<path d="M24.723 49.9386H23.998V52.0974H24.723V49.9386Z" fill="#81D8D0"/>
<path d="M23.998 49.9386V48.9386H22.998V49.9386H23.998ZM24.723 49.9386H25.723V48.9386H24.723V49.9386ZM24.723 52.0974V53.0974H25.723V52.0974H24.723ZM23.998 52.0974H22.998V53.0974H23.998V52.0974ZM23.998 50.9386H24.723V48.9386H23.998V50.9386ZM23.723 49.9386V52.0974H25.723V49.9386H23.723ZM24.723 51.0974H23.998V53.0974H24.723V51.0974ZM24.998 52.0974V49.9386H22.998V52.0974H24.998Z" fill="#81D8D0" mask="url(#path-69-inside-2_455_3544)"/>
</g>
<g id="Vector_69">
<mask id="path-71-inside-3_455_3544" fill="white">
<path d="M25.8831 49.9386H25.1581V52.0974H25.8831V49.9386Z"/>
</mask>
<path d="M25.8831 49.9386H25.1581V52.0974H25.8831V49.9386Z" fill="#81D8D0"/>
<path d="M25.1581 49.9386V48.9386H24.1581V49.9386H25.1581ZM25.8831 49.9386H26.8831V48.9386H25.8831V49.9386ZM25.8831 52.0974V53.0974H26.8831V52.0974H25.8831ZM25.1581 52.0974H24.1581V53.0974H25.1581V52.0974ZM25.1581 50.9386H25.8831V48.9386H25.1581V50.9386ZM24.8831 49.9386V52.0974H26.8831V49.9386H24.8831ZM25.8831 51.0974H25.1581V53.0974H25.8831V51.0974ZM26.1581 52.0974V49.9386H24.1581V52.0974H26.1581Z" fill="#81D8D0" mask="url(#path-71-inside-3_455_3544)"/>
</g>
<g id="Vector_70">
<mask id="path-73-inside-4_455_3544" fill="white">
<path d="M27.0431 49.9386H26.3181V52.0974H27.0431V49.9386Z"/>
</mask>
<path d="M27.0431 49.9386H26.3181V52.0974H27.0431V49.9386Z" fill="#81D8D0"/>
<path d="M26.3181 49.9386V48.9386H25.3181V49.9386H26.3181ZM27.0431 49.9386H28.0431V48.9386H27.0431V49.9386ZM27.0431 52.0974V53.0974H28.0431V52.0974H27.0431ZM26.3181 52.0974H25.3181V53.0974H26.3181V52.0974ZM26.3181 50.9386H27.0431V48.9386H26.3181V50.9386ZM26.0431 49.9386V52.0974H28.0431V49.9386H26.0431ZM27.0431 51.0974H26.3181V53.0974H27.0431V51.0974ZM27.3181 52.0974V49.9386H25.3181V52.0974H27.3181Z" fill="#81D8D0" mask="url(#path-73-inside-4_455_3544)"/>
</g>
<g id="Vector_71">
<mask id="path-75-inside-5_455_3544" fill="white">
<path d="M28.203 49.9386H27.478V52.0974H28.203V49.9386Z"/>
</mask>
<path d="M28.203 49.9386H27.478V52.0974H28.203V49.9386Z" fill="#81D8D0"/>
<path d="M27.478 49.9386V48.9386H26.478V49.9386H27.478ZM28.203 49.9386H29.203V48.9386H28.203V49.9386ZM28.203 52.0974V53.0974H29.203V52.0974H28.203ZM27.478 52.0974H26.478V53.0974H27.478V52.0974ZM27.478 50.9386H28.203V48.9386H27.478V50.9386ZM27.203 49.9386V52.0974H29.203V49.9386H27.203ZM28.203 51.0974H27.478V53.0974H28.203V51.0974ZM28.478 52.0974V49.9386H26.478V52.0974H28.478Z" fill="#81D8D0" mask="url(#path-75-inside-5_455_3544)"/>
</g>
<g id="Vector_72">
<mask id="path-77-inside-6_455_3544" fill="white">
<path d="M29.3631 49.9386H28.6381V52.0974H29.3631V49.9386Z"/>
</mask>
<path d="M29.3631 49.9386H28.6381V52.0974H29.3631V49.9386Z" fill="#81D8D0"/>
<path d="M28.6381 49.9386V48.9386H27.6381V49.9386H28.6381ZM29.3631 49.9386H30.3631V48.9386H29.3631V49.9386ZM29.3631 52.0974V53.0974H30.3631V52.0974H29.3631ZM28.6381 52.0974H27.6381V53.0974H28.6381V52.0974ZM28.6381 50.9386H29.3631V48.9386H28.6381V50.9386ZM28.3631 49.9386V52.0974H30.3631V49.9386H28.3631ZM29.3631 51.0974H28.6381V53.0974H29.3631V51.0974ZM29.6381 52.0974V49.9386H27.6381V52.0974H29.6381Z" fill="#81D8D0" mask="url(#path-77-inside-6_455_3544)"/>
</g>
<g id="Vector_73">
<mask id="path-79-inside-7_455_3544" fill="white">
<path d="M30.5231 49.9386H29.7981V52.0974H30.5231V49.9386Z"/>
</mask>
<path d="M30.5231 49.9386H29.7981V52.0974H30.5231V49.9386Z" fill="#81D8D0"/>
<path d="M29.7981 49.9386V48.9386H28.7981V49.9386H29.7981ZM30.5231 49.9386H31.5231V48.9386H30.5231V49.9386ZM30.5231 52.0974V53.0974H31.5231V52.0974H30.5231ZM29.7981 52.0974H28.7981V53.0974H29.7981V52.0974ZM29.7981 50.9386H30.5231V48.9386H29.7981V50.9386ZM29.5231 49.9386V52.0974H31.5231V49.9386H29.5231ZM30.5231 51.0974H29.7981V53.0974H30.5231V51.0974ZM30.7981 52.0974V49.9386H28.7981V52.0974H30.7981Z" fill="#81D8D0" mask="url(#path-79-inside-7_455_3544)"/>
</g>
<g id="Vector_74">
<mask id="path-81-inside-8_455_3544" fill="white">
<path d="M31.6831 49.9386H30.9581V52.0974H31.6831V49.9386Z"/>
</mask>
<path d="M31.6831 49.9386H30.9581V52.0974H31.6831V49.9386Z" fill="#81D8D0"/>
<path d="M30.9581 49.9386V48.9386H29.9581V49.9386H30.9581ZM31.6831 49.9386H32.6831V48.9386H31.6831V49.9386ZM31.6831 52.0974V53.0974H32.6831V52.0974H31.6831ZM30.9581 52.0974H29.9581V53.0974H30.9581V52.0974ZM30.9581 50.9386H31.6831V48.9386H30.9581V50.9386ZM30.6831 49.9386V52.0974H32.6831V49.9386H30.6831ZM31.6831 51.0974H30.9581V53.0974H31.6831V51.0974ZM31.9581 52.0974V49.9386H29.9581V52.0974H31.9581Z" fill="#81D8D0" mask="url(#path-81-inside-8_455_3544)"/>
</g>
<g id="Vector_75">
<mask id="path-83-inside-9_455_3544" fill="white">
<path d="M32.843 49.9386H32.118V52.0974H32.843V49.9386Z"/>
</mask>
<path d="M32.843 49.9386H32.118V52.0974H32.843V49.9386Z" fill="#81D8D0"/>
<path d="M32.118 49.9386V48.9386H31.118V49.9386H32.118ZM32.843 49.9386H33.843V48.9386H32.843V49.9386ZM32.843 52.0974V53.0974H33.843V52.0974H32.843ZM32.118 52.0974H31.118V53.0974H32.118V52.0974ZM32.118 50.9386H32.843V48.9386H32.118V50.9386ZM31.843 49.9386V52.0974H33.843V49.9386H31.843ZM32.843 51.0974H32.118V53.0974H32.843V51.0974ZM33.118 52.0974V49.9386H31.118V52.0974H33.118Z" fill="#81D8D0" mask="url(#path-83-inside-9_455_3544)"/>
</g>
<path id="Vector_76" d="M25.52 44.7186V46.4586L23.2 48.7786V49.9386" stroke="#A8E4A0" stroke-miterlimit="10"/>
<path id="Vector_77" d="M26.1 44.7186V46.4586L24.36 48.1986V49.9386" stroke="#A8E4A0" stroke-miterlimit="10"/>
<path id="Vector_78" d="M26.68 44.7186V46.4586L25.52 47.6186V49.9386" stroke="#81D8D0" stroke-miterlimit="10"/>
<path id="Vector_79" d="M27.2601 44.7186V46.4586L26.6801 47.0386V49.9386" stroke="#81D8D0" stroke-miterlimit="10"/>
<path id="Vector_80" d="M27.84 44.7186V49.9386" stroke="#A8E4A0" stroke-miterlimit="10"/>
<path id="Vector_81" d="M28.42 44.7186V46.4586L29 47.0386V49.9386" stroke="#81D8D0" stroke-miterlimit="10"/>
<path id="Vector_82" d="M29 44.7186V46.4586L30.16 47.6186V49.9386" stroke="#A8E4A0" stroke-miterlimit="10"/>
<path id="Vector_83" d="M29.58 44.7186V46.4586L31.32 48.1986V49.9386" stroke="#81D8D0" stroke-miterlimit="10"/>
<path id="Vector_84" d="M30.16 44.7186V46.4586L32.48 48.7786V49.9386" stroke="#A8E4A0" stroke-miterlimit="10"/>
</g>
</svg>
