<svg width="41" height="21" viewBox="0 0 41 21" fill="none" className="calliope" xmlns="http://www.w3.org/2000/svg">
<path opacity="0.15" d="M6.94473 14.3651C6.88864 14.7016 6.83251 15.0382 6.78577 15.3653C9.72116 16.2534 12.6285 17.3098 15.6107 17.9549C16.7886 18.2073 18.4432 17.9736 19.3594 17.2537C24.0616 13.5705 28.5956 9.66284 33.1857 5.83C33.0361 5.58695 32.8771 5.34389 32.7276 5.10083C24.1364 8.1858 15.5359 11.2707 6.94473 14.3651Z" fill="#F8F9F5"/>
<path d="M0.980385 14.5427C0.971037 14.8698 0.971018 15.1877 0.96167 15.5149C5.09366 16.9359 9.24435 18.282 13.3483 19.7871C16.7978 21.0585 19.6491 20.1891 22.3228 17.7959C27.455 13.2152 32.6808 8.74665 37.8224 4.17529C38.8881 3.2311 39.7575 2.04386 40.7204 0.968797C40.4867 0.669649 40.2624 0.370489 40.0286 0.0806885C27.0157 4.89511 14.0027 9.71888 0.980385 14.5427ZM19.3593 17.2537C18.4432 17.9735 16.7791 18.2072 15.6106 17.9548C12.6284 17.3098 9.7211 16.2534 6.7857 15.3653C6.84179 15.0288 6.88857 14.6922 6.94466 14.365C15.5358 11.2801 24.1363 8.1951 32.7275 5.11013C32.8771 5.35319 33.0267 5.59624 33.1856 5.8393C28.5956 9.6628 24.0615 13.5704 19.3593 17.2537Z" fill="#8DA399"/>
<path d="M0.980385 14.5427C0.971037 14.8698 0.971018 15.1877 0.96167 15.5149C5.09366 16.9359 9.24435 18.282 13.3483 19.7871C16.7978 21.0585 19.6491 20.1891 22.3228 17.7959C27.455 13.2152 32.6808 8.74665 37.8224 4.17529C38.8881 3.2311 39.7575 2.04386 40.7204 0.968797C40.4867 0.669649 40.2624 0.370489 40.0286 0.0806885C27.0157 4.89511 14.0027 9.71888 0.980385 14.5427ZM19.3593 17.2537C18.4432 17.9735 16.7791 18.2072 15.6106 17.9548C12.6284 17.3098 9.7211 16.2534 6.7857 15.3653C6.84179 15.0288 6.88857 14.6922 6.94466 14.365C15.5358 11.2801 24.1363 8.1951 32.7275 5.11013C32.8771 5.35319 33.0267 5.59624 33.1856 5.8393C28.5956 9.6628 24.0615 13.5704 19.3593 17.2537Z" fill="#8DA399"/>
<path opacity="0.39" d="M17.2633 14.4475C17.2093 14.4683 17.1159 14.4974 16.9869 14.5198C16.9251 14.5305 16.8613 14.5377 16.7985 14.5432C17.0087 14.4676 17.219 14.3922 17.4293 14.3167C17.3739 14.3602 17.3188 14.404 17.2633 14.4475Z" fill="#F8F9F5" stroke="#F3DECA" stroke-width="7"/>
<path d="M0.980385 14.5427C0.971037 14.8698 0.971018 15.1877 0.96167 15.5149C5.09366 16.9359 9.24435 18.282 13.3483 19.7871C16.7978 21.0585 19.6491 20.1891 22.3228 17.7959C27.455 13.2152 32.6808 8.74665 37.8224 4.17529C38.8881 3.2311 39.7575 2.04386 40.7204 0.968797C40.4867 0.669649 40.2624 0.370489 40.0286 0.0806885C27.0157 4.89511 14.0027 9.71888 0.980385 14.5427ZM19.3593 17.2537C18.4432 17.9735 16.7791 18.2072 15.6106 17.9548C12.6284 17.3098 9.7211 16.2534 6.7857 15.3653C6.84179 15.0288 6.88857 14.6922 6.94466 14.365C15.5358 11.2801 24.1363 8.1951 32.7275 5.11013C32.8771 5.35319 33.0267 5.59624 33.1856 5.8393C28.5956 9.6628 24.0615 13.5704 19.3593 17.2537Z" fill="#8DA399"/>
<path d="M0.980385 14.5427C0.971037 14.8698 0.971018 15.1877 0.96167 15.5149C5.09366 16.9359 9.24435 18.282 13.3483 19.7871C16.7978 21.0585 19.6491 20.1891 22.3228 17.7959C27.455 13.2152 32.6808 8.74665 37.8224 4.17529C38.8881 3.2311 39.7575 2.04386 40.7204 0.968797C40.4867 0.669649 40.2624 0.370489 40.0286 0.0806885C27.0157 4.89511 14.0027 9.71888 0.980385 14.5427ZM19.3593 17.2537C18.4432 17.9735 16.7791 18.2072 15.6106 17.9548C12.6284 17.3098 9.7211 16.2534 6.7857 15.3653C6.84179 15.0288 6.88857 14.6922 6.94466 14.365C15.5358 11.2801 24.1363 8.1951 32.7275 5.11013C32.8771 5.35319 33.0267 5.59624 33.1856 5.8393C28.5956 9.6628 24.0615 13.5704 19.3593 17.2537Z" fill="#8DA399"/>
</svg>
