<svg width="34" height="24" viewBox="0 0 34 24" fill="none" className="clio" xmlns="http://www.w3.org/2000/svg">
<path opacity="0.15" d="M22.3665 7.11584C17.3748 9.30231 12.3316 11.4961 7.14868 13.7496C7.67987 10.693 8.27322 7.80258 9.30103 4.85315C13.681 5.61253 18.0057 6.36086 22.3665 7.11584Z" fill="#F8F9F5" stroke="#ADD8E6" stroke-width="7"/>
<path d="M5.3443 0.347348C2.65196 5.18047 -0.189981 19.0254 0.698117 23.12C11.6918 18.1467 22.6575 13.1827 33.6232 8.21871C33.8008 3.638 33.8008 3.66603 29.7342 2.97424C21.76 1.60938 13.8513 -0.278994 5.3443 0.347348ZM31.1926 7.05952C21.8816 11.1728 12.5332 15.2206 2.61453 19.5396C3.75503 13.2668 4.33467 7.27452 7.09244 0.917615C15.4499 2.36662 23.5363 3.76886 31.9779 5.22721C31.6133 6.10596 31.5385 6.90994 31.1926 7.05952Z" fill="#8DA399"/>
<path d="M5.3443 0.347348C2.65196 5.18047 -0.189981 19.0254 0.698117 23.12C11.6918 18.1467 22.6575 13.1827 33.6232 8.21871C33.8008 3.638 33.8008 3.66603 29.7342 2.97424C21.76 1.60938 13.8513 -0.278994 5.3443 0.347348ZM31.1926 7.05952C21.8816 11.1728 12.5332 15.2206 2.61453 19.5396C3.75503 13.2668 4.33467 7.27452 7.09244 0.917615C15.4499 2.36662 23.5363 3.76886 31.9779 5.22721C31.6133 6.10596 31.5385 6.90994 31.1926 7.05952Z" fill="#8DA399"/>
<path opacity="0.39" d="M22.3665 7.11584C17.3748 9.30231 12.3316 11.4961 7.14868 13.7496C7.67987 10.693 8.27322 7.80258 9.30103 4.85315C13.681 5.61253 18.0057 6.36086 22.3665 7.11584Z" fill="#F8F9F5" stroke="#ADD8E6" stroke-width="7"/>
<path d="M5.3443 0.347348C2.65196 5.18047 -0.189981 19.0254 0.698117 23.12C11.6918 18.1467 22.6575 13.1827 33.6232 8.21871C33.8008 3.638 33.8008 3.66603 29.7342 2.97424C21.76 1.60938 13.8513 -0.278994 5.3443 0.347348ZM31.1926 7.05952C21.8816 11.1728 12.5332 15.2206 2.61453 19.5396C3.75503 13.2668 4.33467 7.27452 7.09244 0.917615C15.4499 2.36662 23.5363 3.76886 31.9779 5.22721C31.6133 6.10596 31.5385 6.90994 31.1926 7.05952Z" fill="#8DA399"/>
<path d="M5.3443 0.347348C2.65196 5.18047 -0.189981 19.0254 0.698117 23.12C11.6918 18.1467 22.6575 13.1827 33.6232 8.21871C33.8008 3.638 33.8008 3.66603 29.7342 2.97424C21.76 1.60938 13.8513 -0.278994 5.3443 0.347348ZM31.1926 7.05952C21.8816 11.1728 12.5332 15.2206 2.61453 19.5396C3.75503 13.2668 4.33467 7.27452 7.09244 0.917615C15.4499 2.36662 23.5363 3.76886 31.9779 5.22721C31.6133 6.10596 31.5385 6.90994 31.1926 7.05952Z" fill="#8DA399"/>
</svg>
