<svg width="40" height="24" viewBox="0 0 40 24" fill="none" className="erato" xmlns="http://www.w3.org/2000/svg">
<path opacity="0.15" d="M20.47 17.8782C18.2758 17.1931 16.1596 16.5652 14.0403 15.8352C17.6505 14.4708 21.2062 13.1262 24.8069 11.7668C23.3527 13.8162 21.9198 15.8343 20.47 17.8782Z" fill="#F8F9F5" stroke="#71BC78" stroke-width="7"/>
<path d="M0.967468 15.3187C7.66092 21.0212 15.1396 21.9 22.0761 23.8912C24.3478 21.1428 26.3857 18.7402 28.3582 16.2816C30.4242 13.7015 32.6024 11.1774 34.388 8.40092C36.0146 5.86751 38.8378 4.09131 39.4922 0.333252C38.576 0.445433 38.0151 0.408029 37.529 0.585648C26.7316 4.6522 15.9436 8.71875 5.17425 12.8507C3.91221 13.3462 2.79975 14.2343 0.967468 15.3187ZM21.8424 21.9935C16.4203 20.1892 10.7926 18.8898 4.71613 15.6179C14.8498 11.7944 24.058 8.31677 34.2945 4.44654C29.8072 10.7754 25.9463 16.2068 21.8424 21.9935Z" fill="#8DA399"/>
<path d="M0.967468 15.3187C7.66092 21.0212 15.1396 21.9 22.0761 23.8912C24.3478 21.1428 26.3857 18.7402 28.3582 16.2816C30.4242 13.7015 32.6024 11.1774 34.388 8.40092C36.0146 5.86751 38.8378 4.09131 39.4922 0.333252C38.576 0.445433 38.0151 0.408029 37.529 0.585648C26.7316 4.6522 15.9436 8.71875 5.17425 12.8507C3.91221 13.3462 2.79975 14.2343 0.967468 15.3187ZM21.8424 21.9935C16.4203 20.1892 10.7926 18.8898 4.71613 15.6179C14.8498 11.7944 24.058 8.31677 34.2945 4.44654C29.8072 10.7754 25.9463 16.2068 21.8424 21.9935Z" fill="#8DA399"/>
<path opacity="0.39" d="M20.47 17.8782C18.2758 17.1931 16.1596 16.5652 14.0403 15.8352C17.6505 14.4708 21.2062 13.1262 24.8069 11.7668C23.3527 13.8162 21.9198 15.8343 20.47 17.8782Z" fill="#F8F9F5" stroke="#71BC78" stroke-width="7"/>
<path d="M0.967468 15.3187C7.66092 21.0212 15.1396 21.9 22.0761 23.8912C24.3478 21.1428 26.3857 18.7402 28.3582 16.2816C30.4242 13.7015 32.6024 11.1774 34.388 8.40092C36.0146 5.86751 38.8378 4.09131 39.4922 0.333252C38.576 0.445433 38.0151 0.408029 37.529 0.585648C26.7316 4.6522 15.9436 8.71875 5.17425 12.8507C3.91221 13.3462 2.79975 14.2343 0.967468 15.3187ZM21.8424 21.9935C16.4203 20.1892 10.7926 18.8898 4.71613 15.6179C14.8498 11.7944 24.058 8.31677 34.2945 4.44654C29.8072 10.7754 25.9463 16.2068 21.8424 21.9935Z" fill="#8DA399"/>
<path d="M0.967468 15.3187C7.66092 21.0212 15.1396 21.9 22.0761 23.8912C24.3478 21.1428 26.3857 18.7402 28.3582 16.2816C30.4242 13.7015 32.6024 11.1774 34.388 8.40092C36.0146 5.86751 38.8378 4.09131 39.4922 0.333252C38.576 0.445433 38.0151 0.408029 37.529 0.585648C26.7316 4.6522 15.9436 8.71875 5.17425 12.8507C3.91221 13.3462 2.79975 14.2343 0.967468 15.3187ZM21.8424 21.9935C16.4203 20.1892 10.7926 18.8898 4.71613 15.6179C14.8498 11.7944 24.058 8.31677 34.2945 4.44654C29.8072 10.7754 25.9463 16.2068 21.8424 21.9935Z" fill="#8DA399"/>
</svg>
