<svg width="29" height="34" viewBox="0 0 29 34" fill="none" className="euterpe" xmlns="http://www.w3.org/2000/svg">
<path opacity="0.15" d="M10.748 26.6234C9.48266 26.7476 8.2059 26.8724 6.90137 27.0004C6.75284 22.0444 6.60646 17.2039 6.45801 12.347C10.3173 11.4561 14.2222 10.5547 18.3184 9.60876C15.7284 15.4295 13.2546 20.9879 10.748 26.6234Z" fill="#F8F9F5" stroke="#595652" stroke-width="9"/>
<path d="M28.1831 0.510789C19.6106 2.59548 11.0475 4.7269 2.46563 6.7742C0.465073 7.25096 0.0163824 8.46627 0.0444276 10.4107C0.128563 15.73 -0.0116628 21.0492 0.0444276 26.3778C0.0724728 28.6308 0.362262 30.8837 0.558578 33.5387C3.95204 33.5387 6.72852 33.4826 9.49564 33.5574C12.7956 33.6508 15.0766 32.2673 16.4976 29.1262C20.5267 20.1798 24.6587 11.2801 28.7159 2.34307C28.9216 1.88499 28.8094 1.27734 28.8375 0.875362C28.4355 0.641652 28.2859 0.492092 28.1831 0.510789ZM13.7959 30.837C10.1781 31.1922 6.56025 31.5474 2.54979 31.9401C2.30673 24.0033 2.08237 16.4592 1.84866 8.78412C9.55174 7.00793 17.2455 5.23171 26.0984 3.18442C21.7514 12.9815 17.825 21.8064 13.7959 30.837Z" fill="#8DA399"/>
<path d="M28.1831 0.510789C19.6106 2.59548 11.0475 4.7269 2.46563 6.7742C0.465073 7.25096 0.0163824 8.46627 0.0444276 10.4107C0.128563 15.73 -0.0116628 21.0492 0.0444276 26.3778C0.0724728 28.6308 0.362262 30.8837 0.558578 33.5387C3.95204 33.5387 6.72852 33.4826 9.49564 33.5574C12.7956 33.6508 15.0766 32.2673 16.4976 29.1262C20.5267 20.1798 24.6587 11.2801 28.7159 2.34307C28.9216 1.88499 28.8094 1.27734 28.8375 0.875362C28.4355 0.641652 28.2859 0.492092 28.1831 0.510789ZM13.7959 30.837C10.1781 31.1922 6.56025 31.5474 2.54979 31.9401C2.30673 24.0033 2.08237 16.4592 1.84866 8.78412C9.55174 7.00793 17.2455 5.23171 26.0984 3.18442C21.7514 12.9815 17.825 21.8064 13.7959 30.837Z" fill="#8DA399"/>
<path opacity="0.39" d="M10.748 26.6234C9.48266 26.7476 8.2059 26.8724 6.90137 27.0004C6.75284 22.0444 6.60646 17.2039 6.45801 12.347C10.3173 11.4561 14.2222 10.5547 18.3184 9.60876C15.7284 15.4295 13.2546 20.9879 10.748 26.6234Z" fill="#F8F9F5" stroke="#595652" stroke-width="9"/>
<path d="M28.1831 0.510789C19.6106 2.59548 11.0475 4.7269 2.46563 6.7742C0.465073 7.25096 0.0163824 8.46627 0.0444276 10.4107C0.128563 15.73 -0.0116628 21.0492 0.0444276 26.3778C0.0724728 28.6308 0.362262 30.8837 0.558578 33.5387C3.95204 33.5387 6.72852 33.4826 9.49564 33.5574C12.7956 33.6508 15.0766 32.2673 16.4976 29.1262C20.5267 20.1798 24.6587 11.2801 28.7159 2.34307C28.9216 1.88499 28.8094 1.27734 28.8375 0.875362C28.4355 0.641652 28.2859 0.492092 28.1831 0.510789ZM13.7959 30.837C10.1781 31.1922 6.56025 31.5474 2.54979 31.9401C2.30673 24.0033 2.08237 16.4592 1.84866 8.78412C9.55174 7.00793 17.2455 5.23171 26.0984 3.18442C21.7514 12.9815 17.825 21.8064 13.7959 30.837Z" fill="#8DA399"/>
<path d="M28.1831 0.510789C19.6106 2.59548 11.0475 4.7269 2.46563 6.7742C0.465073 7.25096 0.0163824 8.46627 0.0444276 10.4107C0.128563 15.73 -0.0116628 21.0492 0.0444276 26.3778C0.0724728 28.6308 0.362262 30.8837 0.558578 33.5387C3.95204 33.5387 6.72852 33.4826 9.49564 33.5574C12.7956 33.6508 15.0766 32.2673 16.4976 29.1262C20.5267 20.1798 24.6587 11.2801 28.7159 2.34307C28.9216 1.88499 28.8094 1.27734 28.8375 0.875362C28.4355 0.641652 28.2859 0.492092 28.1831 0.510789ZM13.7959 30.837C10.1781 31.1922 6.56025 31.5474 2.54979 31.9401C2.30673 24.0033 2.08237 16.4592 1.84866 8.78412C9.55174 7.00793 17.2455 5.23171 26.0984 3.18442C21.7514 12.9815 17.825 21.8064 13.7959 30.837Z" fill="#8DA399"/>
</svg>
