<svg width="256" height="324" viewBox="0 0 256 324" fill="none" xmlns="http://www.w3.org/2000/svg">
<path opacity="0.15" d="M79.2843 25.0469C82.2276 26.1969 85.1481 27.5137 88.0831 28.9062V28.9072C89.8531 29.7483 91.5808 30.6077 93.2491 31.5234C92.0394 31.2936 90.9124 31.1904 89.9738 31.0908H89.9747C88.6324 30.9444 87.3429 31.0002 86.2599 31.0693C85.3802 31.1255 84.683 31.1849 84.0079 31.2129L83.3341 31.2295H83.3331C81.6314 31.2378 80.0798 31.2356 78.5968 31.1084L77.965 31.0459L77.9552 31.0449L77.1495 30.9463C76.8181 30.9021 76.4889 30.8525 76.1593 30.8008C77.2104 28.8687 78.248 26.9591 79.2843 25.0469Z" fill="#F8F9F5" stroke="#FF5A36" stroke-width="7"/>
<path d="M76.8718 35.9446C79.1061 36.412 81.2936 36.4214 83.5559 36.2438C85.9211 36.0568 88.3329 36.0287 90.6981 36.2344C93.3998 36.4775 96.0267 37.1505 97.7187 39.712C97.8216 39.8709 98.1207 39.8803 98.6069 40.0766C100.336 37.8049 102.103 35.4772 103.833 33.2055C103.066 32.5698 102.44 31.9996 101.767 31.4948C100.271 30.3636 98.8218 29.1483 97.2326 28.1854C95.176 26.9421 92.9978 25.8857 90.857 24.7826C87.1176 22.8568 83.4251 20.7722 79.265 19.9308C77.2177 19.5195 76.7971 19.6597 75.7594 21.4826C74.6937 23.343 73.7682 25.2874 72.7585 27.1758C71.5993 29.3446 70.4401 31.5041 68.3648 32.9438C68.075 33.1494 67.9908 33.6823 67.7197 34.2619C68.4582 34.4675 69.0005 34.6732 69.5614 34.7667C71.992 35.1687 74.4506 35.4398 76.8718 35.9446ZM76.2735 23.2495C77.5543 20.8843 77.7225 20.688 80.1157 21.6042C83.3222 22.8382 86.4726 24.2591 89.5856 25.7362C92.2312 26.9888 94.8581 28.3163 97.3541 29.8401C98.9995 30.8404 100.42 32.252 102.047 33.5514C100.785 35.1406 99.6258 36.599 98.3825 38.1602C96.0454 35.2154 92.7641 34.9069 89.595 34.561C87.5383 34.3367 85.435 34.7106 83.3503 34.72C81.4245 34.7293 79.48 34.7293 77.5636 34.5143C75.2639 34.2619 72.9923 33.7758 70.7487 33.3925C72.637 29.9336 74.4599 26.5962 76.2735 23.2495Z" fill="#8DA399"/>
<path d="M76.8718 35.9446C79.1061 36.412 81.2936 36.4214 83.5559 36.2438C85.9211 36.0568 88.3329 36.0287 90.6981 36.2344C93.3998 36.4775 96.0267 37.1505 97.7187 39.712C97.8216 39.8709 98.1207 39.8803 98.6069 40.0766C100.336 37.8049 102.103 35.4772 103.833 33.2055C103.066 32.5698 102.44 31.9996 101.767 31.4948C100.271 30.3636 98.8218 29.1483 97.2326 28.1854C95.176 26.9421 92.9978 25.8857 90.857 24.7826C87.1176 22.8568 83.4251 20.7722 79.265 19.9308C77.2177 19.5195 76.7971 19.6597 75.7594 21.4826C74.6937 23.343 73.7682 25.2874 72.7585 27.1758C71.5993 29.3446 70.4401 31.5041 68.3648 32.9438C68.075 33.1494 67.9908 33.6823 67.7197 34.2619C68.4582 34.4675 69.0005 34.6732 69.5614 34.7667C71.992 35.1687 74.4506 35.4398 76.8718 35.9446ZM76.2735 23.2495C77.5543 20.8843 77.7225 20.688 80.1157 21.6042C83.3222 22.8382 86.4726 24.2591 89.5856 25.7362C92.2312 26.9888 94.8581 28.3163 97.3541 29.8401C98.9995 30.8404 100.42 32.252 102.047 33.5514C100.785 35.1406 99.6258 36.599 98.3825 38.1602C96.0454 35.2154 92.7641 34.9069 89.595 34.561C87.5383 34.3367 85.435 34.7106 83.3503 34.72C81.4245 34.7293 79.48 34.7293 77.5636 34.5143C75.2639 34.2619 72.9923 33.7758 70.7487 33.3925C72.637 29.9336 74.4599 26.5962 76.2735 23.2495Z" fill="#8DA399"/>
<path opacity="0.39" d="M79.2843 25.0469C82.2276 26.1969 85.1481 27.5137 88.0831 28.9062V28.9072C89.8531 29.7483 91.5808 30.6077 93.2491 31.5234C92.0394 31.2936 90.9124 31.1904 89.9738 31.0908H89.9747C88.6324 30.9444 87.3429 31.0002 86.2599 31.0693C85.3802 31.1255 84.683 31.1849 84.0079 31.2129L83.3341 31.2295H83.3331C81.6314 31.2378 80.0798 31.2356 78.5968 31.1084L77.965 31.0459L77.9552 31.0449L77.1495 30.9463C76.8181 30.9021 76.4889 30.8525 76.1593 30.8008C77.2104 28.8687 78.248 26.9591 79.2843 25.0469Z" fill="#F8F9F5" stroke="#FF5A36" stroke-width="7"/>
<path d="M76.8718 35.9446C79.1061 36.412 81.2936 36.4214 83.5559 36.2438C85.9211 36.0568 88.3329 36.0287 90.6981 36.2344C93.3998 36.4775 96.0267 37.1505 97.7187 39.712C97.8216 39.8709 98.1207 39.8803 98.6069 40.0766C100.336 37.8049 102.103 35.4772 103.833 33.2055C103.066 32.5698 102.44 31.9996 101.767 31.4948C100.271 30.3636 98.8218 29.1483 97.2326 28.1854C95.176 26.9421 92.9978 25.8857 90.857 24.7826C87.1176 22.8568 83.4251 20.7722 79.265 19.9308C77.2177 19.5195 76.7971 19.6597 75.7594 21.4826C74.6937 23.343 73.7682 25.2874 72.7585 27.1758C71.5993 29.3446 70.4401 31.5041 68.3648 32.9438C68.075 33.1494 67.9908 33.6823 67.7197 34.2619C68.4582 34.4675 69.0005 34.6732 69.5614 34.7667C71.992 35.1687 74.4506 35.4398 76.8718 35.9446ZM76.2735 23.2495C77.5543 20.8843 77.7225 20.688 80.1157 21.6042C83.3222 22.8382 86.4726 24.2591 89.5856 25.7362C92.2312 26.9888 94.8581 28.3163 97.3541 29.8401C98.9995 30.8404 100.42 32.252 102.047 33.5514C100.785 35.1406 99.6258 36.599 98.3825 38.1602C96.0454 35.2154 92.7641 34.9069 89.595 34.561C87.5383 34.3367 85.435 34.7106 83.3503 34.72C81.4245 34.7293 79.48 34.7293 77.5636 34.5143C75.2639 34.2619 72.9923 33.7758 70.7487 33.3925C72.637 29.9336 74.4599 26.5962 76.2735 23.2495Z" fill="#8DA399"/>
<path d="M76.8718 35.9446C79.1061 36.412 81.2936 36.4214 83.5559 36.2438C85.9211 36.0568 88.3329 36.0287 90.6981 36.2344C93.3998 36.4775 96.0267 37.1505 97.7187 39.712C97.8216 39.8709 98.1207 39.8803 98.6069 40.0766C100.336 37.8049 102.103 35.4772 103.833 33.2055C103.066 32.5698 102.44 31.9996 101.767 31.4948C100.271 30.3636 98.8218 29.1483 97.2326 28.1854C95.176 26.9421 92.9978 25.8857 90.857 24.7826C87.1176 22.8568 83.4251 20.7722 79.265 19.9308C77.2177 19.5195 76.7971 19.6597 75.7594 21.4826C74.6937 23.343 73.7682 25.2874 72.7585 27.1758C71.5993 29.3446 70.4401 31.5041 68.3648 32.9438C68.075 33.1494 67.9908 33.6823 67.7197 34.2619C68.4582 34.4675 69.0005 34.6732 69.5614 34.7667C71.992 35.1687 74.4506 35.4398 76.8718 35.9446ZM76.2735 23.2495C77.5543 20.8843 77.7225 20.688 80.1157 21.6042C83.3222 22.8382 86.4726 24.2591 89.5856 25.7362C92.2312 26.9888 94.8581 28.3163 97.3541 29.8401C98.9995 30.8404 100.42 32.252 102.047 33.5514C100.785 35.1406 99.6258 36.599 98.3825 38.1602C96.0454 35.2154 92.7641 34.9069 89.595 34.561C87.5383 34.3367 85.435 34.7106 83.3503 34.72C81.4245 34.7293 79.48 34.7293 77.5636 34.5143C75.2639 34.2619 72.9923 33.7758 70.7487 33.3925C72.637 29.9336 74.4599 26.5962 76.2735 23.2495Z" fill="#8DA399"/>
<path opacity="0.15" d="M39.2582 280.717C41.2044 280.709 42.9234 280.722 44.3559 280.752C44.3023 281.227 44.2491 281.694 44.1977 282.151C36.7206 285.06 29.4251 287.891 22.062 290.749C18.915 287.736 15.6947 284.657 12.4555 281.558C15.9926 281.351 20.2784 281.162 24.6752 281.015C29.746 280.846 34.9342 280.735 39.2582 280.717Z" fill="#F8F9F5" stroke="#FF6FFF" stroke-width="8"/>
<path d="M46.0408 274.927C39.0295 275.123 32.0182 275.413 25.007 275.581C20.4636 275.694 15.9109 275.609 11.3583 275.703C7.87131 275.768 4.43114 276.189 0 277.573C1.43965 279.068 2.15011 279.91 2.95407 280.63C7.99285 285.154 13.1064 289.585 18.0798 294.175C21.2302 297.083 21.0806 297.017 25.1471 295.475C31.3264 293.128 37.5712 290.913 43.8626 288.884C48.2097 287.482 48.2564 287.669 48.7518 282.808C48.9014 281.377 49.2193 279.966 49.3501 278.526C49.6399 275.292 49.238 274.843 46.0408 274.927ZM47.9105 285.014C38.8239 288.538 30.0551 291.941 21.1461 295.409C15.4061 289.922 9.38575 284.154 3.41213 278.442C5.94554 277.432 42.1051 276.161 48.8173 276.993C48.4807 279.928 48.1816 282.63 47.9105 285.014Z" fill="#8DA399"/>
<path d="M46.0408 274.927C39.0295 275.123 32.0182 275.413 25.007 275.581C20.4636 275.694 15.9109 275.609 11.3583 275.703C7.87131 275.768 4.43114 276.189 0 277.573C1.43965 279.068 2.15011 279.91 2.95407 280.63C7.99285 285.154 13.1064 289.585 18.0798 294.175C21.2302 297.083 21.0806 297.017 25.1471 295.475C31.3264 293.128 37.5712 290.913 43.8626 288.884C48.2097 287.482 48.2564 287.669 48.7518 282.808C48.9014 281.377 49.2193 279.966 49.3501 278.526C49.6399 275.292 49.238 274.843 46.0408 274.927ZM47.9105 285.014C38.8239 288.538 30.0551 291.941 21.1461 295.409C15.4061 289.922 9.38575 284.154 3.41213 278.442C5.94554 277.432 42.1051 276.161 48.8173 276.993C48.4807 279.928 48.1816 282.63 47.9105 285.014Z" fill="#8DA399"/>
<path opacity="0.39" d="M39.2582 279.717C41.2044 279.709 42.9234 279.722 44.3559 279.752C44.3023 280.227 44.2491 280.694 44.1977 281.151C36.7206 284.06 29.4251 286.891 22.062 289.749C18.915 286.736 15.6947 283.657 12.4555 280.558C15.9926 280.351 20.2784 280.162 24.6752 280.015C29.746 279.846 34.9342 279.735 39.2582 279.717Z" fill="#F8F9F5" stroke="#FF6FFF" stroke-width="8"/>
<path d="M46.0408 274.927C39.0295 275.123 32.0182 275.413 25.007 275.581C20.4636 275.694 15.9109 275.609 11.3583 275.703C7.87131 275.768 4.43114 276.189 0 277.573C1.43965 279.068 2.15011 279.91 2.95407 280.63C7.99285 285.154 13.1064 289.585 18.0798 294.175C21.2302 297.083 21.0806 297.017 25.1471 295.475C31.3264 293.128 37.5712 290.913 43.8626 288.884C48.2097 287.482 48.2564 287.669 48.7518 282.808C48.9014 281.377 49.2193 279.966 49.3501 278.526C49.6399 275.292 49.238 274.843 46.0408 274.927ZM47.9105 285.014C38.8239 288.538 30.0551 291.941 21.1461 295.409C15.4061 289.922 9.38575 284.154 3.41213 278.442C5.94554 277.432 42.1051 276.161 48.8173 276.993C48.4807 279.928 48.1816 282.63 47.9105 285.014Z" fill="#8DA399"/>
<path d="M46.0408 274.927C39.0295 275.123 32.0182 275.413 25.007 275.581C20.4636 275.694 15.9109 275.609 11.3583 275.703C7.87131 275.768 4.43114 276.189 0 277.573C1.43965 279.068 2.15011 279.91 2.95407 280.63C7.99285 285.154 13.1064 289.585 18.0798 294.175C21.2302 297.083 21.0806 297.017 25.1471 295.475C31.3264 293.128 37.5712 290.913 43.8626 288.884C48.2097 287.482 48.2564 287.669 48.7518 282.808C48.9014 281.377 49.2193 279.966 49.3501 278.526C49.6399 275.292 49.238 274.843 46.0408 274.927ZM47.9105 285.014C38.8239 288.538 30.0551 291.941 21.1461 295.409C15.4061 289.922 9.38575 284.154 3.41213 278.442C5.94554 277.432 42.1051 276.161 48.8173 276.993C48.4807 279.928 48.1816 282.63 47.9105 285.014Z" fill="#8DA399"/>
<path opacity="0.15" d="M151.982 95.6581C151.957 95.7005 151.933 95.7443 151.908 95.787C151.185 97.009 150.128 98.621 149.265 100.248L148.909 100.945V100.946C147.764 103.282 146.573 105.552 145.256 108.071C137.647 103.651 130.125 99.283 122.631 94.9315C132.353 95.1737 142.111 95.4159 151.982 95.6581Z" fill="#F8F9F5" stroke="#FFFD01" stroke-width="7"/>
<path d="M109.301 90.9039C108.628 92.7642 109.414 93.7925 110.844 94.6245C111.227 94.8489 111.601 95.092 111.984 95.3257C119.472 99.8783 126.961 104.45 134.467 108.965C137.393 110.722 140.347 112.461 143.376 114.013C147.069 115.901 147.462 115.602 149.481 111.816C153.043 105.17 156.754 98.5976 160.381 91.9883C160.718 91.3713 160.895 90.6608 161.456 89.2025C159.858 89.2025 159.007 89.1931 158.156 89.2025C150.509 89.296 142.862 89.5203 135.215 89.4455C127.699 89.3614 120.183 88.9968 112.667 88.6883C110.965 88.6135 109.918 89.2025 109.301 90.9039ZM157.231 92.2781C156.333 96.167 153.725 99.0837 152.061 102.477C150.425 105.815 148.667 109.086 146.676 112.929C134.486 105.852 122.548 98.9248 110.62 91.9883C110.685 91.6985 110.75 91.4181 110.816 91.1283C126.175 91.5115 141.535 91.8948 157.231 92.2781Z" fill="#8DA399"/>
<path d="M109.301 90.9039C108.628 92.7642 109.414 93.7925 110.844 94.6245C111.227 94.8489 111.601 95.092 111.984 95.3257C119.472 99.8783 126.961 104.45 134.467 108.965C137.393 110.722 140.347 112.461 143.376 114.013C147.069 115.901 147.462 115.602 149.481 111.816C153.043 105.17 156.754 98.5976 160.381 91.9883C160.718 91.3713 160.895 90.6608 161.456 89.2025C159.858 89.2025 159.007 89.1931 158.156 89.2025C150.509 89.296 142.862 89.5203 135.215 89.4455C127.699 89.3614 120.183 88.9968 112.667 88.6883C110.965 88.6135 109.918 89.2025 109.301 90.9039ZM157.231 92.2781C156.333 96.167 153.725 99.0837 152.061 102.477C150.425 105.815 148.667 109.086 146.676 112.929C134.486 105.852 122.548 98.9248 110.62 91.9883C110.685 91.6985 110.75 91.4181 110.816 91.1283C126.175 91.5115 141.535 91.8948 157.231 92.2781Z" fill="#8DA399"/>
<path opacity="0.39" d="M151.982 95.6581C151.957 95.7005 151.933 95.7443 151.908 95.787C151.185 97.009 150.128 98.621 149.265 100.248L148.909 100.945V100.946C147.764 103.282 146.573 105.552 145.256 108.071C137.647 103.651 130.125 99.283 122.631 94.9315C132.353 95.1737 142.111 95.4159 151.982 95.6581Z" fill="#F8F9F5" stroke="#FFFD01" stroke-width="7"/>
<path d="M109.301 90.9039C108.628 92.7642 109.414 93.7925 110.844 94.6245C111.227 94.8489 111.601 95.092 111.984 95.3257C119.472 99.8783 126.961 104.45 134.467 108.965C137.393 110.722 140.347 112.461 143.376 114.013C147.069 115.901 147.462 115.602 149.481 111.816C153.043 105.17 156.754 98.5976 160.381 91.9883C160.718 91.3713 160.895 90.6608 161.456 89.2025C159.858 89.2025 159.007 89.1931 158.156 89.2025C150.509 89.296 142.862 89.5203 135.215 89.4455C127.699 89.3614 120.183 88.9968 112.667 88.6883C110.965 88.6135 109.918 89.2025 109.301 90.9039ZM157.231 92.2781C156.333 96.167 153.725 99.0837 152.061 102.477C150.425 105.815 148.667 109.086 146.676 112.929C134.486 105.852 122.548 98.9248 110.62 91.9883C110.685 91.6985 110.75 91.4181 110.816 91.1283C126.175 91.5115 141.535 91.8948 157.231 92.2781Z" fill="#8DA399"/>
<path d="M109.301 90.9039C108.628 92.7642 109.414 93.7925 110.844 94.6245C111.227 94.8489 111.601 95.092 111.984 95.3257C119.472 99.8783 126.961 104.45 134.467 108.965C137.393 110.722 140.347 112.461 143.376 114.013C147.069 115.901 147.462 115.602 149.481 111.816C153.043 105.17 156.754 98.5976 160.381 91.9883C160.718 91.3713 160.895 90.6608 161.456 89.2025C159.858 89.2025 159.007 89.1931 158.156 89.2025C150.509 89.296 142.862 89.5203 135.215 89.4455C127.699 89.3614 120.183 88.9968 112.667 88.6883C110.965 88.6135 109.918 89.2025 109.301 90.9039ZM157.231 92.2781C156.333 96.167 153.725 99.0837 152.061 102.477C150.425 105.815 148.667 109.086 146.676 112.929C134.486 105.852 122.548 98.9248 110.62 91.9883C110.685 91.6985 110.75 91.4181 110.816 91.1283C126.175 91.5115 141.535 91.8948 157.231 92.2781Z" fill="#8DA399"/>
<path opacity="0.15" d="M108.861 8.2038C110.217 10.7521 111.564 13.348 112.917 15.9987C109.872 15.228 106.864 14.4671 103.855 13.7057C105.517 11.8798 107.181 10.0518 108.861 8.2038Z" fill="#F8F9F5" stroke="#FF2400" stroke-width="7"/>
<path d="M102.795 18.5566C107.88 19.8093 112.938 21.1929 118.014 22.4736C119.061 22.7354 120.164 22.7728 121.632 22.9691C117.537 15.294 113.658 8.04902 109.825 0.860107C109.311 0.953591 109.002 0.916195 108.899 1.04707C104.702 6.41305 99.8221 11.0686 94.9516 15.7521C94.7553 15.9391 94.6899 16.2663 94.4655 16.7056C95.0451 16.9113 95.4938 17.1357 95.9706 17.2292C98.2423 17.6872 100.542 18.0051 102.795 18.5566ZM109.591 2.19694C112.947 8.29209 116.172 14.6303 119.51 21.277C111.919 19.3606 104.665 17.5283 97.3355 15.668C101.411 11.1901 105.422 6.787 109.591 2.19694Z" fill="#8DA399"/>
<path d="M102.795 18.5566C107.88 19.8093 112.938 21.1929 118.014 22.4736C119.061 22.7354 120.164 22.7728 121.632 22.9691C117.537 15.294 113.658 8.04902 109.825 0.860107C109.311 0.953591 109.002 0.916195 108.899 1.04707C104.702 6.41305 99.8221 11.0686 94.9516 15.7521C94.7553 15.9391 94.6899 16.2663 94.4655 16.7056C95.0451 16.9113 95.4938 17.1357 95.9706 17.2292C98.2423 17.6872 100.542 18.0051 102.795 18.5566ZM109.591 2.19694C112.947 8.29209 116.172 14.6303 119.51 21.277C111.919 19.3606 104.665 17.5283 97.3355 15.668C101.411 11.1901 105.422 6.787 109.591 2.19694Z" fill="#8DA399"/>
<path opacity="0.39" d="M108.861 8.2038C110.217 10.7521 111.564 13.348 112.917 15.9987C109.872 15.228 106.864 14.4671 103.855 13.7057C105.517 11.8798 107.181 10.0518 108.861 8.2038Z" fill="#F8F9F5" stroke="#FF2400" stroke-width="7"/>
<path d="M102.795 18.5566C107.88 19.8093 112.938 21.1929 118.014 22.4736C119.061 22.7354 120.164 22.7728 121.632 22.9691C117.537 15.294 113.658 8.04902 109.825 0.860107C109.311 0.953591 109.002 0.916195 108.899 1.04707C104.702 6.41305 99.8221 11.0686 94.9516 15.7521C94.7553 15.9391 94.6899 16.2663 94.4655 16.7056C95.0451 16.9113 95.4938 17.1357 95.9706 17.2292C98.2423 17.6872 100.542 18.0051 102.795 18.5566ZM109.591 2.19694C112.947 8.29209 116.172 14.6303 119.51 21.277C111.919 19.3606 104.665 17.5283 97.3355 15.668C101.411 11.1901 105.422 6.787 109.591 2.19694Z" fill="#8DA399"/>
<path d="M102.795 18.5566C107.88 19.8093 112.938 21.1929 118.014 22.4736C119.061 22.7354 120.164 22.7728 121.632 22.9691C117.537 15.294 113.658 8.04902 109.825 0.860107C109.311 0.953591 109.002 0.916195 108.899 1.04707C104.702 6.41305 99.8221 11.0686 94.9516 15.7521C94.7553 15.9391 94.6899 16.2663 94.4655 16.7056C95.0451 16.9113 95.4938 17.1357 95.9706 17.2292C98.2423 17.6872 100.542 18.0051 102.795 18.5566ZM109.591 2.19694C112.947 8.29209 116.172 14.6303 119.51 21.277C111.919 19.3606 104.665 17.5283 97.3355 15.668C101.411 11.1901 105.422 6.787 109.591 2.19694Z" fill="#8DA399"/>
<path opacity="0.15" d="M72.4585 240.949C72.3046 242.201 72.1021 243.574 71.8423 245.042C71.2547 248.361 70.4587 251.741 69.5688 254.685H47.438C46.8819 252.641 46.3201 250.576 45.7573 248.51C46.3732 248.298 47.0345 248.076 47.7368 247.846C51.3704 246.659 55.8998 245.311 60.4507 244.048C64.74 242.857 68.9866 241.759 72.4585 240.949Z" fill="#F8F9F5" stroke="#870074" stroke-width="13"/>
<path d="M78.5639 230.26C72.9922 231.709 67.4766 233.411 61.8863 234.748C53.1362 236.851 44.4329 239.085 35.5145 242.591C37.029 250.378 38.6462 257.698 40.6655 264.317C46.742 264.13 52.164 263.84 57.5954 263.83C62.3164 263.821 67.0373 264.195 71.7582 264.288C73.3287 264.326 74.918 264.027 76.395 263.887C79.9942 252.762 81.9106 241.74 82.808 229.784C81.2094 229.961 79.8352 229.924 78.5639 230.26ZM74.1888 261.185C63.6345 261.185 53.3606 261.185 42.4697 261.185C41.002 255.81 39.4782 250.191 37.9732 244.657C42.4417 241.918 75.0863 232.887 79.1622 233.177C80.0129 238.749 77.5169 252.93 74.1888 261.185Z" fill="#8DA399"/>
<path d="M78.5639 230.26C72.9922 231.709 67.4766 233.411 61.8863 234.748C53.1362 236.851 44.4329 239.085 35.5145 242.591C37.029 250.378 38.6462 257.698 40.6655 264.317C46.742 264.13 52.164 263.84 57.5954 263.83C62.3164 263.821 67.0373 264.195 71.7582 264.288C73.3287 264.326 74.918 264.027 76.395 263.887C79.9942 252.762 81.9106 241.74 82.808 229.784C81.2094 229.961 79.8352 229.924 78.5639 230.26ZM74.1888 261.185C63.6345 261.185 53.3606 261.185 42.4697 261.185C41.002 255.81 39.4782 250.191 37.9732 244.657C42.4417 241.918 75.0863 232.887 79.1622 233.177C80.0129 238.749 77.5169 252.93 74.1888 261.185Z" fill="#8DA399"/>
<path opacity="0.39" d="M72.4585 240.949C72.3046 242.201 72.1021 243.574 71.8423 245.042C71.2547 248.361 70.4587 251.741 69.5688 254.685H47.438C46.8819 252.641 46.3201 250.576 45.7573 248.51C46.3732 248.298 47.0345 248.076 47.7368 247.846C51.3704 246.659 55.8998 245.311 60.4507 244.048C64.74 242.857 68.9866 241.759 72.4585 240.949Z" fill="#F8F9F5" stroke="#870074" stroke-width="13"/>
<path d="M78.5639 230.26C72.9922 231.709 67.4766 233.411 61.8863 234.748C53.1362 236.851 44.4329 239.085 35.5145 242.591C37.029 250.378 38.6462 257.698 40.6655 264.317C46.742 264.13 52.164 263.84 57.5954 263.83C62.3164 263.821 67.0373 264.195 71.7582 264.288C73.3287 264.326 74.918 264.027 76.395 263.887C79.9942 252.762 81.9106 241.74 82.808 229.784C81.2094 229.961 79.8352 229.924 78.5639 230.26ZM74.1888 261.185C63.6345 261.185 53.3606 261.185 42.4697 261.185C41.002 255.81 39.4782 250.191 37.9732 244.657C42.4417 241.918 75.0863 232.887 79.1622 233.177C80.0129 238.749 77.5169 252.93 74.1888 261.185Z" fill="#8DA399"/>
<path d="M78.5639 230.26C72.9922 231.709 67.4766 233.411 61.8863 234.748C53.1362 236.851 44.4329 239.085 35.5145 242.591C37.029 250.378 38.6462 257.698 40.6655 264.317C46.742 264.13 52.164 263.84 57.5954 263.83C62.3164 263.821 67.0373 264.195 71.7582 264.288C73.3287 264.326 74.918 264.027 76.395 263.887C79.9942 252.762 81.9106 241.74 82.808 229.784C81.2094 229.961 79.8352 229.924 78.5639 230.26ZM74.1888 261.185C63.6345 261.185 53.3606 261.185 42.4697 261.185C41.002 255.81 39.4782 250.191 37.9732 244.657C42.4417 241.918 75.0863 232.887 79.1622 233.177C80.0129 238.749 77.5169 252.93 74.1888 261.185Z" fill="#8DA399"/>
<path opacity="0.15" d="M237.748 316.623C236.483 316.748 235.206 316.872 233.901 317C233.753 312.044 233.606 307.204 233.458 302.347C237.317 301.456 241.222 300.555 245.318 299.609C242.728 305.43 240.255 310.988 237.748 316.623Z" fill="#F8F9F5" stroke="#595652" stroke-width="9"/>
<path d="M255.183 290.511C246.611 292.595 238.047 294.727 229.466 296.774C227.465 297.251 227.016 298.466 227.044 300.411C227.129 305.73 226.988 311.049 227.044 316.378C227.072 318.631 227.362 320.884 227.559 323.539C230.952 323.539 233.729 323.483 236.496 323.557C239.796 323.651 242.077 322.267 243.498 319.126C247.527 310.18 251.659 301.28 255.716 292.343C255.922 291.885 255.809 291.277 255.837 290.875C255.435 290.642 255.286 290.492 255.183 290.511ZM240.796 320.837C237.178 321.192 233.56 321.547 229.55 321.94C229.307 314.003 229.082 306.459 228.849 298.784C236.552 297.008 244.245 295.232 253.098 293.184C248.751 302.982 244.825 311.806 240.796 320.837Z" fill="#8DA399"/>
<path d="M255.183 290.511C246.611 292.595 238.047 294.727 229.466 296.774C227.465 297.251 227.016 298.466 227.044 300.411C227.129 305.73 226.988 311.049 227.044 316.378C227.072 318.631 227.362 320.884 227.559 323.539C230.952 323.539 233.729 323.483 236.496 323.557C239.796 323.651 242.077 322.267 243.498 319.126C247.527 310.18 251.659 301.28 255.716 292.343C255.922 291.885 255.809 291.277 255.837 290.875C255.435 290.642 255.286 290.492 255.183 290.511ZM240.796 320.837C237.178 321.192 233.56 321.547 229.55 321.94C229.307 314.003 229.082 306.459 228.849 298.784C236.552 297.008 244.245 295.232 253.098 293.184C248.751 302.982 244.825 311.806 240.796 320.837Z" fill="#8DA399"/>
<path opacity="0.39" d="M237.748 316.623C236.483 316.748 235.206 316.872 233.901 317C233.753 312.044 233.606 307.204 233.458 302.347C237.317 301.456 241.222 300.555 245.318 299.609C242.728 305.43 240.255 310.988 237.748 316.623Z" fill="#F8F9F5" stroke="#595652" stroke-width="9"/>
<path d="M255.183 290.511C246.611 292.595 238.047 294.727 229.466 296.774C227.465 297.251 227.016 298.466 227.044 300.411C227.129 305.73 226.988 311.049 227.044 316.378C227.072 318.631 227.362 320.884 227.559 323.539C230.952 323.539 233.729 323.483 236.496 323.557C239.796 323.651 242.077 322.267 243.498 319.126C247.527 310.18 251.659 301.28 255.716 292.343C255.922 291.885 255.809 291.277 255.837 290.875C255.435 290.642 255.286 290.492 255.183 290.511ZM240.796 320.837C237.178 321.192 233.56 321.547 229.55 321.94C229.307 314.003 229.082 306.459 228.849 298.784C236.552 297.008 244.245 295.232 253.098 293.184C248.751 302.982 244.825 311.806 240.796 320.837Z" fill="#8DA399"/>
<path d="M255.183 290.511C246.611 292.595 238.047 294.727 229.466 296.774C227.465 297.251 227.016 298.466 227.044 300.411C227.129 305.73 226.988 311.049 227.044 316.378C227.072 318.631 227.362 320.884 227.559 323.539C230.952 323.539 233.729 323.483 236.496 323.557C239.796 323.651 242.077 322.267 243.498 319.126C247.527 310.18 251.659 301.28 255.716 292.343C255.922 291.885 255.809 291.277 255.837 290.875C255.435 290.642 255.286 290.492 255.183 290.511ZM240.796 320.837C237.178 321.192 233.56 321.547 229.55 321.94C229.307 314.003 229.082 306.459 228.849 298.784C236.552 297.008 244.245 295.232 253.098 293.184C248.751 302.982 244.825 311.806 240.796 320.837Z" fill="#8DA399"/>
<path opacity="0.15" d="M171.47 173.878C169.276 173.193 167.16 172.565 165.04 171.835C168.65 170.471 172.206 169.126 175.807 167.767C174.353 169.816 172.92 171.834 171.47 173.878Z" fill="#F8F9F5" stroke="#71BC78" stroke-width="7"/>
<path d="M151.967 171.319C158.661 177.021 166.14 177.9 173.076 179.891C175.348 177.143 177.386 174.74 179.358 172.282C181.424 169.701 183.602 167.177 185.388 164.401C187.015 161.868 189.838 160.091 190.492 156.333C189.576 156.445 189.015 156.408 188.529 156.586C177.732 160.652 166.944 164.719 156.174 168.851C154.912 169.346 153.8 170.234 151.967 171.319ZM172.842 177.993C167.42 176.189 161.793 174.89 155.716 171.618C165.85 167.794 175.058 164.317 185.294 160.447C180.807 166.775 176.946 172.207 172.842 177.993Z" fill="#8DA399"/>
<path d="M151.967 171.319C158.661 177.021 166.14 177.9 173.076 179.891C175.348 177.143 177.386 174.74 179.358 172.282C181.424 169.701 183.602 167.177 185.388 164.401C187.015 161.868 189.838 160.091 190.492 156.333C189.576 156.445 189.015 156.408 188.529 156.586C177.732 160.652 166.944 164.719 156.174 168.851C154.912 169.346 153.8 170.234 151.967 171.319ZM172.842 177.993C167.42 176.189 161.793 174.89 155.716 171.618C165.85 167.794 175.058 164.317 185.294 160.447C180.807 166.775 176.946 172.207 172.842 177.993Z" fill="#8DA399"/>
<path opacity="0.39" d="M171.47 173.878C169.276 173.193 167.16 172.565 165.04 171.835C168.65 170.471 172.206 169.126 175.807 167.767C174.353 169.816 172.92 171.834 171.47 173.878Z" fill="#F8F9F5" stroke="#71BC78" stroke-width="7"/>
<path d="M151.967 171.319C158.661 177.021 166.14 177.9 173.076 179.891C175.348 177.143 177.386 174.74 179.358 172.282C181.424 169.701 183.602 167.177 185.388 164.401C187.015 161.868 189.838 160.091 190.492 156.333C189.576 156.445 189.015 156.408 188.529 156.586C177.732 160.652 166.944 164.719 156.174 168.851C154.912 169.346 153.8 170.234 151.967 171.319ZM172.842 177.993C167.42 176.189 161.793 174.89 155.716 171.618C165.85 167.794 175.058 164.317 185.294 160.447C180.807 166.775 176.946 172.207 172.842 177.993Z" fill="#8DA399"/>
<path d="M151.967 171.319C158.661 177.021 166.14 177.9 173.076 179.891C175.348 177.143 177.386 174.74 179.358 172.282C181.424 169.701 183.602 167.177 185.388 164.401C187.015 161.868 189.838 160.091 190.492 156.333C189.576 156.445 189.015 156.408 188.529 156.586C177.732 160.652 166.944 164.719 156.174 168.851C154.912 169.346 153.8 170.234 151.967 171.319ZM172.842 177.993C167.42 176.189 161.793 174.89 155.716 171.618C165.85 167.794 175.058 164.317 185.294 160.447C180.807 166.775 176.946 172.207 172.842 177.993Z" fill="#8DA399"/>
<path opacity="0.15" d="M112.366 180.116C107.375 182.302 102.332 184.496 97.1487 186.75C97.6799 183.693 98.2732 180.803 99.301 177.853C103.681 178.613 108.006 179.361 112.366 180.116Z" fill="#F8F9F5" stroke="#ADD8E6" stroke-width="7"/>
<path d="M95.3443 173.347C92.652 178.18 89.81 192.025 90.6981 196.12C101.692 191.147 112.658 186.183 123.623 181.219C123.801 176.638 123.801 176.666 119.734 175.974C111.76 174.609 103.851 172.721 95.3443 173.347ZM121.193 180.06C111.882 184.173 102.533 188.221 92.6145 192.54C93.755 186.267 94.3347 180.275 97.0924 173.918C105.45 175.367 113.536 176.769 121.978 178.227C121.613 179.106 121.538 179.91 121.193 180.06Z" fill="#8DA399"/>
<path d="M95.3443 173.347C92.652 178.18 89.81 192.025 90.6981 196.12C101.692 191.147 112.658 186.183 123.623 181.219C123.801 176.638 123.801 176.666 119.734 175.974C111.76 174.609 103.851 172.721 95.3443 173.347ZM121.193 180.06C111.882 184.173 102.533 188.221 92.6145 192.54C93.755 186.267 94.3347 180.275 97.0924 173.918C105.45 175.367 113.536 176.769 121.978 178.227C121.613 179.106 121.538 179.91 121.193 180.06Z" fill="#8DA399"/>
<path opacity="0.39" d="M112.366 180.116C107.375 182.302 102.332 184.496 97.1487 186.75C97.6799 183.693 98.2732 180.803 99.301 177.853C103.681 178.613 108.006 179.361 112.366 180.116Z" fill="#F8F9F5" stroke="#ADD8E6" stroke-width="7"/>
<path d="M95.3443 173.347C92.652 178.18 89.81 192.025 90.6981 196.12C101.692 191.147 112.658 186.183 123.623 181.219C123.801 176.638 123.801 176.666 119.734 175.974C111.76 174.609 103.851 172.721 95.3443 173.347ZM121.193 180.06C111.882 184.173 102.533 188.221 92.6145 192.54C93.755 186.267 94.3347 180.275 97.0924 173.918C105.45 175.367 113.536 176.769 121.978 178.227C121.613 179.106 121.538 179.91 121.193 180.06Z" fill="#8DA399"/>
<path d="M95.3443 173.347C92.652 178.18 89.81 192.025 90.6981 196.12C101.692 191.147 112.658 186.183 123.623 181.219C123.801 176.638 123.801 176.666 119.734 175.974C111.76 174.609 103.851 172.721 95.3443 173.347ZM121.193 180.06C111.882 184.173 102.533 188.221 92.6145 192.54C93.755 186.267 94.3347 180.275 97.0924 173.918C105.45 175.367 113.536 176.769 121.978 178.227C121.613 179.106 121.538 179.91 121.193 180.06Z" fill="#8DA399"/>
<path opacity="0.15" d="M170.945 304.365C170.889 304.702 170.833 305.038 170.786 305.365C173.721 306.253 176.629 307.31 179.611 307.955C180.789 308.207 182.443 307.974 183.359 307.254C188.062 303.57 192.596 299.663 197.186 295.83C197.036 295.587 196.877 295.344 196.728 295.101C188.136 298.186 179.536 301.271 170.945 304.365Z" fill="#F8F9F5"/>
<path d="M164.98 304.543C164.971 304.87 164.971 305.188 164.962 305.515C169.094 306.936 173.244 308.282 177.348 309.787C180.798 311.058 183.649 310.189 186.323 307.796C191.455 303.215 196.681 298.747 201.822 294.175C202.888 293.231 203.758 292.044 204.72 290.969C204.487 290.67 204.262 290.37 204.029 290.081C191.016 294.895 178.003 299.719 164.98 304.543ZM183.359 307.254C182.443 307.974 180.779 308.207 179.611 307.955C176.628 307.31 173.721 306.253 170.786 305.365C170.842 305.029 170.889 304.692 170.945 304.365C179.536 301.28 188.136 298.195 196.727 295.11C196.877 295.353 197.027 295.596 197.186 295.839C192.596 299.663 188.062 303.57 183.359 307.254Z" fill="#8DA399"/>
<path d="M164.98 304.543C164.971 304.87 164.971 305.188 164.962 305.515C169.094 306.936 173.244 308.282 177.348 309.787C180.798 311.058 183.649 310.189 186.323 307.796C191.455 303.215 196.681 298.747 201.822 294.175C202.888 293.231 203.758 292.044 204.72 290.969C204.487 290.67 204.262 290.37 204.029 290.081C191.016 294.895 178.003 299.719 164.98 304.543ZM183.359 307.254C182.443 307.974 180.779 308.207 179.611 307.955C176.628 307.31 173.721 306.253 170.786 305.365C170.842 305.029 170.889 304.692 170.945 304.365C179.536 301.28 188.136 298.195 196.727 295.11C196.877 295.353 197.027 295.596 197.186 295.839C192.596 299.663 188.062 303.57 183.359 307.254Z" fill="#8DA399"/>
<path opacity="0.39" d="M181.263 304.448C181.209 304.468 181.116 304.497 180.987 304.52C180.925 304.53 180.861 304.538 180.798 304.543C181.009 304.468 181.219 304.392 181.429 304.317C181.374 304.36 181.319 304.404 181.263 304.448Z" fill="#F8F9F5" stroke="#F3DECA" stroke-width="7"/>
<path d="M164.98 304.543C164.971 304.87 164.971 305.188 164.962 305.515C169.094 306.936 173.244 308.282 177.348 309.787C180.798 311.058 183.649 310.189 186.323 307.796C191.455 303.215 196.681 298.747 201.822 294.175C202.888 293.231 203.758 292.044 204.72 290.969C204.487 290.67 204.262 290.37 204.029 290.081C191.016 294.895 178.003 299.719 164.98 304.543ZM183.359 307.254C182.443 307.974 180.779 308.207 179.611 307.955C176.628 307.31 173.721 306.253 170.786 305.365C170.842 305.029 170.889 304.692 170.945 304.365C179.536 301.28 188.136 298.195 196.727 295.11C196.877 295.353 197.027 295.596 197.186 295.839C192.596 299.663 188.062 303.57 183.359 307.254Z" fill="#8DA399"/>
<path d="M164.98 304.543C164.971 304.87 164.971 305.188 164.962 305.515C169.094 306.936 173.244 308.282 177.348 309.787C180.798 311.058 183.649 310.189 186.323 307.796C191.455 303.215 196.681 298.747 201.822 294.175C202.888 293.231 203.758 292.044 204.72 290.969C204.487 290.67 204.262 290.37 204.029 290.081C191.016 294.895 178.003 299.719 164.98 304.543ZM183.359 307.254C182.443 307.974 180.779 308.207 179.611 307.955C176.628 307.31 173.721 306.253 170.786 305.365C170.842 305.029 170.889 304.692 170.945 304.365C179.536 301.28 188.136 298.195 196.727 295.11C196.877 295.353 197.027 295.596 197.186 295.839C192.596 299.663 188.062 303.57 183.359 307.254Z" fill="#8DA399"/>
</svg>
