<svg width="48" height="36" viewBox="0 0 48 36" fill="none" className="melpomene" xmlns="http://www.w3.org/2000/svg">
<path opacity="0.15" d="M37.4585 11.949C37.3046 13.2012 37.1021 14.5744 36.8423 16.0417C36.2547 19.3607 35.4587 22.7414 34.5688 25.6853H12.438C11.8819 23.6411 11.3201 21.5763 10.7573 19.5095C11.3732 19.2982 12.0345 19.076 12.7368 18.8464C16.3704 17.6586 20.8998 16.3111 25.4507 15.0476C29.74 13.8568 33.9866 12.7586 37.4585 11.949Z" fill="#F8F9F5" stroke="#870074" stroke-width="13"/>
<path d="M43.5639 1.26035C37.9922 2.70935 32.4766 4.41077 26.8863 5.74759C18.1362 7.85098 9.43289 10.0852 0.514526 13.5909C2.02897 21.3781 3.64625 28.6979 5.6655 35.3165C11.742 35.1296 17.164 34.8398 22.5954 34.8304C27.3164 34.8211 32.0373 35.195 36.7582 35.2885C38.3287 35.3259 39.918 35.0267 41.395 34.8865C44.9942 23.7619 46.9106 12.7402 47.808 0.783569C46.2094 0.961189 44.8353 0.923804 43.5639 1.26035ZM39.1888 32.1848C28.6345 32.1848 18.3606 32.1848 7.46973 32.1848C6.00204 26.8095 4.47825 21.1911 2.97316 15.6569C7.44169 12.9178 40.0863 3.88724 44.1622 4.17704C45.0129 9.74868 42.5169 23.9302 39.1888 32.1848Z" fill="#8DA399"/>
<path d="M43.5639 1.26035C37.9922 2.70935 32.4766 4.41077 26.8863 5.74759C18.1362 7.85098 9.43289 10.0852 0.514526 13.5909C2.02897 21.3781 3.64625 28.6979 5.6655 35.3165C11.742 35.1296 17.164 34.8398 22.5954 34.8304C27.3164 34.8211 32.0373 35.195 36.7582 35.2885C38.3287 35.3259 39.918 35.0267 41.395 34.8865C44.9942 23.7619 46.9106 12.7402 47.808 0.783569C46.2094 0.961189 44.8353 0.923804 43.5639 1.26035ZM39.1888 32.1848C28.6345 32.1848 18.3606 32.1848 7.46973 32.1848C6.00204 26.8095 4.47825 21.1911 2.97316 15.6569C7.44169 12.9178 40.0863 3.88724 44.1622 4.17704C45.0129 9.74868 42.5169 23.9302 39.1888 32.1848Z" fill="#8DA399"/>
<path opacity="0.39" d="M37.4585 11.949C37.3046 13.2012 37.1021 14.5744 36.8423 16.0417C36.2547 19.3607 35.4587 22.7414 34.5688 25.6853H12.438C11.8819 23.6411 11.3201 21.5763 10.7573 19.5095C11.3732 19.2982 12.0345 19.076 12.7368 18.8464C16.3704 17.6586 20.8998 16.3111 25.4507 15.0476C29.74 13.8568 33.9866 12.7586 37.4585 11.949Z" fill="#F8F9F5" stroke="#870074" stroke-width="13"/>
<path d="M43.5639 1.26035C37.9922 2.70935 32.4766 4.41077 26.8863 5.74759C18.1362 7.85098 9.43289 10.0852 0.514526 13.5909C2.02897 21.3781 3.64625 28.6979 5.6655 35.3165C11.742 35.1296 17.164 34.8398 22.5954 34.8304C27.3164 34.8211 32.0373 35.195 36.7582 35.2885C38.3287 35.3259 39.918 35.0267 41.395 34.8865C44.9942 23.7619 46.9106 12.7402 47.808 0.783569C46.2094 0.961189 44.8353 0.923804 43.5639 1.26035ZM39.1888 32.1848C28.6345 32.1848 18.3606 32.1848 7.46973 32.1848C6.00204 26.8095 4.47825 21.1911 2.97316 15.6569C7.44169 12.9178 40.0863 3.88724 44.1622 4.17704C45.0129 9.74868 42.5169 23.9302 39.1888 32.1848Z" fill="#8DA399"/>
<path d="M43.5639 1.26035C37.9922 2.70935 32.4766 4.41077 26.8863 5.74759C18.1362 7.85098 9.43289 10.0852 0.514526 13.5909C2.02897 21.3781 3.64625 28.6979 5.6655 35.3165C11.742 35.1296 17.164 34.8398 22.5954 34.8304C27.3164 34.8211 32.0373 35.195 36.7582 35.2885C38.3287 35.3259 39.918 35.0267 41.395 34.8865C44.9942 23.7619 46.9106 12.7402 47.808 0.783569C46.2094 0.961189 44.8353 0.923804 43.5639 1.26035ZM39.1888 32.1848C28.6345 32.1848 18.3606 32.1848 7.46973 32.1848C6.00204 26.8095 4.47825 21.1911 2.97316 15.6569C7.44169 12.9178 40.0863 3.88724 44.1622 4.17704C45.0129 9.74868 42.5169 23.9302 39.1888 32.1848Z" fill="#8DA399"/>
</svg>
