<svg width="28" height="23" viewBox="0 0 28 23" fill="none" xmlns="http://www.w3.org/2000/svg">
<path className="polyhymnia" opacity="0.15" d="M14.8608 8.2038C16.2174 10.7521 17.5636 13.348 18.9175 15.9987C15.8722 15.228 12.8637 14.4671 9.85498 13.7057C11.5171 11.8798 13.1813 10.0518 14.8608 8.2038Z" fill="#F8F9F5" stroke="#FF2400" stroke-width="7"/>
<path className="polyhymnia" d="M8.79491 18.5566C13.8804 19.8093 18.9379 21.1929 24.0141 22.4736C25.0611 22.7354 26.1642 22.7728 27.6319 22.9691C23.5373 15.294 19.6578 8.04902 15.8249 0.860107C15.3108 0.953591 15.0023 0.916195 14.8994 1.04707C10.702 6.41305 5.82211 11.0686 0.951593 15.7521C0.755277 15.9391 0.689877 16.2663 0.465515 16.7056C1.04512 16.9113 1.49382 17.1357 1.97059 17.2292C4.24225 17.6872 6.54195 18.0051 8.79491 18.5566ZM15.5912 2.19694C18.9473 8.29209 22.1725 14.6303 25.5098 21.277C17.9189 19.3606 10.6646 17.5283 3.33548 15.668C7.41138 11.1901 11.4218 6.787 15.5912 2.19694Z" fill="#8DA399"/>
<path className="polyhymnia" d="M8.79491 18.5566C13.8804 19.8093 18.9379 21.1929 24.0141 22.4736C25.0611 22.7354 26.1642 22.7728 27.6319 22.9691C23.5373 15.294 19.6578 8.04902 15.8249 0.860107C15.3108 0.953591 15.0023 0.916195 14.8994 1.04707C10.702 6.41305 5.82211 11.0686 0.951593 15.7521C0.755277 15.9391 0.689877 16.2663 0.465515 16.7056C1.04512 16.9113 1.49382 17.1357 1.97059 17.2292C4.24225 17.6872 6.54195 18.0051 8.79491 18.5566ZM15.5912 2.19694C18.9473 8.29209 22.1725 14.6303 25.5098 21.277C17.9189 19.3606 10.6646 17.5283 3.33548 15.668C7.41138 11.1901 11.4218 6.787 15.5912 2.19694Z" fill="#8DA399"/>
<path className="polyhymnia" opacity="0.39" d="M14.8608 8.2038C16.2174 10.7521 17.5636 13.348 18.9175 15.9987C15.8722 15.228 12.8637 14.4671 9.85498 13.7057C11.5171 11.8798 13.1813 10.0518 14.8608 8.2038Z" fill="#F8F9F5" stroke="#FF2400" stroke-width="7"/>
<path className="polyhymnia" d="M8.79491 18.5566C13.8804 19.8093 18.9379 21.1929 24.0141 22.4736C25.0611 22.7354 26.1642 22.7728 27.6319 22.9691C23.5373 15.294 19.6578 8.04902 15.8249 0.860107C15.3108 0.953591 15.0023 0.916195 14.8994 1.04707C10.702 6.41305 5.82211 11.0686 0.951593 15.7521C0.755277 15.9391 0.689877 16.2663 0.465515 16.7056C1.04512 16.9113 1.49382 17.1357 1.97059 17.2292C4.24225 17.6872 6.54195 18.0051 8.79491 18.5566ZM15.5912 2.19694C18.9473 8.29209 22.1725 14.6303 25.5098 21.277C17.9189 19.3606 10.6646 17.5283 3.33548 15.668C7.41138 11.1901 11.4218 6.787 15.5912 2.19694Z" fill="#8DA399"/>
<path className="polyhymnia" d="M8.79491 18.5566C13.8804 19.8093 18.9379 21.1929 24.0141 22.4736C25.0611 22.7354 26.1642 22.7728 27.6319 22.9691C23.5373 15.294 19.6578 8.04902 15.8249 0.860107C15.3108 0.953591 15.0023 0.916195 14.8994 1.04707C10.702 6.41305 5.82211 11.0686 0.951593 15.7521C0.755277 15.9391 0.689877 16.2663 0.465515 16.7056C1.04512 16.9113 1.49382 17.1357 1.97059 17.2292C4.24225 17.6872 6.54195 18.0051 8.79491 18.5566ZM15.5912 2.19694C18.9473 8.29209 22.1725 14.6303 25.5098 21.277C17.9189 19.3606 10.6646 17.5283 3.33548 15.668C7.41138 11.1901 11.4218 6.787 15.5912 2.19694Z" fill="#8DA399"/>
</svg>
