<svg width="53" height="28" viewBox="0 0 53 28" fill="none" className="terpsichore" xmlns="http://www.w3.org/2000/svg">
<path opacity="0.15" d="M42.9822 7.65808C42.9573 7.70047 42.9332 7.74429 42.908 7.78699C42.1847 9.00898 41.1279 10.621 40.2654 12.2479L39.9089 12.9452V12.9462C38.7641 15.2817 37.5729 17.5523 36.2556 20.0712C28.6474 15.651 21.1249 11.283 13.6306 6.93152C23.3527 7.17373 33.1107 7.41586 42.9822 7.65808Z" fill="#F8F9F5" stroke="#FFFD01" stroke-width="7"/>
<path d="M0.301415 2.90387C-0.37167 4.7642 0.413561 5.79254 1.84387 6.62455C2.22715 6.84891 2.60111 7.09196 2.9844 7.32567C10.4725 11.8783 17.9605 16.4497 25.4673 20.965C28.3933 22.7225 31.3474 24.4613 34.3763 26.0131C38.0689 27.9015 38.4615 27.6024 40.4808 23.8163C44.0425 17.1695 47.7539 10.5976 51.381 3.98829C51.7176 3.3713 51.8952 2.66084 52.4561 1.20249C50.8575 1.20249 50.0068 1.19314 49.1561 1.20249C41.5091 1.29597 33.8621 1.52031 26.2151 1.44553C18.699 1.36139 11.1829 0.996807 3.66681 0.68831C1.96541 0.613523 0.918408 1.20247 0.301415 2.90387ZM48.2306 4.27809C47.3331 8.16702 44.725 11.0837 43.061 14.4772C41.425 17.8146 39.6675 21.0865 37.6763 24.9287C25.486 17.852 13.5481 10.9248 1.61951 3.98829C1.68495 3.69849 1.75041 3.41806 1.81585 3.12826C17.1753 3.51154 32.5346 3.89481 48.2306 4.27809Z" fill="#8DA399"/>
<path d="M0.301415 2.90387C-0.37167 4.7642 0.413561 5.79254 1.84387 6.62455C2.22715 6.84891 2.60111 7.09196 2.9844 7.32567C10.4725 11.8783 17.9605 16.4497 25.4673 20.965C28.3933 22.7225 31.3474 24.4613 34.3763 26.0131C38.0689 27.9015 38.4615 27.6024 40.4808 23.8163C44.0425 17.1695 47.7539 10.5976 51.381 3.98829C51.7176 3.3713 51.8952 2.66084 52.4561 1.20249C50.8575 1.20249 50.0068 1.19314 49.1561 1.20249C41.5091 1.29597 33.8621 1.52031 26.2151 1.44553C18.699 1.36139 11.1829 0.996807 3.66681 0.68831C1.96541 0.613523 0.918408 1.20247 0.301415 2.90387ZM48.2306 4.27809C47.3331 8.16702 44.725 11.0837 43.061 14.4772C41.425 17.8146 39.6675 21.0865 37.6763 24.9287C25.486 17.852 13.5481 10.9248 1.61951 3.98829C1.68495 3.69849 1.75041 3.41806 1.81585 3.12826C17.1753 3.51154 32.5346 3.89481 48.2306 4.27809Z" fill="#8DA399"/>
<path opacity="0.39" d="M42.9822 7.65808C42.9573 7.70047 42.9332 7.74429 42.908 7.78699C42.1847 9.00898 41.1279 10.621 40.2654 12.2479L39.9089 12.9452V12.9462C38.7641 15.2817 37.5729 17.5523 36.2556 20.0712C28.6474 15.651 21.1249 11.283 13.6306 6.93152C23.3527 7.17373 33.1107 7.41586 42.9822 7.65808Z" fill="#F8F9F5" stroke="#FFFD01" stroke-width="7"/>
<path d="M0.301415 2.90387C-0.37167 4.7642 0.413561 5.79254 1.84387 6.62455C2.22715 6.84891 2.60111 7.09196 2.9844 7.32567C10.4725 11.8783 17.9605 16.4497 25.4673 20.965C28.3933 22.7225 31.3474 24.4613 34.3763 26.0131C38.0689 27.9015 38.4615 27.6024 40.4808 23.8163C44.0425 17.1695 47.7539 10.5976 51.381 3.98829C51.7176 3.3713 51.8952 2.66084 52.4561 1.20249C50.8575 1.20249 50.0068 1.19314 49.1561 1.20249C41.5091 1.29597 33.8621 1.52031 26.2151 1.44553C18.699 1.36139 11.1829 0.996807 3.66681 0.68831C1.96541 0.613523 0.918408 1.20247 0.301415 2.90387ZM48.2306 4.27809C47.3331 8.16702 44.725 11.0837 43.061 14.4772C41.425 17.8146 39.6675 21.0865 37.6763 24.9287C25.486 17.852 13.5481 10.9248 1.61951 3.98829C1.68495 3.69849 1.75041 3.41806 1.81585 3.12826C17.1753 3.51154 32.5346 3.89481 48.2306 4.27809Z" fill="#8DA399"/>
<path d="M0.301415 2.90387C-0.37167 4.7642 0.413561 5.79254 1.84387 6.62455C2.22715 6.84891 2.60111 7.09196 2.9844 7.32567C10.4725 11.8783 17.9605 16.4497 25.4673 20.965C28.3933 22.7225 31.3474 24.4613 34.3763 26.0131C38.0689 27.9015 38.4615 27.6024 40.4808 23.8163C44.0425 17.1695 47.7539 10.5976 51.381 3.98829C51.7176 3.3713 51.8952 2.66084 52.4561 1.20249C50.8575 1.20249 50.0068 1.19314 49.1561 1.20249C41.5091 1.29597 33.8621 1.52031 26.2151 1.44553C18.699 1.36139 11.1829 0.996807 3.66681 0.68831C1.96541 0.613523 0.918408 1.20247 0.301415 2.90387ZM48.2306 4.27809C47.3331 8.16702 44.725 11.0837 43.061 14.4772C41.425 17.8146 39.6675 21.0865 37.6763 24.9287C25.486 17.852 13.5481 10.9248 1.61951 3.98829C1.68495 3.69849 1.75041 3.41806 1.81585 3.12826C17.1753 3.51154 32.5346 3.89481 48.2306 4.27809Z" fill="#8DA399"/>
</svg>
