<svg width="50" height="23" viewBox="0 0 50 23" fill="none" className="thalia" xmlns="http://www.w3.org/2000/svg">
<path opacity="0.15" d="M39.2582 6.71747C41.2044 6.70947 42.9234 6.72158 44.3559 6.75165C44.3023 7.22748 44.2491 7.69422 44.1977 8.15106C36.7206 11.06 29.4251 13.8906 22.062 16.7487C18.915 13.7358 15.6947 10.6566 12.4555 7.55829C15.9926 7.35111 20.2784 7.16195 24.6752 7.01532C29.746 6.84622 34.9342 6.73523 39.2582 6.71747Z" fill="#F8F9F5" stroke="#FF6FFF" stroke-width="8"/>
<path d="M46.0408 0.927034C39.0295 1.12335 32.0182 1.41316 25.007 1.58143C20.4636 1.69361 15.9109 1.60948 11.3583 1.70297C7.87131 1.76841 4.43114 2.18908 0 3.57264C1.43965 5.06839 2.15011 5.90973 2.95407 6.62956C7.99285 11.1542 13.1064 15.5853 18.0798 20.1754C21.2302 23.0827 21.0806 23.0173 25.1471 21.4748C31.3264 19.1284 37.5712 16.9128 43.8626 14.8842C48.2097 13.4819 48.2564 13.6689 48.7518 8.80772C48.9014 7.37742 49.2193 5.96582 49.3502 4.52617C49.6399 1.29163 49.238 0.842898 46.0408 0.927034ZM47.9105 11.014C38.8239 14.5383 30.0551 17.9411 21.1461 21.4094C15.4061 15.9219 9.38575 10.1539 3.41213 4.44204C5.94554 3.43241 42.1051 2.16101 48.8173 2.99302C48.4807 5.92842 48.1816 8.63012 47.9105 11.014Z" fill="#8DA399"/>
<path d="M46.0408 0.927034C39.0295 1.12335 32.0182 1.41316 25.007 1.58143C20.4636 1.69361 15.9109 1.60948 11.3583 1.70297C7.87131 1.76841 4.43114 2.18908 0 3.57264C1.43965 5.06839 2.15011 5.90973 2.95407 6.62956C7.99285 11.1542 13.1064 15.5853 18.0798 20.1754C21.2302 23.0827 21.0806 23.0173 25.1471 21.4748C31.3264 19.1284 37.5712 16.9128 43.8626 14.8842C48.2097 13.4819 48.2564 13.6689 48.7518 8.80772C48.9014 7.37742 49.2193 5.96582 49.3502 4.52617C49.6399 1.29163 49.238 0.842898 46.0408 0.927034ZM47.9105 11.014C38.8239 14.5383 30.0551 17.9411 21.1461 21.4094C15.4061 15.9219 9.38575 10.1539 3.41213 4.44204C5.94554 3.43241 42.1051 2.16101 48.8173 2.99302C48.4807 5.92842 48.1816 8.63012 47.9105 11.014Z" fill="#8DA399"/>
<path opacity="0.39" d="M39.2582 5.71747C41.2044 5.70947 42.9234 5.72158 44.3559 5.75165C44.3023 6.22748 44.2491 6.69422 44.1977 7.15106C36.7206 10.06 29.4251 12.8906 22.062 15.7487C18.915 12.7358 15.6947 9.65659 12.4555 6.55829C15.9926 6.35111 20.2784 6.16195 24.6752 6.01532C29.746 5.84622 34.9342 5.73523 39.2582 5.71747Z" fill="#F8F9F5" stroke="#FF6FFF" stroke-width="8"/>
<path d="M46.0408 0.927034C39.0295 1.12335 32.0182 1.41316 25.007 1.58143C20.4636 1.69361 15.9109 1.60948 11.3583 1.70297C7.87131 1.76841 4.43114 2.18908 0 3.57264C1.43965 5.06839 2.15011 5.90973 2.95407 6.62956C7.99285 11.1542 13.1064 15.5853 18.0798 20.1754C21.2302 23.0827 21.0806 23.0173 25.1471 21.4748C31.3264 19.1284 37.5712 16.9128 43.8626 14.8842C48.2097 13.4819 48.2564 13.6689 48.7518 8.80772C48.9014 7.37742 49.2193 5.96582 49.3502 4.52617C49.6399 1.29163 49.238 0.842898 46.0408 0.927034ZM47.9105 11.014C38.8239 14.5383 30.0551 17.9411 21.1461 21.4094C15.4061 15.9219 9.38575 10.1539 3.41213 4.44204C5.94554 3.43241 42.1051 2.16101 48.8173 2.99302C48.4807 5.92842 48.1816 8.63012 47.9105 11.014Z" fill="#8DA399"/>
<path d="M46.0408 0.927034C39.0295 1.12335 32.0182 1.41316 25.007 1.58143C20.4636 1.69361 15.9109 1.60948 11.3583 1.70297C7.87131 1.76841 4.43114 2.18908 0 3.57264C1.43965 5.06839 2.15011 5.90973 2.95407 6.62956C7.99285 11.1542 13.1064 15.5853 18.0798 20.1754C21.2302 23.0827 21.0806 23.0173 25.1471 21.4748C31.3264 19.1284 37.5712 16.9128 43.8626 14.8842C48.2097 13.4819 48.2564 13.6689 48.7518 8.80772C48.9014 7.37742 49.2193 5.96582 49.3502 4.52617C49.6399 1.29163 49.238 0.842898 46.0408 0.927034ZM47.9105 11.014C38.8239 14.5383 30.0551 17.9411 21.1461 21.4094C15.4061 15.9219 9.38575 10.1539 3.41213 4.44204C5.94554 3.43241 42.1051 2.16101 48.8173 2.99302C48.4807 5.92842 48.1816 8.63012 47.9105 11.014Z" fill="#8DA399"/>
</svg>
