<svg width="37" height="22" viewBox="0 0 37 22" fill="none" xmlns="http://www.w3.org/2000/svg">
<path className="urania" opacity="0.15" d="M12.2843 6.04688C15.2276 7.19695 18.1481 8.51371 21.0831 9.90625V9.90723C22.8531 10.7483 24.5808 11.6077 26.2491 12.5234C25.0394 12.2936 23.9124 12.1904 22.9738 12.0908H22.9747C21.6324 11.9444 20.3429 12.0002 19.2599 12.0693C18.3802 12.1255 17.683 12.1849 17.0079 12.2129L16.3341 12.2295H16.3331C14.6314 12.2378 13.0798 12.2356 11.5968 12.1084L10.965 12.0459L10.9552 12.0449L10.1495 11.9463C9.81809 11.9021 9.48889 11.8525 9.1593 11.8008C10.2104 9.86872 11.248 7.95914 12.2843 6.04688Z" fill="#F8F9F5" stroke="#FF5A36" stroke-width="7"/>
<path className="urania" d="M9.87184 16.9446C12.1061 17.412 14.2936 17.4214 16.5559 17.2438C18.9211 17.0568 21.3329 17.0287 23.6981 17.2344C26.3998 17.4775 29.0267 18.1505 30.7187 20.712C30.8216 20.8709 31.1207 20.8803 31.6069 21.0766C33.3363 18.8049 35.1031 16.4772 36.8326 14.2055C36.066 13.5698 35.4397 12.9996 34.7666 12.4948C33.2709 11.3636 31.8218 10.1483 30.2326 9.18543C28.176 7.94209 25.9978 6.88572 23.857 5.78261C20.1176 3.85685 16.4251 1.77217 12.265 0.93081C10.2177 0.519481 9.79705 0.659696 8.75938 2.48263C7.69366 4.34296 6.76815 6.28744 5.75852 8.17582C4.59932 10.3446 3.44011 12.5041 1.36477 13.9438C1.07497 14.1494 0.99083 14.6823 0.719727 15.2619C1.45825 15.4675 2.00049 15.6732 2.56139 15.7667C4.99197 16.1687 7.45061 16.4398 9.87184 16.9446ZM9.27353 4.24948C10.5543 1.88434 10.7225 1.68802 13.1157 2.60417C16.3222 3.83815 19.4726 5.25911 22.5856 6.73615C25.2312 7.98884 27.8581 9.31631 30.3541 10.8401C31.9995 11.8404 33.4204 13.252 35.0471 14.5514C33.785 16.1406 32.6258 17.599 31.3825 19.1602C29.0454 16.2154 25.7641 15.9069 22.595 15.561C20.5383 15.3367 18.435 15.7106 16.3503 15.72C14.4245 15.7293 12.48 15.7293 10.5636 15.5143C8.26391 15.2619 5.99227 14.7758 3.74865 14.3925C5.63703 10.9336 7.45994 7.5962 9.27353 4.24948Z" fill="#8DA399"/>
<path className="urania" d="M9.87184 16.9446C12.1061 17.412 14.2936 17.4214 16.5559 17.2438C18.9211 17.0568 21.3329 17.0287 23.6981 17.2344C26.3998 17.4775 29.0267 18.1505 30.7187 20.712C30.8216 20.8709 31.1207 20.8803 31.6069 21.0766C33.3363 18.8049 35.1031 16.4772 36.8326 14.2055C36.066 13.5698 35.4397 12.9996 34.7666 12.4948C33.2709 11.3636 31.8218 10.1483 30.2326 9.18543C28.176 7.94209 25.9978 6.88572 23.857 5.78261C20.1176 3.85685 16.4251 1.77217 12.265 0.93081C10.2177 0.519481 9.79705 0.659696 8.75938 2.48263C7.69366 4.34296 6.76815 6.28744 5.75852 8.17582C4.59932 10.3446 3.44011 12.5041 1.36477 13.9438C1.07497 14.1494 0.99083 14.6823 0.719727 15.2619C1.45825 15.4675 2.00049 15.6732 2.56139 15.7667C4.99197 16.1687 7.45061 16.4398 9.87184 16.9446ZM9.27353 4.24948C10.5543 1.88434 10.7225 1.68802 13.1157 2.60417C16.3222 3.83815 19.4726 5.25911 22.5856 6.73615C25.2312 7.98884 27.8581 9.31631 30.3541 10.8401C31.9995 11.8404 33.4204 13.252 35.0471 14.5514C33.785 16.1406 32.6258 17.599 31.3825 19.1602C29.0454 16.2154 25.7641 15.9069 22.595 15.561C20.5383 15.3367 18.435 15.7106 16.3503 15.72C14.4245 15.7293 12.48 15.7293 10.5636 15.5143C8.26391 15.2619 5.99227 14.7758 3.74865 14.3925C5.63703 10.9336 7.45994 7.5962 9.27353 4.24948Z" fill="#8DA399"/>
<path className="urania" opacity="0.39" d="M12.2843 6.04688C15.2276 7.19695 18.1481 8.51371 21.0831 9.90625V9.90723C22.8531 10.7483 24.5808 11.6077 26.2491 12.5234C25.0394 12.2936 23.9124 12.1904 22.9738 12.0908H22.9747C21.6324 11.9444 20.3429 12.0002 19.2599 12.0693C18.3802 12.1255 17.683 12.1849 17.0079 12.2129L16.3341 12.2295H16.3331C14.6314 12.2378 13.0798 12.2356 11.5968 12.1084L10.965 12.0459L10.9552 12.0449L10.1495 11.9463C9.81809 11.9021 9.48889 11.8525 9.1593 11.8008C10.2104 9.86872 11.248 7.95914 12.2843 6.04688Z" fill="#F8F9F5" stroke="#FF5A36" stroke-width="7"/>
<path className="urania" d="M9.87184 16.9446C12.1061 17.412 14.2936 17.4214 16.5559 17.2438C18.9211 17.0568 21.3329 17.0287 23.6981 17.2344C26.3998 17.4775 29.0267 18.1505 30.7187 20.712C30.8216 20.8709 31.1207 20.8803 31.6069 21.0766C33.3363 18.8049 35.1031 16.4772 36.8326 14.2055C36.066 13.5698 35.4397 12.9996 34.7666 12.4948C33.2709 11.3636 31.8218 10.1483 30.2326 9.18543C28.176 7.94209 25.9978 6.88572 23.857 5.78261C20.1176 3.85685 16.4251 1.77217 12.265 0.93081C10.2177 0.519481 9.79705 0.659696 8.75938 2.48263C7.69366 4.34296 6.76815 6.28744 5.75852 8.17582C4.59932 10.3446 3.44011 12.5041 1.36477 13.9438C1.07497 14.1494 0.99083 14.6823 0.719727 15.2619C1.45825 15.4675 2.00049 15.6732 2.56139 15.7667C4.99197 16.1687 7.45061 16.4398 9.87184 16.9446ZM9.27353 4.24948C10.5543 1.88434 10.7225 1.68802 13.1157 2.60417C16.3222 3.83815 19.4726 5.25911 22.5856 6.73615C25.2312 7.98884 27.8581 9.31631 30.3541 10.8401C31.9995 11.8404 33.4204 13.252 35.0471 14.5514C33.785 16.1406 32.6258 17.599 31.3825 19.1602C29.0454 16.2154 25.7641 15.9069 22.595 15.561C20.5383 15.3367 18.435 15.7106 16.3503 15.72C14.4245 15.7293 12.48 15.7293 10.5636 15.5143C8.26391 15.2619 5.99227 14.7758 3.74865 14.3925C5.63703 10.9336 7.45994 7.5962 9.27353 4.24948Z" fill="#8DA399"/>
<path className="urania" d="M9.87184 16.9446C12.1061 17.412 14.2936 17.4214 16.5559 17.2438C18.9211 17.0568 21.3329 17.0287 23.6981 17.2344C26.3998 17.4775 29.0267 18.1505 30.7187 20.712C30.8216 20.8709 31.1207 20.8803 31.6069 21.0766C33.3363 18.8049 35.1031 16.4772 36.8326 14.2055C36.066 13.5698 35.4397 12.9996 34.7666 12.4948C33.2709 11.3636 31.8218 10.1483 30.2326 9.18543C28.176 7.94209 25.9978 6.88572 23.857 5.78261C20.1176 3.85685 16.4251 1.77217 12.265 0.93081C10.2177 0.519481 9.79705 0.659696 8.75938 2.48263C7.69366 4.34296 6.76815 6.28744 5.75852 8.17582C4.59932 10.3446 3.44011 12.5041 1.36477 13.9438C1.07497 14.1494 0.99083 14.6823 0.719727 15.2619C1.45825 15.4675 2.00049 15.6732 2.56139 15.7667C4.99197 16.1687 7.45061 16.4398 9.87184 16.9446ZM9.27353 4.24948C10.5543 1.88434 10.7225 1.68802 13.1157 2.60417C16.3222 3.83815 19.4726 5.25911 22.5856 6.73615C25.2312 7.98884 27.8581 9.31631 30.3541 10.8401C31.9995 11.8404 33.4204 13.252 35.0471 14.5514C33.785 16.1406 32.6258 17.599 31.3825 19.1602C29.0454 16.2154 25.7641 15.9069 22.595 15.561C20.5383 15.3367 18.435 15.7106 16.3503 15.72C14.4245 15.7293 12.48 15.7293 10.5636 15.5143C8.26391 15.2619 5.99227 14.7758 3.74865 14.3925C5.63703 10.9336 7.45994 7.5962 9.27353 4.24948Z" fill="#8DA399"/>
</svg>
